M48
; DRILL file {KiCad 9.0.2} date 2025-06-04T19:52:05-0300
; FORMAT={-:-/ absolute / metric / decimal}
; #@! TF.CreationDate,2025-06-04T19:52:05-03:00
; #@! TF.GenerationSoftware,Kicad,Pcbnew,9.0.2
; #@! TF.FileFunction,NonPlated,1,2,NPTH
FMAT,2
METRIC
; #@! TA.AperFunction,NonPlated,NPTH,ComponentDrill
T1C0.700
; #@! TA.AperFunction,NonPlated,NPTH,ComponentDrill
T2C0.787
; #@! TA.AperFunction,NonPlated,NPTH,ComponentDrill
T3C0.800
; #@! TA.AperFunction,NonPlated,NPTH,ComponentDrill
T4C1.000
; #@! TA.AperFunction,NonPlated,NPTH,ComponentDrill
T5C2.000
%
G90
G05
T1
X262.0Y-38.3
X262.0Y-40.84
X262.0Y-43.38
X262.0Y-45.92
X262.0Y-48.46
X262.0Y-51.0
X269.62Y-35.76
X269.62Y-38.3
X269.62Y-40.84
X269.62Y-43.38
X269.62Y-45.92
X269.62Y-48.46
X269.62Y-51.0
T2
X262.0Y-35.76
T3
X195.92Y-31.0
X195.92Y-38.0
X195.92Y-49.0
X195.92Y-56.0
X206.08Y-31.0
X206.08Y-38.0
X206.08Y-49.0
X206.08Y-56.0
X236.0Y-27.92
X236.0Y-38.08
X236.0Y-48.92
X236.0Y-59.08
X239.92Y-28.0
X239.92Y-38.0
X239.92Y-49.0
X239.92Y-59.0
X250.08Y-28.0
X250.08Y-38.0
X250.08Y-49.0
X250.08Y-59.0
X254.92Y-59.0
X254.92Y-74.0
X260.92Y-28.0
X261.0Y-21.0
X265.08Y-59.0
X265.08Y-74.0
X271.08Y-28.0
X271.16Y-21.0
T4
X119.2Y-28.95
X119.2Y-31.65
X119.2Y-34.35
X119.2Y-37.05
X119.2Y-39.75
X119.2Y-42.45
X119.2Y-45.15
X119.2Y-47.85
X119.2Y-50.55
X119.6Y-56.85
X122.3Y-56.85
X125.0Y-56.85
X127.7Y-56.85
X130.4Y-56.85
X133.1Y-56.85
X142.0Y-42.0
X142.0Y-57.0
X155.5Y-37.1
X155.5Y-39.6
X155.5Y-42.1
X155.5Y-50.4
X155.5Y-52.9
X174.3Y-37.1
X174.3Y-39.6
X174.3Y-50.4
X174.3Y-52.9
X211.5Y-28.0
X211.5Y-38.0
X211.5Y-49.0
X211.5Y-59.0
X226.5Y-28.0
X226.5Y-38.0
X226.5Y-49.0
X226.5Y-59.0
X237.5Y-43.5
X252.5Y-43.5
T5
X116.0Y-68.0
X124.0Y-68.0
X132.0Y-68.0
X140.0Y-68.0
X150.0Y-68.0
X158.0Y-68.0
X166.0Y-68.0
X173.0Y-22.5
X174.0Y-68.0
X181.0Y-22.5
X187.0Y-68.0
X196.0Y-68.0
X257.0Y-100.0
X269.0Y-100.0
X274.0Y-74.0
T4
G00X257.65Y-92.442
M15
G01X256.65Y-92.442
M16
G05
G00X262.45Y-82.942
M15
G01X261.45Y-82.942
M16
G05
G00X265.45Y-87.942
M15
G01X265.45Y-86.942
M16
G05
M30
