%TF.GenerationSoftware,KiCad,Pcbnew,9.0.2*%
%TF.CreationDate,2025-06-19T00:07:16-03:00*%
%TF.ProjectId,emitterFollower,656d6974-7465-4724-966f-6c6c6f776572,rev?*%
%TF.SameCoordinates,Original*%
%TF.FileFunction,Legend,Top*%
%TF.FilePolarity,Positive*%
%FSLAX46Y46*%
G04 Gerber Fmt 4.6, Leading zero omitted, Abs format (unit mm)*
G04 Created by KiCad (PCBNEW 9.0.2) date 2025-06-19 00:07:16*
%MOMM*%
%LPD*%
G01*
G04 APERTURE LIST*
%ADD10C,0.150000*%
%ADD11C,0.100000*%
%ADD12C,0.340000*%
%ADD13C,0.127000*%
%ADD14C,0.120000*%
G04 APERTURE END LIST*
D10*
X171485040Y-72637462D02*
X171485040Y-73638519D01*
X171485040Y-73638519D02*
X171418303Y-73838730D01*
X171418303Y-73838730D02*
X171284829Y-73972205D01*
X171284829Y-73972205D02*
X171084617Y-74038942D01*
X171084617Y-74038942D02*
X170951143Y-74038942D01*
X172886520Y-74038942D02*
X172085674Y-74038942D01*
X172486097Y-74038942D02*
X172486097Y-72637462D01*
X172486097Y-72637462D02*
X172352623Y-72837673D01*
X172352623Y-72837673D02*
X172219148Y-72971147D01*
X172219148Y-72971147D02*
X172085674Y-73037885D01*
X105238095Y-87056819D02*
X105809523Y-87056819D01*
X105523809Y-88056819D02*
X105523809Y-87056819D01*
X106142857Y-88056819D02*
X106142857Y-87056819D01*
X106142857Y-87056819D02*
X106523809Y-87056819D01*
X106523809Y-87056819D02*
X106619047Y-87104438D01*
X106619047Y-87104438D02*
X106666666Y-87152057D01*
X106666666Y-87152057D02*
X106714285Y-87247295D01*
X106714285Y-87247295D02*
X106714285Y-87390152D01*
X106714285Y-87390152D02*
X106666666Y-87485390D01*
X106666666Y-87485390D02*
X106619047Y-87533009D01*
X106619047Y-87533009D02*
X106523809Y-87580628D01*
X106523809Y-87580628D02*
X106142857Y-87580628D01*
X107571428Y-87390152D02*
X107571428Y-88056819D01*
X107333333Y-87009200D02*
X107095238Y-87723485D01*
X107095238Y-87723485D02*
X107714285Y-87723485D01*
X116833333Y-85609580D02*
X116785714Y-85657200D01*
X116785714Y-85657200D02*
X116642857Y-85704819D01*
X116642857Y-85704819D02*
X116547619Y-85704819D01*
X116547619Y-85704819D02*
X116404762Y-85657200D01*
X116404762Y-85657200D02*
X116309524Y-85561961D01*
X116309524Y-85561961D02*
X116261905Y-85466723D01*
X116261905Y-85466723D02*
X116214286Y-85276247D01*
X116214286Y-85276247D02*
X116214286Y-85133390D01*
X116214286Y-85133390D02*
X116261905Y-84942914D01*
X116261905Y-84942914D02*
X116309524Y-84847676D01*
X116309524Y-84847676D02*
X116404762Y-84752438D01*
X116404762Y-84752438D02*
X116547619Y-84704819D01*
X116547619Y-84704819D02*
X116642857Y-84704819D01*
X116642857Y-84704819D02*
X116785714Y-84752438D01*
X116785714Y-84752438D02*
X116833333Y-84800057D01*
X117166667Y-84704819D02*
X117785714Y-84704819D01*
X117785714Y-84704819D02*
X117452381Y-85085771D01*
X117452381Y-85085771D02*
X117595238Y-85085771D01*
X117595238Y-85085771D02*
X117690476Y-85133390D01*
X117690476Y-85133390D02*
X117738095Y-85181009D01*
X117738095Y-85181009D02*
X117785714Y-85276247D01*
X117785714Y-85276247D02*
X117785714Y-85514342D01*
X117785714Y-85514342D02*
X117738095Y-85609580D01*
X117738095Y-85609580D02*
X117690476Y-85657200D01*
X117690476Y-85657200D02*
X117595238Y-85704819D01*
X117595238Y-85704819D02*
X117309524Y-85704819D01*
X117309524Y-85704819D02*
X117214286Y-85657200D01*
X117214286Y-85657200D02*
X117166667Y-85609580D01*
X129833333Y-63084819D02*
X129500000Y-62608628D01*
X129261905Y-63084819D02*
X129261905Y-62084819D01*
X129261905Y-62084819D02*
X129642857Y-62084819D01*
X129642857Y-62084819D02*
X129738095Y-62132438D01*
X129738095Y-62132438D02*
X129785714Y-62180057D01*
X129785714Y-62180057D02*
X129833333Y-62275295D01*
X129833333Y-62275295D02*
X129833333Y-62418152D01*
X129833333Y-62418152D02*
X129785714Y-62513390D01*
X129785714Y-62513390D02*
X129738095Y-62561009D01*
X129738095Y-62561009D02*
X129642857Y-62608628D01*
X129642857Y-62608628D02*
X129261905Y-62608628D01*
X130166667Y-62084819D02*
X130833333Y-62084819D01*
X130833333Y-62084819D02*
X130404762Y-63084819D01*
X121990057Y-55095238D02*
X121942438Y-55190476D01*
X121942438Y-55190476D02*
X121847200Y-55285714D01*
X121847200Y-55285714D02*
X121704342Y-55428571D01*
X121704342Y-55428571D02*
X121656723Y-55523809D01*
X121656723Y-55523809D02*
X121656723Y-55619047D01*
X121894819Y-55571428D02*
X121847200Y-55666666D01*
X121847200Y-55666666D02*
X121751961Y-55761904D01*
X121751961Y-55761904D02*
X121561485Y-55809523D01*
X121561485Y-55809523D02*
X121228152Y-55809523D01*
X121228152Y-55809523D02*
X121037676Y-55761904D01*
X121037676Y-55761904D02*
X120942438Y-55666666D01*
X120942438Y-55666666D02*
X120894819Y-55571428D01*
X120894819Y-55571428D02*
X120894819Y-55380952D01*
X120894819Y-55380952D02*
X120942438Y-55285714D01*
X120942438Y-55285714D02*
X121037676Y-55190476D01*
X121037676Y-55190476D02*
X121228152Y-55142857D01*
X121228152Y-55142857D02*
X121561485Y-55142857D01*
X121561485Y-55142857D02*
X121751961Y-55190476D01*
X121751961Y-55190476D02*
X121847200Y-55285714D01*
X121847200Y-55285714D02*
X121894819Y-55380952D01*
X121894819Y-55380952D02*
X121894819Y-55571428D01*
X121894819Y-54190476D02*
X121894819Y-54761904D01*
X121894819Y-54476190D02*
X120894819Y-54476190D01*
X120894819Y-54476190D02*
X121037676Y-54571428D01*
X121037676Y-54571428D02*
X121132914Y-54666666D01*
X121132914Y-54666666D02*
X121180533Y-54761904D01*
X121990057Y-75095238D02*
X121942438Y-75190476D01*
X121942438Y-75190476D02*
X121847200Y-75285714D01*
X121847200Y-75285714D02*
X121704342Y-75428571D01*
X121704342Y-75428571D02*
X121656723Y-75523809D01*
X121656723Y-75523809D02*
X121656723Y-75619047D01*
X121894819Y-75571428D02*
X121847200Y-75666666D01*
X121847200Y-75666666D02*
X121751961Y-75761904D01*
X121751961Y-75761904D02*
X121561485Y-75809523D01*
X121561485Y-75809523D02*
X121228152Y-75809523D01*
X121228152Y-75809523D02*
X121037676Y-75761904D01*
X121037676Y-75761904D02*
X120942438Y-75666666D01*
X120942438Y-75666666D02*
X120894819Y-75571428D01*
X120894819Y-75571428D02*
X120894819Y-75380952D01*
X120894819Y-75380952D02*
X120942438Y-75285714D01*
X120942438Y-75285714D02*
X121037676Y-75190476D01*
X121037676Y-75190476D02*
X121228152Y-75142857D01*
X121228152Y-75142857D02*
X121561485Y-75142857D01*
X121561485Y-75142857D02*
X121751961Y-75190476D01*
X121751961Y-75190476D02*
X121847200Y-75285714D01*
X121847200Y-75285714D02*
X121894819Y-75380952D01*
X121894819Y-75380952D02*
X121894819Y-75571428D01*
X120990057Y-74761904D02*
X120942438Y-74714285D01*
X120942438Y-74714285D02*
X120894819Y-74619047D01*
X120894819Y-74619047D02*
X120894819Y-74380952D01*
X120894819Y-74380952D02*
X120942438Y-74285714D01*
X120942438Y-74285714D02*
X120990057Y-74238095D01*
X120990057Y-74238095D02*
X121085295Y-74190476D01*
X121085295Y-74190476D02*
X121180533Y-74190476D01*
X121180533Y-74190476D02*
X121323390Y-74238095D01*
X121323390Y-74238095D02*
X121894819Y-74809523D01*
X121894819Y-74809523D02*
X121894819Y-74190476D01*
X103738095Y-38556819D02*
X104309523Y-38556819D01*
X104023809Y-39556819D02*
X104023809Y-38556819D01*
X104642857Y-39556819D02*
X104642857Y-38556819D01*
X104642857Y-38556819D02*
X105023809Y-38556819D01*
X105023809Y-38556819D02*
X105119047Y-38604438D01*
X105119047Y-38604438D02*
X105166666Y-38652057D01*
X105166666Y-38652057D02*
X105214285Y-38747295D01*
X105214285Y-38747295D02*
X105214285Y-38890152D01*
X105214285Y-38890152D02*
X105166666Y-38985390D01*
X105166666Y-38985390D02*
X105119047Y-39033009D01*
X105119047Y-39033009D02*
X105023809Y-39080628D01*
X105023809Y-39080628D02*
X104642857Y-39080628D01*
X105547619Y-38556819D02*
X106166666Y-38556819D01*
X106166666Y-38556819D02*
X105833333Y-38937771D01*
X105833333Y-38937771D02*
X105976190Y-38937771D01*
X105976190Y-38937771D02*
X106071428Y-38985390D01*
X106071428Y-38985390D02*
X106119047Y-39033009D01*
X106119047Y-39033009D02*
X106166666Y-39128247D01*
X106166666Y-39128247D02*
X106166666Y-39366342D01*
X106166666Y-39366342D02*
X106119047Y-39461580D01*
X106119047Y-39461580D02*
X106071428Y-39509200D01*
X106071428Y-39509200D02*
X105976190Y-39556819D01*
X105976190Y-39556819D02*
X105690476Y-39556819D01*
X105690476Y-39556819D02*
X105595238Y-39509200D01*
X105595238Y-39509200D02*
X105547619Y-39461580D01*
X126238095Y-36556819D02*
X126809523Y-36556819D01*
X126523809Y-37556819D02*
X126523809Y-36556819D01*
X127142857Y-37556819D02*
X127142857Y-36556819D01*
X127142857Y-36556819D02*
X127523809Y-36556819D01*
X127523809Y-36556819D02*
X127619047Y-36604438D01*
X127619047Y-36604438D02*
X127666666Y-36652057D01*
X127666666Y-36652057D02*
X127714285Y-36747295D01*
X127714285Y-36747295D02*
X127714285Y-36890152D01*
X127714285Y-36890152D02*
X127666666Y-36985390D01*
X127666666Y-36985390D02*
X127619047Y-37033009D01*
X127619047Y-37033009D02*
X127523809Y-37080628D01*
X127523809Y-37080628D02*
X127142857Y-37080628D01*
X128095238Y-36652057D02*
X128142857Y-36604438D01*
X128142857Y-36604438D02*
X128238095Y-36556819D01*
X128238095Y-36556819D02*
X128476190Y-36556819D01*
X128476190Y-36556819D02*
X128571428Y-36604438D01*
X128571428Y-36604438D02*
X128619047Y-36652057D01*
X128619047Y-36652057D02*
X128666666Y-36747295D01*
X128666666Y-36747295D02*
X128666666Y-36842533D01*
X128666666Y-36842533D02*
X128619047Y-36985390D01*
X128619047Y-36985390D02*
X128047619Y-37556819D01*
X128047619Y-37556819D02*
X128666666Y-37556819D01*
X103738095Y-28556819D02*
X104309523Y-28556819D01*
X104023809Y-29556819D02*
X104023809Y-28556819D01*
X104642857Y-29556819D02*
X104642857Y-28556819D01*
X104642857Y-28556819D02*
X105023809Y-28556819D01*
X105023809Y-28556819D02*
X105119047Y-28604438D01*
X105119047Y-28604438D02*
X105166666Y-28652057D01*
X105166666Y-28652057D02*
X105214285Y-28747295D01*
X105214285Y-28747295D02*
X105214285Y-28890152D01*
X105214285Y-28890152D02*
X105166666Y-28985390D01*
X105166666Y-28985390D02*
X105119047Y-29033009D01*
X105119047Y-29033009D02*
X105023809Y-29080628D01*
X105023809Y-29080628D02*
X104642857Y-29080628D01*
X106166666Y-29556819D02*
X105595238Y-29556819D01*
X105880952Y-29556819D02*
X105880952Y-28556819D01*
X105880952Y-28556819D02*
X105785714Y-28699676D01*
X105785714Y-28699676D02*
X105690476Y-28794914D01*
X105690476Y-28794914D02*
X105595238Y-28842533D01*
X129833333Y-83084819D02*
X129500000Y-82608628D01*
X129261905Y-83084819D02*
X129261905Y-82084819D01*
X129261905Y-82084819D02*
X129642857Y-82084819D01*
X129642857Y-82084819D02*
X129738095Y-82132438D01*
X129738095Y-82132438D02*
X129785714Y-82180057D01*
X129785714Y-82180057D02*
X129833333Y-82275295D01*
X129833333Y-82275295D02*
X129833333Y-82418152D01*
X129833333Y-82418152D02*
X129785714Y-82513390D01*
X129785714Y-82513390D02*
X129738095Y-82561009D01*
X129738095Y-82561009D02*
X129642857Y-82608628D01*
X129642857Y-82608628D02*
X129261905Y-82608628D01*
X130690476Y-82084819D02*
X130500000Y-82084819D01*
X130500000Y-82084819D02*
X130404762Y-82132438D01*
X130404762Y-82132438D02*
X130357143Y-82180057D01*
X130357143Y-82180057D02*
X130261905Y-82322914D01*
X130261905Y-82322914D02*
X130214286Y-82513390D01*
X130214286Y-82513390D02*
X130214286Y-82894342D01*
X130214286Y-82894342D02*
X130261905Y-82989580D01*
X130261905Y-82989580D02*
X130309524Y-83037200D01*
X130309524Y-83037200D02*
X130404762Y-83084819D01*
X130404762Y-83084819D02*
X130595238Y-83084819D01*
X130595238Y-83084819D02*
X130690476Y-83037200D01*
X130690476Y-83037200D02*
X130738095Y-82989580D01*
X130738095Y-82989580D02*
X130785714Y-82894342D01*
X130785714Y-82894342D02*
X130785714Y-82656247D01*
X130785714Y-82656247D02*
X130738095Y-82561009D01*
X130738095Y-82561009D02*
X130690476Y-82513390D01*
X130690476Y-82513390D02*
X130595238Y-82465771D01*
X130595238Y-82465771D02*
X130404762Y-82465771D01*
X130404762Y-82465771D02*
X130309524Y-82513390D01*
X130309524Y-82513390D02*
X130261905Y-82561009D01*
X130261905Y-82561009D02*
X130214286Y-82656247D01*
X109913333Y-82824819D02*
X109580000Y-82348628D01*
X109341905Y-82824819D02*
X109341905Y-81824819D01*
X109341905Y-81824819D02*
X109722857Y-81824819D01*
X109722857Y-81824819D02*
X109818095Y-81872438D01*
X109818095Y-81872438D02*
X109865714Y-81920057D01*
X109865714Y-81920057D02*
X109913333Y-82015295D01*
X109913333Y-82015295D02*
X109913333Y-82158152D01*
X109913333Y-82158152D02*
X109865714Y-82253390D01*
X109865714Y-82253390D02*
X109818095Y-82301009D01*
X109818095Y-82301009D02*
X109722857Y-82348628D01*
X109722857Y-82348628D02*
X109341905Y-82348628D01*
X110818095Y-81824819D02*
X110341905Y-81824819D01*
X110341905Y-81824819D02*
X110294286Y-82301009D01*
X110294286Y-82301009D02*
X110341905Y-82253390D01*
X110341905Y-82253390D02*
X110437143Y-82205771D01*
X110437143Y-82205771D02*
X110675238Y-82205771D01*
X110675238Y-82205771D02*
X110770476Y-82253390D01*
X110770476Y-82253390D02*
X110818095Y-82301009D01*
X110818095Y-82301009D02*
X110865714Y-82396247D01*
X110865714Y-82396247D02*
X110865714Y-82634342D01*
X110865714Y-82634342D02*
X110818095Y-82729580D01*
X110818095Y-82729580D02*
X110770476Y-82777200D01*
X110770476Y-82777200D02*
X110675238Y-82824819D01*
X110675238Y-82824819D02*
X110437143Y-82824819D01*
X110437143Y-82824819D02*
X110341905Y-82777200D01*
X110341905Y-82777200D02*
X110294286Y-82729580D01*
X109753333Y-68084819D02*
X109420000Y-67608628D01*
X109181905Y-68084819D02*
X109181905Y-67084819D01*
X109181905Y-67084819D02*
X109562857Y-67084819D01*
X109562857Y-67084819D02*
X109658095Y-67132438D01*
X109658095Y-67132438D02*
X109705714Y-67180057D01*
X109705714Y-67180057D02*
X109753333Y-67275295D01*
X109753333Y-67275295D02*
X109753333Y-67418152D01*
X109753333Y-67418152D02*
X109705714Y-67513390D01*
X109705714Y-67513390D02*
X109658095Y-67561009D01*
X109658095Y-67561009D02*
X109562857Y-67608628D01*
X109562857Y-67608628D02*
X109181905Y-67608628D01*
X110610476Y-67418152D02*
X110610476Y-68084819D01*
X110372381Y-67037200D02*
X110134286Y-67751485D01*
X110134286Y-67751485D02*
X110753333Y-67751485D01*
X109913333Y-62824819D02*
X109580000Y-62348628D01*
X109341905Y-62824819D02*
X109341905Y-61824819D01*
X109341905Y-61824819D02*
X109722857Y-61824819D01*
X109722857Y-61824819D02*
X109818095Y-61872438D01*
X109818095Y-61872438D02*
X109865714Y-61920057D01*
X109865714Y-61920057D02*
X109913333Y-62015295D01*
X109913333Y-62015295D02*
X109913333Y-62158152D01*
X109913333Y-62158152D02*
X109865714Y-62253390D01*
X109865714Y-62253390D02*
X109818095Y-62301009D01*
X109818095Y-62301009D02*
X109722857Y-62348628D01*
X109722857Y-62348628D02*
X109341905Y-62348628D01*
X110294286Y-61920057D02*
X110341905Y-61872438D01*
X110341905Y-61872438D02*
X110437143Y-61824819D01*
X110437143Y-61824819D02*
X110675238Y-61824819D01*
X110675238Y-61824819D02*
X110770476Y-61872438D01*
X110770476Y-61872438D02*
X110818095Y-61920057D01*
X110818095Y-61920057D02*
X110865714Y-62015295D01*
X110865714Y-62015295D02*
X110865714Y-62110533D01*
X110865714Y-62110533D02*
X110818095Y-62253390D01*
X110818095Y-62253390D02*
X110246667Y-62824819D01*
X110246667Y-62824819D02*
X110865714Y-62824819D01*
X109913333Y-48084819D02*
X109580000Y-47608628D01*
X109341905Y-48084819D02*
X109341905Y-47084819D01*
X109341905Y-47084819D02*
X109722857Y-47084819D01*
X109722857Y-47084819D02*
X109818095Y-47132438D01*
X109818095Y-47132438D02*
X109865714Y-47180057D01*
X109865714Y-47180057D02*
X109913333Y-47275295D01*
X109913333Y-47275295D02*
X109913333Y-47418152D01*
X109913333Y-47418152D02*
X109865714Y-47513390D01*
X109865714Y-47513390D02*
X109818095Y-47561009D01*
X109818095Y-47561009D02*
X109722857Y-47608628D01*
X109722857Y-47608628D02*
X109341905Y-47608628D01*
X110865714Y-48084819D02*
X110294286Y-48084819D01*
X110580000Y-48084819D02*
X110580000Y-47084819D01*
X110580000Y-47084819D02*
X110484762Y-47227676D01*
X110484762Y-47227676D02*
X110389524Y-47322914D01*
X110389524Y-47322914D02*
X110294286Y-47370533D01*
X144833333Y-71007080D02*
X144785714Y-71054700D01*
X144785714Y-71054700D02*
X144642857Y-71102319D01*
X144642857Y-71102319D02*
X144547619Y-71102319D01*
X144547619Y-71102319D02*
X144404762Y-71054700D01*
X144404762Y-71054700D02*
X144309524Y-70959461D01*
X144309524Y-70959461D02*
X144261905Y-70864223D01*
X144261905Y-70864223D02*
X144214286Y-70673747D01*
X144214286Y-70673747D02*
X144214286Y-70530890D01*
X144214286Y-70530890D02*
X144261905Y-70340414D01*
X144261905Y-70340414D02*
X144309524Y-70245176D01*
X144309524Y-70245176D02*
X144404762Y-70149938D01*
X144404762Y-70149938D02*
X144547619Y-70102319D01*
X144547619Y-70102319D02*
X144642857Y-70102319D01*
X144642857Y-70102319D02*
X144785714Y-70149938D01*
X144785714Y-70149938D02*
X144833333Y-70197557D01*
X145690476Y-70435652D02*
X145690476Y-71102319D01*
X145452381Y-70054700D02*
X145214286Y-70768985D01*
X145214286Y-70768985D02*
X145833333Y-70768985D01*
X144833333Y-52007080D02*
X144785714Y-52054700D01*
X144785714Y-52054700D02*
X144642857Y-52102319D01*
X144642857Y-52102319D02*
X144547619Y-52102319D01*
X144547619Y-52102319D02*
X144404762Y-52054700D01*
X144404762Y-52054700D02*
X144309524Y-51959461D01*
X144309524Y-51959461D02*
X144261905Y-51864223D01*
X144261905Y-51864223D02*
X144214286Y-51673747D01*
X144214286Y-51673747D02*
X144214286Y-51530890D01*
X144214286Y-51530890D02*
X144261905Y-51340414D01*
X144261905Y-51340414D02*
X144309524Y-51245176D01*
X144309524Y-51245176D02*
X144404762Y-51149938D01*
X144404762Y-51149938D02*
X144547619Y-51102319D01*
X144547619Y-51102319D02*
X144642857Y-51102319D01*
X144642857Y-51102319D02*
X144785714Y-51149938D01*
X144785714Y-51149938D02*
X144833333Y-51197557D01*
X145214286Y-51197557D02*
X145261905Y-51149938D01*
X145261905Y-51149938D02*
X145357143Y-51102319D01*
X145357143Y-51102319D02*
X145595238Y-51102319D01*
X145595238Y-51102319D02*
X145690476Y-51149938D01*
X145690476Y-51149938D02*
X145738095Y-51197557D01*
X145738095Y-51197557D02*
X145785714Y-51292795D01*
X145785714Y-51292795D02*
X145785714Y-51388033D01*
X145785714Y-51388033D02*
X145738095Y-51530890D01*
X145738095Y-51530890D02*
X145166667Y-52102319D01*
X145166667Y-52102319D02*
X145785714Y-52102319D01*
X117333333Y-35109580D02*
X117285714Y-35157200D01*
X117285714Y-35157200D02*
X117142857Y-35204819D01*
X117142857Y-35204819D02*
X117047619Y-35204819D01*
X117047619Y-35204819D02*
X116904762Y-35157200D01*
X116904762Y-35157200D02*
X116809524Y-35061961D01*
X116809524Y-35061961D02*
X116761905Y-34966723D01*
X116761905Y-34966723D02*
X116714286Y-34776247D01*
X116714286Y-34776247D02*
X116714286Y-34633390D01*
X116714286Y-34633390D02*
X116761905Y-34442914D01*
X116761905Y-34442914D02*
X116809524Y-34347676D01*
X116809524Y-34347676D02*
X116904762Y-34252438D01*
X116904762Y-34252438D02*
X117047619Y-34204819D01*
X117047619Y-34204819D02*
X117142857Y-34204819D01*
X117142857Y-34204819D02*
X117285714Y-34252438D01*
X117285714Y-34252438D02*
X117333333Y-34300057D01*
X118285714Y-35204819D02*
X117714286Y-35204819D01*
X118000000Y-35204819D02*
X118000000Y-34204819D01*
X118000000Y-34204819D02*
X117904762Y-34347676D01*
X117904762Y-34347676D02*
X117809524Y-34442914D01*
X117809524Y-34442914D02*
X117714286Y-34490533D01*
%TO.C,J1*%
D11*
X180600000Y-71500000D02*
X161600000Y-71500000D01*
X161600000Y-57500000D01*
X180600000Y-57500000D01*
X180600000Y-71500000D01*
D12*
X174770000Y-71000000D02*
G75*
G02*
X174430000Y-71000000I-170000J0D01*
G01*
X174430000Y-71000000D02*
G75*
G02*
X174770000Y-71000000I170000J0D01*
G01*
D13*
X162400000Y-58950000D02*
X162500000Y-58950000D01*
D14*
%TO.C,TP4*%
X108750000Y-90500000D02*
G75*
G02*
X104250000Y-90500000I-2250000J0D01*
G01*
X104250000Y-90500000D02*
G75*
G02*
X108750000Y-90500000I2250000J0D01*
G01*
%TO.C,C3*%
X112590302Y-88185000D02*
X113390302Y-88185000D01*
X112990302Y-87785000D02*
X112990302Y-88585000D01*
X117000000Y-86420000D02*
X117000000Y-94580000D01*
X117040000Y-86420000D02*
X117040000Y-94580000D01*
X117080000Y-86421000D02*
X117080000Y-94579000D01*
X117120000Y-86422000D02*
X117120000Y-94578000D01*
X117160000Y-86423000D02*
X117160000Y-94577000D01*
X117200000Y-86425000D02*
X117200000Y-94575000D01*
X117240000Y-86427000D02*
X117240000Y-94573000D01*
X117280000Y-86430000D02*
X117280000Y-94570000D01*
X117320000Y-86432000D02*
X117320000Y-94568000D01*
X117360000Y-86436000D02*
X117360000Y-94564000D01*
X117400000Y-86439000D02*
X117400000Y-94561000D01*
X117440000Y-86444000D02*
X117440000Y-94556000D01*
X117480000Y-86448000D02*
X117480000Y-94552000D01*
X117520000Y-86453000D02*
X117520000Y-94547000D01*
X117560000Y-86458000D02*
X117560000Y-94542000D01*
X117600000Y-86464000D02*
X117600000Y-94536000D01*
X117640000Y-86470000D02*
X117640000Y-94530000D01*
X117680000Y-86477000D02*
X117680000Y-94523000D01*
X117720000Y-86483000D02*
X117720000Y-94517000D01*
X117760000Y-86491000D02*
X117760000Y-94509000D01*
X117800000Y-86498000D02*
X117800000Y-94502000D01*
X117840000Y-86507000D02*
X117840000Y-94493000D01*
X117880000Y-86515000D02*
X117880000Y-94485000D01*
X117920000Y-86524000D02*
X117920000Y-94476000D01*
X117960000Y-86533000D02*
X117960000Y-94467000D01*
X118000000Y-86543000D02*
X118000000Y-94457000D01*
X118040000Y-86553000D02*
X118040000Y-94447000D01*
X118080000Y-86564000D02*
X118080000Y-94436000D01*
X118120000Y-86575000D02*
X118120000Y-94425000D01*
X118160000Y-86587000D02*
X118160000Y-94413000D01*
X118200000Y-86599000D02*
X118200000Y-94401000D01*
X118240000Y-86611000D02*
X118240000Y-94389000D01*
X118280000Y-86624000D02*
X118280000Y-94376000D01*
X118320000Y-86637000D02*
X118320000Y-94363000D01*
X118360000Y-86651000D02*
X118360000Y-94349000D01*
X118400000Y-86665000D02*
X118400000Y-94335000D01*
X118440000Y-86680000D02*
X118440000Y-94320000D01*
X118480000Y-86695000D02*
X118480000Y-89460000D01*
X118480000Y-91540000D02*
X118480000Y-94305000D01*
X118520000Y-86711000D02*
X118520000Y-89460000D01*
X118520000Y-91540000D02*
X118520000Y-94289000D01*
X118560000Y-86727000D02*
X118560000Y-89460000D01*
X118560000Y-91540000D02*
X118560000Y-94273000D01*
X118600000Y-86743000D02*
X118600000Y-89460000D01*
X118600000Y-91540000D02*
X118600000Y-94257000D01*
X118640000Y-86760000D02*
X118640000Y-89460000D01*
X118640000Y-91540000D02*
X118640000Y-94240000D01*
X118680000Y-86778000D02*
X118680000Y-89460000D01*
X118680000Y-91540000D02*
X118680000Y-94222000D01*
X118720000Y-86796000D02*
X118720000Y-89460000D01*
X118720000Y-91540000D02*
X118720000Y-94204000D01*
X118760000Y-86815000D02*
X118760000Y-89460000D01*
X118760000Y-91540000D02*
X118760000Y-94185000D01*
X118800000Y-86834000D02*
X118800000Y-89460000D01*
X118800000Y-91540000D02*
X118800000Y-94166000D01*
X118840000Y-86854000D02*
X118840000Y-89460000D01*
X118840000Y-91540000D02*
X118840000Y-94146000D01*
X118880000Y-86874000D02*
X118880000Y-89460000D01*
X118880000Y-91540000D02*
X118880000Y-94126000D01*
X118920000Y-86895000D02*
X118920000Y-89460000D01*
X118920000Y-91540000D02*
X118920000Y-94105000D01*
X118960000Y-86916000D02*
X118960000Y-89460000D01*
X118960000Y-91540000D02*
X118960000Y-94084000D01*
X119000000Y-86938000D02*
X119000000Y-89460000D01*
X119000000Y-91540000D02*
X119000000Y-94062000D01*
X119040000Y-86961000D02*
X119040000Y-89460000D01*
X119040000Y-91540000D02*
X119040000Y-94039000D01*
X119080000Y-86984000D02*
X119080000Y-89460000D01*
X119080000Y-91540000D02*
X119080000Y-94016000D01*
X119120000Y-87007000D02*
X119120000Y-89460000D01*
X119120000Y-91540000D02*
X119120000Y-93993000D01*
X119160000Y-87032000D02*
X119160000Y-89460000D01*
X119160000Y-91540000D02*
X119160000Y-93968000D01*
X119200000Y-87057000D02*
X119200000Y-89460000D01*
X119200000Y-91540000D02*
X119200000Y-93943000D01*
X119240000Y-87082000D02*
X119240000Y-89460000D01*
X119240000Y-91540000D02*
X119240000Y-93918000D01*
X119280000Y-87108000D02*
X119280000Y-89460000D01*
X119280000Y-91540000D02*
X119280000Y-93892000D01*
X119320000Y-87135000D02*
X119320000Y-89460000D01*
X119320000Y-91540000D02*
X119320000Y-93865000D01*
X119360000Y-87163000D02*
X119360000Y-89460000D01*
X119360000Y-91540000D02*
X119360000Y-93837000D01*
X119400000Y-87191000D02*
X119400000Y-89460000D01*
X119400000Y-91540000D02*
X119400000Y-93809000D01*
X119440000Y-87220000D02*
X119440000Y-89460000D01*
X119440000Y-91540000D02*
X119440000Y-93780000D01*
X119480000Y-87250000D02*
X119480000Y-89460000D01*
X119480000Y-91540000D02*
X119480000Y-93750000D01*
X119520000Y-87281000D02*
X119520000Y-89460000D01*
X119520000Y-91540000D02*
X119520000Y-93719000D01*
X119560000Y-87312000D02*
X119560000Y-89460000D01*
X119560000Y-91540000D02*
X119560000Y-93688000D01*
X119600000Y-87344000D02*
X119600000Y-89460000D01*
X119600000Y-91540000D02*
X119600000Y-93656000D01*
X119640000Y-87377000D02*
X119640000Y-89460000D01*
X119640000Y-91540000D02*
X119640000Y-93623000D01*
X119680000Y-87411000D02*
X119680000Y-89460000D01*
X119680000Y-91540000D02*
X119680000Y-93589000D01*
X119720000Y-87445000D02*
X119720000Y-89460000D01*
X119720000Y-91540000D02*
X119720000Y-93555000D01*
X119760000Y-87481000D02*
X119760000Y-89460000D01*
X119760000Y-91540000D02*
X119760000Y-93519000D01*
X119800000Y-87518000D02*
X119800000Y-89460000D01*
X119800000Y-91540000D02*
X119800000Y-93482000D01*
X119840000Y-87555000D02*
X119840000Y-89460000D01*
X119840000Y-91540000D02*
X119840000Y-93445000D01*
X119880000Y-87594000D02*
X119880000Y-89460000D01*
X119880000Y-91540000D02*
X119880000Y-93406000D01*
X119920000Y-87633000D02*
X119920000Y-89460000D01*
X119920000Y-91540000D02*
X119920000Y-93367000D01*
X119960000Y-87674000D02*
X119960000Y-89460000D01*
X119960000Y-91540000D02*
X119960000Y-93326000D01*
X120000000Y-87716000D02*
X120000000Y-89460000D01*
X120000000Y-91540000D02*
X120000000Y-93284000D01*
X120040000Y-87759000D02*
X120040000Y-89460000D01*
X120040000Y-91540000D02*
X120040000Y-93241000D01*
X120080000Y-87804000D02*
X120080000Y-89460000D01*
X120080000Y-91540000D02*
X120080000Y-93196000D01*
X120120000Y-87849000D02*
X120120000Y-89460000D01*
X120120000Y-91540000D02*
X120120000Y-93151000D01*
X120160000Y-87896000D02*
X120160000Y-89460000D01*
X120160000Y-91540000D02*
X120160000Y-93104000D01*
X120200000Y-87945000D02*
X120200000Y-89460000D01*
X120200000Y-91540000D02*
X120200000Y-93055000D01*
X120240000Y-87995000D02*
X120240000Y-89460000D01*
X120240000Y-91540000D02*
X120240000Y-93005000D01*
X120280000Y-88047000D02*
X120280000Y-89460000D01*
X120280000Y-91540000D02*
X120280000Y-92953000D01*
X120320000Y-88100000D02*
X120320000Y-89460000D01*
X120320000Y-91540000D02*
X120320000Y-92900000D01*
X120360000Y-88156000D02*
X120360000Y-89460000D01*
X120360000Y-91540000D02*
X120360000Y-92844000D01*
X120400000Y-88213000D02*
X120400000Y-89460000D01*
X120400000Y-91540000D02*
X120400000Y-92787000D01*
X120440000Y-88273000D02*
X120440000Y-89460000D01*
X120440000Y-91540000D02*
X120440000Y-92727000D01*
X120480000Y-88335000D02*
X120480000Y-89460000D01*
X120480000Y-91540000D02*
X120480000Y-92665000D01*
X120520000Y-88399000D02*
X120520000Y-89460000D01*
X120520000Y-91540000D02*
X120520000Y-92601000D01*
X120560000Y-88466000D02*
X120560000Y-92534000D01*
X120600000Y-88536000D02*
X120600000Y-92464000D01*
X120640000Y-88610000D02*
X120640000Y-92390000D01*
X120680000Y-88687000D02*
X120680000Y-92313000D01*
X120720000Y-88769000D02*
X120720000Y-92231000D01*
X120760000Y-88856000D02*
X120760000Y-92144000D01*
X120800000Y-88948000D02*
X120800000Y-92052000D01*
X120840000Y-89047000D02*
X120840000Y-91953000D01*
X120880000Y-89154000D02*
X120880000Y-91846000D01*
X120920000Y-89272000D02*
X120920000Y-91728000D01*
X120960000Y-89403000D02*
X120960000Y-91597000D01*
X121000000Y-89553000D02*
X121000000Y-91447000D01*
X121040000Y-89732000D02*
X121040000Y-91268000D01*
X121080000Y-89967000D02*
X121080000Y-91033000D01*
X121120000Y-90500000D02*
G75*
G02*
X112880000Y-90500000I-4120000J0D01*
G01*
X112880000Y-90500000D02*
G75*
G02*
X121120000Y-90500000I4120000J0D01*
G01*
%TO.C,R7*%
X125960000Y-65000000D02*
X126730000Y-65000000D01*
X134040000Y-65000000D02*
X133270000Y-65000000D01*
X126730000Y-63630000D02*
X133270000Y-63630000D01*
X133270000Y-66370000D01*
X126730000Y-66370000D01*
X126730000Y-63630000D01*
%TO.C,Q1*%
X126850000Y-56800000D02*
X126850000Y-53200000D01*
X126838478Y-56838478D02*
G75*
G02*
X122399999Y-55000000I-1838478J1838478D01*
G01*
X122400000Y-55000000D02*
G75*
G02*
X126838478Y-53161522I2600000J0D01*
G01*
%TO.C,Q2*%
X126850000Y-76800000D02*
X126850000Y-73200000D01*
X126838478Y-76838478D02*
G75*
G02*
X122399999Y-75000000I-1838478J1838478D01*
G01*
X122400000Y-75000000D02*
G75*
G02*
X126838478Y-73161522I2600000J0D01*
G01*
%TO.C,TP3*%
X107250000Y-42000000D02*
G75*
G02*
X102750000Y-42000000I-2250000J0D01*
G01*
X102750000Y-42000000D02*
G75*
G02*
X107250000Y-42000000I2250000J0D01*
G01*
%TO.C,TP2*%
X129750000Y-40000000D02*
G75*
G02*
X125250000Y-40000000I-2250000J0D01*
G01*
X125250000Y-40000000D02*
G75*
G02*
X129750000Y-40000000I2250000J0D01*
G01*
%TO.C,TP1*%
X107250000Y-32000000D02*
G75*
G02*
X102750000Y-32000000I-2250000J0D01*
G01*
X102750000Y-32000000D02*
G75*
G02*
X107250000Y-32000000I2250000J0D01*
G01*
%TO.C,R6*%
X125960000Y-85000000D02*
X126730000Y-85000000D01*
X134040000Y-85000000D02*
X133270000Y-85000000D01*
X126730000Y-83630000D02*
X133270000Y-83630000D01*
X133270000Y-86370000D01*
X126730000Y-86370000D01*
X126730000Y-83630000D01*
%TO.C,R5*%
X114120000Y-80000000D02*
X113350000Y-80000000D01*
X106040000Y-80000000D02*
X106810000Y-80000000D01*
X113350000Y-81370000D02*
X106810000Y-81370000D01*
X106810000Y-78630000D01*
X113350000Y-78630000D01*
X113350000Y-81370000D01*
%TO.C,R4*%
X105880000Y-70000000D02*
X106650000Y-70000000D01*
X113960000Y-70000000D02*
X113190000Y-70000000D01*
X106650000Y-68630000D02*
X113190000Y-68630000D01*
X113190000Y-71370000D01*
X106650000Y-71370000D01*
X106650000Y-68630000D01*
%TO.C,R2*%
X114120000Y-60000000D02*
X113350000Y-60000000D01*
X106040000Y-60000000D02*
X106810000Y-60000000D01*
X113350000Y-61370000D02*
X106810000Y-61370000D01*
X106810000Y-58630000D01*
X113350000Y-58630000D01*
X113350000Y-61370000D01*
%TO.C,R1*%
X106040000Y-50000000D02*
X106810000Y-50000000D01*
X114120000Y-50000000D02*
X113350000Y-50000000D01*
X106810000Y-48630000D02*
X113350000Y-48630000D01*
X113350000Y-51370000D01*
X106810000Y-51370000D01*
X106810000Y-48630000D01*
%TO.C,C4*%
X133780000Y-72417500D02*
X135580000Y-72417500D01*
X133940000Y-75017500D02*
X135880000Y-75017500D01*
X134680000Y-71517500D02*
X134680000Y-73317500D01*
X135880000Y-71647500D02*
X135880000Y-78387500D01*
X135880000Y-71647500D02*
X137680000Y-71647500D01*
X135880000Y-78387500D02*
X137680000Y-78387500D01*
X137680000Y-71647500D02*
X138580000Y-72547500D01*
X137680000Y-78387500D02*
X138580000Y-77487500D01*
X138580000Y-72547500D02*
X139480000Y-71647500D01*
X138580000Y-77487500D02*
X139480000Y-78387500D01*
X139480000Y-71647500D02*
X154120000Y-71647500D01*
X139480000Y-78387500D02*
X154120000Y-78387500D01*
X154120000Y-71647500D02*
X154120000Y-78387500D01*
X156060000Y-75017500D02*
X154120000Y-75017500D01*
%TO.C,C2*%
X133780000Y-53417500D02*
X135580000Y-53417500D01*
X133940000Y-56017500D02*
X135880000Y-56017500D01*
X134680000Y-52517500D02*
X134680000Y-54317500D01*
X135880000Y-52647500D02*
X135880000Y-59387500D01*
X135880000Y-52647500D02*
X137680000Y-52647500D01*
X135880000Y-59387500D02*
X137680000Y-59387500D01*
X137680000Y-52647500D02*
X138580000Y-53547500D01*
X137680000Y-59387500D02*
X138580000Y-58487500D01*
X138580000Y-53547500D02*
X139480000Y-52647500D01*
X138580000Y-58487500D02*
X139480000Y-59387500D01*
X139480000Y-52647500D02*
X154120000Y-52647500D01*
X139480000Y-59387500D02*
X154120000Y-59387500D01*
X154120000Y-52647500D02*
X154120000Y-59387500D01*
X156060000Y-56017500D02*
X154120000Y-56017500D01*
%TO.C,C1*%
X113090302Y-37685000D02*
X113890302Y-37685000D01*
X113490302Y-37285000D02*
X113490302Y-38085000D01*
X117500000Y-35920000D02*
X117500000Y-44080000D01*
X117540000Y-35920000D02*
X117540000Y-44080000D01*
X117580000Y-35921000D02*
X117580000Y-44079000D01*
X117620000Y-35922000D02*
X117620000Y-44078000D01*
X117660000Y-35923000D02*
X117660000Y-44077000D01*
X117700000Y-35925000D02*
X117700000Y-44075000D01*
X117740000Y-35927000D02*
X117740000Y-44073000D01*
X117780000Y-35930000D02*
X117780000Y-44070000D01*
X117820000Y-35932000D02*
X117820000Y-44068000D01*
X117860000Y-35936000D02*
X117860000Y-44064000D01*
X117900000Y-35939000D02*
X117900000Y-44061000D01*
X117940000Y-35944000D02*
X117940000Y-44056000D01*
X117980000Y-35948000D02*
X117980000Y-44052000D01*
X118020000Y-35953000D02*
X118020000Y-44047000D01*
X118060000Y-35958000D02*
X118060000Y-44042000D01*
X118100000Y-35964000D02*
X118100000Y-44036000D01*
X118140000Y-35970000D02*
X118140000Y-44030000D01*
X118180000Y-35977000D02*
X118180000Y-44023000D01*
X118220000Y-35983000D02*
X118220000Y-44017000D01*
X118260000Y-35991000D02*
X118260000Y-44009000D01*
X118300000Y-35998000D02*
X118300000Y-44002000D01*
X118340000Y-36007000D02*
X118340000Y-43993000D01*
X118380000Y-36015000D02*
X118380000Y-43985000D01*
X118420000Y-36024000D02*
X118420000Y-43976000D01*
X118460000Y-36033000D02*
X118460000Y-43967000D01*
X118500000Y-36043000D02*
X118500000Y-43957000D01*
X118540000Y-36053000D02*
X118540000Y-43947000D01*
X118580000Y-36064000D02*
X118580000Y-43936000D01*
X118620000Y-36075000D02*
X118620000Y-43925000D01*
X118660000Y-36087000D02*
X118660000Y-43913000D01*
X118700000Y-36099000D02*
X118700000Y-43901000D01*
X118740000Y-36111000D02*
X118740000Y-43889000D01*
X118780000Y-36124000D02*
X118780000Y-43876000D01*
X118820000Y-36137000D02*
X118820000Y-43863000D01*
X118860000Y-36151000D02*
X118860000Y-43849000D01*
X118900000Y-36165000D02*
X118900000Y-43835000D01*
X118940000Y-36180000D02*
X118940000Y-43820000D01*
X118980000Y-36195000D02*
X118980000Y-38960000D01*
X118980000Y-41040000D02*
X118980000Y-43805000D01*
X119020000Y-36211000D02*
X119020000Y-38960000D01*
X119020000Y-41040000D02*
X119020000Y-43789000D01*
X119060000Y-36227000D02*
X119060000Y-38960000D01*
X119060000Y-41040000D02*
X119060000Y-43773000D01*
X119100000Y-36243000D02*
X119100000Y-38960000D01*
X119100000Y-41040000D02*
X119100000Y-43757000D01*
X119140000Y-36260000D02*
X119140000Y-38960000D01*
X119140000Y-41040000D02*
X119140000Y-43740000D01*
X119180000Y-36278000D02*
X119180000Y-38960000D01*
X119180000Y-41040000D02*
X119180000Y-43722000D01*
X119220000Y-36296000D02*
X119220000Y-38960000D01*
X119220000Y-41040000D02*
X119220000Y-43704000D01*
X119260000Y-36315000D02*
X119260000Y-38960000D01*
X119260000Y-41040000D02*
X119260000Y-43685000D01*
X119300000Y-36334000D02*
X119300000Y-38960000D01*
X119300000Y-41040000D02*
X119300000Y-43666000D01*
X119340000Y-36354000D02*
X119340000Y-38960000D01*
X119340000Y-41040000D02*
X119340000Y-43646000D01*
X119380000Y-36374000D02*
X119380000Y-38960000D01*
X119380000Y-41040000D02*
X119380000Y-43626000D01*
X119420000Y-36395000D02*
X119420000Y-38960000D01*
X119420000Y-41040000D02*
X119420000Y-43605000D01*
X119460000Y-36416000D02*
X119460000Y-38960000D01*
X119460000Y-41040000D02*
X119460000Y-43584000D01*
X119500000Y-36438000D02*
X119500000Y-38960000D01*
X119500000Y-41040000D02*
X119500000Y-43562000D01*
X119540000Y-36461000D02*
X119540000Y-38960000D01*
X119540000Y-41040000D02*
X119540000Y-43539000D01*
X119580000Y-36484000D02*
X119580000Y-38960000D01*
X119580000Y-41040000D02*
X119580000Y-43516000D01*
X119620000Y-36507000D02*
X119620000Y-38960000D01*
X119620000Y-41040000D02*
X119620000Y-43493000D01*
X119660000Y-36532000D02*
X119660000Y-38960000D01*
X119660000Y-41040000D02*
X119660000Y-43468000D01*
X119700000Y-36557000D02*
X119700000Y-38960000D01*
X119700000Y-41040000D02*
X119700000Y-43443000D01*
X119740000Y-36582000D02*
X119740000Y-38960000D01*
X119740000Y-41040000D02*
X119740000Y-43418000D01*
X119780000Y-36608000D02*
X119780000Y-38960000D01*
X119780000Y-41040000D02*
X119780000Y-43392000D01*
X119820000Y-36635000D02*
X119820000Y-38960000D01*
X119820000Y-41040000D02*
X119820000Y-43365000D01*
X119860000Y-36663000D02*
X119860000Y-38960000D01*
X119860000Y-41040000D02*
X119860000Y-43337000D01*
X119900000Y-36691000D02*
X119900000Y-38960000D01*
X119900000Y-41040000D02*
X119900000Y-43309000D01*
X119940000Y-36720000D02*
X119940000Y-38960000D01*
X119940000Y-41040000D02*
X119940000Y-43280000D01*
X119980000Y-36750000D02*
X119980000Y-38960000D01*
X119980000Y-41040000D02*
X119980000Y-43250000D01*
X120020000Y-36781000D02*
X120020000Y-38960000D01*
X120020000Y-41040000D02*
X120020000Y-43219000D01*
X120060000Y-36812000D02*
X120060000Y-38960000D01*
X120060000Y-41040000D02*
X120060000Y-43188000D01*
X120100000Y-36844000D02*
X120100000Y-38960000D01*
X120100000Y-41040000D02*
X120100000Y-43156000D01*
X120140000Y-36877000D02*
X120140000Y-38960000D01*
X120140000Y-41040000D02*
X120140000Y-43123000D01*
X120180000Y-36911000D02*
X120180000Y-38960000D01*
X120180000Y-41040000D02*
X120180000Y-43089000D01*
X120220000Y-36945000D02*
X120220000Y-38960000D01*
X120220000Y-41040000D02*
X120220000Y-43055000D01*
X120260000Y-36981000D02*
X120260000Y-38960000D01*
X120260000Y-41040000D02*
X120260000Y-43019000D01*
X120300000Y-37018000D02*
X120300000Y-38960000D01*
X120300000Y-41040000D02*
X120300000Y-42982000D01*
X120340000Y-37055000D02*
X120340000Y-38960000D01*
X120340000Y-41040000D02*
X120340000Y-42945000D01*
X120380000Y-37094000D02*
X120380000Y-38960000D01*
X120380000Y-41040000D02*
X120380000Y-42906000D01*
X120420000Y-37133000D02*
X120420000Y-38960000D01*
X120420000Y-41040000D02*
X120420000Y-42867000D01*
X120460000Y-37174000D02*
X120460000Y-38960000D01*
X120460000Y-41040000D02*
X120460000Y-42826000D01*
X120500000Y-37216000D02*
X120500000Y-38960000D01*
X120500000Y-41040000D02*
X120500000Y-42784000D01*
X120540000Y-37259000D02*
X120540000Y-38960000D01*
X120540000Y-41040000D02*
X120540000Y-42741000D01*
X120580000Y-37304000D02*
X120580000Y-38960000D01*
X120580000Y-41040000D02*
X120580000Y-42696000D01*
X120620000Y-37349000D02*
X120620000Y-38960000D01*
X120620000Y-41040000D02*
X120620000Y-42651000D01*
X120660000Y-37396000D02*
X120660000Y-38960000D01*
X120660000Y-41040000D02*
X120660000Y-42604000D01*
X120700000Y-37445000D02*
X120700000Y-38960000D01*
X120700000Y-41040000D02*
X120700000Y-42555000D01*
X120740000Y-37495000D02*
X120740000Y-38960000D01*
X120740000Y-41040000D02*
X120740000Y-42505000D01*
X120780000Y-37547000D02*
X120780000Y-38960000D01*
X120780000Y-41040000D02*
X120780000Y-42453000D01*
X120820000Y-37600000D02*
X120820000Y-38960000D01*
X120820000Y-41040000D02*
X120820000Y-42400000D01*
X120860000Y-37656000D02*
X120860000Y-38960000D01*
X120860000Y-41040000D02*
X120860000Y-42344000D01*
X120900000Y-37713000D02*
X120900000Y-38960000D01*
X120900000Y-41040000D02*
X120900000Y-42287000D01*
X120940000Y-37773000D02*
X120940000Y-38960000D01*
X120940000Y-41040000D02*
X120940000Y-42227000D01*
X120980000Y-37835000D02*
X120980000Y-38960000D01*
X120980000Y-41040000D02*
X120980000Y-42165000D01*
X121020000Y-37899000D02*
X121020000Y-38960000D01*
X121020000Y-41040000D02*
X121020000Y-42101000D01*
X121060000Y-37966000D02*
X121060000Y-42034000D01*
X121100000Y-38036000D02*
X121100000Y-41964000D01*
X121140000Y-38110000D02*
X121140000Y-41890000D01*
X121180000Y-38187000D02*
X121180000Y-41813000D01*
X121220000Y-38269000D02*
X121220000Y-41731000D01*
X121260000Y-38356000D02*
X121260000Y-41644000D01*
X121300000Y-38448000D02*
X121300000Y-41552000D01*
X121340000Y-38547000D02*
X121340000Y-41453000D01*
X121380000Y-38654000D02*
X121380000Y-41346000D01*
X121420000Y-38772000D02*
X121420000Y-41228000D01*
X121460000Y-38903000D02*
X121460000Y-41097000D01*
X121500000Y-39053000D02*
X121500000Y-40947000D01*
X121540000Y-39232000D02*
X121540000Y-40768000D01*
X121580000Y-39467000D02*
X121580000Y-40533000D01*
X121620000Y-40000000D02*
G75*
G02*
X113380000Y-40000000I-4120000J0D01*
G01*
X113380000Y-40000000D02*
G75*
G02*
X121620000Y-40000000I4120000J0D01*
G01*
%TD*%
M02*
