%TF.GenerationSoftware,KiCad,Pcbnew,9.0.2*%
%TF.CreationDate,2025-06-04T20:07:24-03:00*%
%TF.ProjectId,projetoReduzido,70726f6a-6574-46f5-9265-64757a69646f,rev?*%
%TF.SameCoordinates,Original*%
%TF.FileFunction,Copper,L2,Bot*%
%TF.FilePolarity,Positive*%
%FSLAX46Y46*%
G04 Gerber Fmt 4.6, Leading zero omitted, Abs format (unit mm)*
G04 Created by KiCad (PCBNEW 9.0.2) date 2025-06-04 20:07:24*
%MOMM*%
%LPD*%
G01*
G04 APERTURE LIST*
G04 Aperture macros list*
%AMRoundRect*
0 Rectangle with rounded corners*
0 $1 Rounding radius*
0 $2 $3 $4 $5 $6 $7 $8 $9 X,Y pos of 4 corners*
0 Add a 4 corners polygon primitive as box body*
4,1,4,$2,$3,$4,$5,$6,$7,$8,$9,$2,$3,0*
0 Add four circle primitives for the rounded corners*
1,1,$1+$1,$2,$3*
1,1,$1+$1,$4,$5*
1,1,$1+$1,$6,$7*
1,1,$1+$1,$8,$9*
0 Add four rect primitives between the rounded corners*
20,1,$1+$1,$2,$3,$4,$5,0*
20,1,$1+$1,$4,$5,$6,$7,0*
20,1,$1+$1,$6,$7,$8,$9,0*
20,1,$1+$1,$8,$9,$2,$3,0*%
G04 Aperture macros list end*
%TA.AperFunction,ComponentPad*%
%ADD10R,1.295400X1.295400*%
%TD*%
%TA.AperFunction,ComponentPad*%
%ADD11C,1.500000*%
%TD*%
%TA.AperFunction,ComponentPad*%
%ADD12C,4.000000*%
%TD*%
%TA.AperFunction,ComponentPad*%
%ADD13O,1.508000X3.016000*%
%TD*%
%TA.AperFunction,ComponentPad*%
%ADD14O,3.016000X1.508000*%
%TD*%
%TA.AperFunction,ComponentPad*%
%ADD15C,1.600000*%
%TD*%
%TA.AperFunction,ComponentPad*%
%ADD16RoundRect,0.250000X-0.750000X-0.750000X0.750000X-0.750000X0.750000X0.750000X-0.750000X0.750000X0*%
%TD*%
%TA.AperFunction,ComponentPad*%
%ADD17C,2.000000*%
%TD*%
%TA.AperFunction,ComponentPad*%
%ADD18RoundRect,0.250000X0.750000X0.750000X-0.750000X0.750000X-0.750000X-0.750000X0.750000X-0.750000X0*%
%TD*%
%TA.AperFunction,ComponentPad*%
%ADD19RoundRect,0.250000X0.750000X-0.750000X0.750000X0.750000X-0.750000X0.750000X-0.750000X-0.750000X0*%
%TD*%
%TA.AperFunction,FiducialPad,Global*%
%ADD20R,1.500000X1.500000*%
%TD*%
%TA.AperFunction,ComponentPad*%
%ADD21R,1.700000X1.700000*%
%TD*%
%TA.AperFunction,Conductor*%
%ADD22C,0.600000*%
%TD*%
G04 APERTURE END LIST*
D10*
%TO.P,U1,1,1OUT*%
%TO.N,L*%
X262000000Y-35760000D03*
D11*
%TO.P,U1,2,1IN-*%
%TO.N,1IN-*%
X262000000Y-38300000D03*
%TO.P,U1,3,1IN+*%
%TO.N,1IN+*%
X262000000Y-40840000D03*
%TO.P,U1,4,VCC*%
%TO.N,+5V*%
X262000000Y-43380000D03*
%TO.P,U1,5,2IN+*%
%TO.N,2IN+*%
X262000000Y-45920000D03*
%TO.P,U1,6,2IN-*%
%TO.N,2IN-*%
X262000000Y-48460000D03*
%TO.P,U1,7,2OUT*%
%TO.N,R*%
X262000000Y-51000000D03*
%TO.P,U1,8,3OUT*%
%TO.N,unconnected-(U1-3OUT-Pad8)*%
X269620000Y-51000000D03*
%TO.P,U1,9,3IN-*%
%TO.N,unconnected-(U1-3IN--Pad9)*%
X269620000Y-48460000D03*
%TO.P,U1,10,3IN+*%
%TO.N,unconnected-(U1-3IN+-Pad10)*%
X269620000Y-45920000D03*
%TO.P,U1,11,GND*%
%TO.N,GND*%
X269620000Y-43380000D03*
%TO.P,U1,12,4IN+*%
%TO.N,unconnected-(U1-4IN+-Pad12)*%
X269620000Y-40840000D03*
%TO.P,U1,13,4IN-*%
%TO.N,unconnected-(U1-4IN--Pad13)*%
X269620000Y-38300000D03*
%TO.P,U1,14,4OUT*%
%TO.N,unconnected-(U1-4OUT-Pad14)*%
X269620000Y-35760000D03*
%TD*%
D12*
%TO.P,Left1,1,1*%
%TO.N,L*%
X274000000Y-74000000D03*
%TD*%
%TO.P,5V0,1,1*%
%TO.N,+5V*%
X150000000Y-68000000D03*
%TD*%
D13*
%TO.P,J2,1*%
%TO.N,GND*%
X265450000Y-87442500D03*
D14*
%TO.P,J2,2*%
%TO.N,L*%
X261950000Y-82942500D03*
%TO.P,J2,3*%
%TO.N,R*%
X257150000Y-92442500D03*
%TD*%
D12*
%TO.P,GND1,1,1*%
%TO.N,GND*%
X269000000Y-100000000D03*
%TD*%
D15*
%TO.P,R8,1*%
%TO.N,2IN-*%
X254920000Y-59000000D03*
%TO.P,R8,2*%
%TO.N,R*%
X265080000Y-59000000D03*
%TD*%
D12*
%TO.P,LOUT-1,1,1*%
%TO.N,Net-(U2-LOUT-)*%
X181000000Y-22500000D03*
%TD*%
%TO.P,LRCK2,1,1*%
%TO.N,LRCK*%
X132000000Y-68000000D03*
%TD*%
D15*
%TO.P,L2,1,1*%
%TO.N,Net-(C2-Pad1)*%
X206080000Y-31000000D03*
%TO.P,L2,2,2*%
%TO.N,Net-(U2-LOUT-)*%
X195920000Y-31000000D03*
%TD*%
D16*
%TO.P,C1,1*%
%TO.N,Net-(C1-Pad1)*%
X211500000Y-38000000D03*
D17*
%TO.P,C1,2*%
%TO.N,GND*%
X226500000Y-38000000D03*
%TD*%
D18*
%TO.P,C5,1*%
%TO.N,+5V*%
X252500000Y-43500000D03*
D17*
%TO.P,C5,2*%
%TO.N,GND*%
X237500000Y-43500000D03*
%TD*%
D15*
%TO.P,L4,1,1*%
%TO.N,Net-(C4-Pad2)*%
X206080000Y-49000000D03*
%TO.P,L4,2,2*%
%TO.N,Net-(U2-ROUT+)*%
X195920000Y-49000000D03*
%TD*%
%TO.P,R3,1*%
%TO.N,Net-(C2-Pad1)*%
X239920000Y-28000000D03*
%TO.P,R3,2*%
%TO.N,1IN-*%
X250080000Y-28000000D03*
%TD*%
D19*
%TO.P,C6,1*%
%TO.N,+5V*%
X142000000Y-57000000D03*
D17*
%TO.P,C6,2*%
%TO.N,GND*%
X142000000Y-42000000D03*
%TD*%
D12*
%TO.P,ROUT+1,1,1*%
%TO.N,Net-(U2-ROUT+)*%
X196000000Y-68000000D03*
%TD*%
D15*
%TO.P,R1,1*%
%TO.N,Net-(C1-Pad1)*%
X239920000Y-38000000D03*
%TO.P,R1,2*%
%TO.N,1IN+*%
X250080000Y-38000000D03*
%TD*%
%TO.P,R6,1*%
%TO.N,2IN+*%
X260920000Y-28000000D03*
%TO.P,R6,2*%
%TO.N,GND*%
X271080000Y-28000000D03*
%TD*%
D16*
%TO.P,C2,1*%
%TO.N,Net-(C2-Pad1)*%
X211500000Y-28000000D03*
D17*
%TO.P,C2,2*%
%TO.N,GND*%
X226500000Y-28000000D03*
%TD*%
D12*
%TO.P,Right1,1,1*%
%TO.N,R*%
X257000000Y-100000000D03*
%TD*%
D15*
%TO.P,R13,1*%
%TO.N,Net-(C2-Pad1)*%
X236000000Y-27920000D03*
%TO.P,R13,2*%
%TO.N,Net-(C1-Pad1)*%
X236000000Y-38080000D03*
%TD*%
%TO.P,L1,1,1*%
%TO.N,Net-(C1-Pad1)*%
X206080000Y-38000000D03*
%TO.P,L1,2,2*%
%TO.N,Net-(U2-LOUT+)*%
X195920000Y-38000000D03*
%TD*%
D20*
%TO.P,U2,1,LOUT+*%
%TO.N,Net-(U2-LOUT+)*%
X174300000Y-39600000D03*
%TO.P,U2,2,LOUT-*%
%TO.N,Net-(U2-LOUT-)*%
X174300000Y-37100000D03*
%TO.P,U2,3,ROUT-*%
%TO.N,Net-(U2-ROUT-)*%
X174300000Y-52900000D03*
%TO.P,U2,4,ROUT+*%
%TO.N,Net-(U2-ROUT+)*%
X174300000Y-50400000D03*
%TO.P,U2,5,INL*%
%TO.N,/OUTL*%
X155500000Y-37100000D03*
%TO.P,U2,6,GND*%
%TO.N,GND*%
X155500000Y-39600000D03*
%TO.P,U2,7,INR*%
%TO.N,/OUTR*%
X155500000Y-42100000D03*
%TO.P,U2,8,5V*%
%TO.N,+5V*%
X155500000Y-50400000D03*
%TO.P,U2,9,PWRGND*%
%TO.N,GND*%
X155500000Y-52900000D03*
%TD*%
D18*
%TO.P,C4,1*%
%TO.N,GND*%
X226500000Y-49000000D03*
D17*
%TO.P,C4,2*%
%TO.N,Net-(C4-Pad2)*%
X211500000Y-49000000D03*
%TD*%
D15*
%TO.P,R4,1*%
%TO.N,L*%
X254920000Y-74000000D03*
%TO.P,R4,2*%
%TO.N,1IN-*%
X265080000Y-74000000D03*
%TD*%
D18*
%TO.P,C3,1*%
%TO.N,GND*%
X226500000Y-59000000D03*
D17*
%TO.P,C3,2*%
%TO.N,Net-(C3-Pad2)*%
X211500000Y-59000000D03*
%TD*%
D15*
%TO.P,L3,1,1*%
%TO.N,Net-(C3-Pad2)*%
X206080000Y-56000000D03*
%TO.P,L3,2,2*%
%TO.N,Net-(U2-ROUT-)*%
X195920000Y-56000000D03*
%TD*%
D21*
%TO.P,U4,1,VIN*%
%TO.N,+3.3V*%
X133100000Y-56850000D03*
%TO.P,U4,2,GND*%
%TO.N,GND*%
X130400000Y-56850000D03*
%TO.P,U4,3,LCK*%
%TO.N,LRCK*%
X127700000Y-56850000D03*
%TO.P,U4,4,DIN*%
%TO.N,DADOS*%
X125000000Y-56850000D03*
%TO.P,U4,5,BCK*%
%TO.N,BCK*%
X122300000Y-56850000D03*
%TO.P,U4,6,SCK*%
%TO.N,GND*%
X119600000Y-56850000D03*
%TO.P,U4,7,FLT*%
X119200000Y-50550000D03*
%TO.P,U4,8,DEMP*%
X119200000Y-47850000D03*
%TO.P,U4,9,XSMT*%
%TO.N,+3.3V*%
X119200000Y-45150000D03*
%TO.P,U4,10,FMT*%
%TO.N,GND*%
X119200000Y-42450000D03*
%TO.P,U4,11,A3V3*%
%TO.N,+3.3V*%
X119200000Y-39750000D03*
%TO.P,U4,12,AGND*%
%TO.N,GND*%
X119200000Y-37050000D03*
%TO.P,U4,13,ROUT*%
%TO.N,/OUTR*%
X119200000Y-34350000D03*
%TO.P,U4,14,AGND2*%
%TO.N,GND*%
X119200000Y-31650000D03*
%TO.P,U4,15,LOUT*%
%TO.N,/OUTL*%
X119200000Y-28950000D03*
%TD*%
D12*
%TO.P,LOUT+1,1,1*%
%TO.N,Net-(U2-LOUT+)*%
X173000000Y-22500000D03*
%TD*%
%TO.P,3V3,1,1*%
%TO.N,+3.3V*%
X140000000Y-68000000D03*
%TD*%
%TO.P,GND3,1,1*%
%TO.N,GND*%
X158000000Y-68000000D03*
%TD*%
D15*
%TO.P,R2,1*%
%TO.N,1IN+*%
X261000000Y-21000000D03*
%TO.P,R2,2*%
%TO.N,GND*%
X271160000Y-21000000D03*
%TD*%
D12*
%TO.P,DADOS2,1,1*%
%TO.N,DADOS*%
X124000000Y-68000000D03*
%TD*%
%TO.P,ROUT-1,1,1*%
%TO.N,Net-(U2-ROUT-)*%
X187000000Y-68000000D03*
%TD*%
%TO.P,OUTR1,1,1*%
%TO.N,/OUTR*%
X166000000Y-68000000D03*
%TD*%
D15*
%TO.P,R7,1*%
%TO.N,Net-(C3-Pad2)*%
X239920000Y-59000000D03*
%TO.P,R7,2*%
%TO.N,2IN-*%
X250080000Y-59000000D03*
%TD*%
D12*
%TO.P,BCK2,1,1*%
%TO.N,BCK*%
X116000000Y-68000000D03*
%TD*%
D15*
%TO.P,R5,1*%
%TO.N,Net-(C4-Pad2)*%
X239920000Y-49000000D03*
%TO.P,R5,2*%
%TO.N,2IN+*%
X250080000Y-49000000D03*
%TD*%
%TO.P,R14,1*%
%TO.N,Net-(C4-Pad2)*%
X236000000Y-48920000D03*
%TO.P,R14,2*%
%TO.N,Net-(C3-Pad2)*%
X236000000Y-59080000D03*
%TD*%
D12*
%TO.P,OUTL1,1,1*%
%TO.N,/OUTL*%
X174000000Y-68000000D03*
%TD*%
D22*
%TO.N,BCK*%
X122300000Y-61700000D02*
X122300000Y-56850000D01*
X116000000Y-68000000D02*
X122300000Y-61700000D01*
%TO.N,Net-(C1-Pad1)*%
X232920000Y-35000000D02*
X236000000Y-38080000D01*
X206080000Y-38000000D02*
X211500000Y-38000000D01*
X206080000Y-38000000D02*
X209080000Y-35000000D01*
X209080000Y-35000000D02*
X232920000Y-35000000D01*
X239920000Y-38000000D02*
X236080000Y-38000000D01*
X236080000Y-38000000D02*
X236000000Y-38080000D01*
%TO.N,Net-(C2-Pad1)*%
X206080000Y-30920000D02*
X209000000Y-28000000D01*
X236080000Y-28000000D02*
X236000000Y-27920000D01*
X206080000Y-31000000D02*
X206080000Y-30920000D01*
X206080000Y-31000000D02*
X232920000Y-31000000D01*
X232920000Y-31000000D02*
X236000000Y-27920000D01*
X239920000Y-28000000D02*
X236080000Y-28000000D01*
X209000000Y-28000000D02*
X211500000Y-28000000D01*
%TO.N,Net-(C3-Pad2)*%
X209000000Y-59000000D02*
X211500000Y-59000000D01*
X239920000Y-59000000D02*
X236080000Y-59000000D01*
X206080000Y-56080000D02*
X209000000Y-59000000D01*
X206080000Y-56000000D02*
X232920000Y-56000000D01*
X206080000Y-56000000D02*
X206080000Y-56080000D01*
X236080000Y-59000000D02*
X236000000Y-59080000D01*
X232920000Y-56000000D02*
X236000000Y-59080000D01*
%TO.N,Net-(C4-Pad2)*%
X209080000Y-52000000D02*
X232920000Y-52000000D01*
X236080000Y-49000000D02*
X236000000Y-48920000D01*
X232920000Y-52000000D02*
X236000000Y-48920000D01*
X212000000Y-49000000D02*
X206080000Y-49000000D01*
X239920000Y-49000000D02*
X236080000Y-49000000D01*
X206080000Y-49000000D02*
X209080000Y-52000000D01*
%TO.N,DADOS*%
X125000000Y-63000000D02*
X125000000Y-56850000D01*
X124000000Y-64000000D02*
X125000000Y-63000000D01*
X124000000Y-68000000D02*
X124000000Y-64000000D01*
X125000000Y-67000000D02*
X124000000Y-68000000D01*
%TO.N,Net-(U2-LOUT+)*%
X170000000Y-35000000D02*
X173000000Y-32000000D01*
X174300000Y-39600000D02*
X179900000Y-39600000D01*
X172100000Y-39600000D02*
X170000000Y-37500000D01*
X195620000Y-37700000D02*
X195920000Y-38000000D01*
X174300000Y-39600000D02*
X172100000Y-39600000D01*
X181800000Y-37700000D02*
X195620000Y-37700000D01*
X179900000Y-39600000D02*
X181800000Y-37700000D01*
X173000000Y-32000000D02*
X173000000Y-22500000D01*
X170000000Y-37500000D02*
X170000000Y-35000000D01*
%TO.N,Net-(U2-LOUT-)*%
X181800000Y-35200000D02*
X181800000Y-23300000D01*
X174300000Y-37100000D02*
X179900000Y-37100000D01*
X191720000Y-35200000D02*
X195920000Y-31000000D01*
X179900000Y-37100000D02*
X181800000Y-35200000D01*
X181800000Y-35200000D02*
X191720000Y-35200000D01*
%TO.N,Net-(U2-ROUT-)*%
X195920000Y-58080000D02*
X195920000Y-56000000D01*
X192820000Y-52900000D02*
X195920000Y-56000000D01*
X174300000Y-52900000D02*
X192820000Y-52900000D01*
X187000000Y-67000000D02*
X195920000Y-58080000D01*
%TO.N,Net-(U2-ROUT+)*%
X174300000Y-50400000D02*
X194520000Y-50400000D01*
X195920000Y-49000000D02*
X200000000Y-53080000D01*
X200000000Y-64000000D02*
X196000000Y-68000000D01*
X195420000Y-48500000D02*
X195920000Y-49000000D01*
X194520000Y-50400000D02*
X195920000Y-49000000D01*
X200000000Y-53080000D02*
X200000000Y-64000000D01*
%TO.N,LRCK*%
X127700000Y-63700000D02*
X127700000Y-56850000D01*
X132000000Y-68000000D02*
X127700000Y-63700000D01*
%TO.N,1IN+*%
X261000000Y-24000000D02*
X258000000Y-27000000D01*
X264000000Y-35362600D02*
X264000000Y-38840000D01*
X258000000Y-27000000D02*
X258000000Y-29362600D01*
X259160000Y-38000000D02*
X262000000Y-40840000D01*
X258000000Y-29362600D02*
X264000000Y-35362600D01*
X250080000Y-38000000D02*
X259160000Y-38000000D01*
X261000000Y-21000000D02*
X261000000Y-24000000D01*
X264000000Y-38840000D02*
X262000000Y-40840000D01*
%TO.N,1IN-*%
X277000000Y-64000000D02*
X277000000Y-18000000D01*
X251850000Y-28150000D02*
X262000000Y-38300000D01*
X267000000Y-74000000D02*
X277000000Y-64000000D01*
X255000000Y-17000000D02*
X251850000Y-20150000D01*
X251850000Y-20150000D02*
X251850000Y-28150000D01*
X251700000Y-28000000D02*
X251850000Y-28150000D01*
X265080000Y-74000000D02*
X267000000Y-74000000D01*
X276000000Y-17000000D02*
X255000000Y-17000000D01*
X277000000Y-18000000D02*
X276000000Y-17000000D01*
X250080000Y-28000000D02*
X251700000Y-28000000D01*
%TO.N,2IN+*%
X258920000Y-49000000D02*
X262000000Y-45920000D01*
X260920000Y-29920000D02*
X266000000Y-35000000D01*
X260920000Y-28000000D02*
X260920000Y-29920000D01*
X266000000Y-41920000D02*
X262000000Y-45920000D01*
X250080000Y-49000000D02*
X258920000Y-49000000D01*
X266000000Y-35000000D02*
X266000000Y-41920000D01*
%TO.N,2IN-*%
X254920000Y-59000000D02*
X250080000Y-59000000D01*
X251460000Y-59000000D02*
X262000000Y-48460000D01*
X250080000Y-59000000D02*
X251460000Y-59000000D01*
%TO.N,L*%
X256000000Y-21000000D02*
X256000000Y-29760000D01*
X274000000Y-74000000D02*
X270892500Y-74000000D01*
X275000000Y-20000000D02*
X274000000Y-19000000D01*
X275000000Y-61080000D02*
X262080000Y-74000000D01*
X270892500Y-74000000D02*
X261950000Y-82942500D01*
X258000000Y-19000000D02*
X256000000Y-21000000D01*
X254920000Y-75912500D02*
X261950000Y-82942500D01*
X274000000Y-19000000D02*
X258000000Y-19000000D01*
X275000000Y-61080000D02*
X275000000Y-20000000D01*
X254920000Y-74000000D02*
X254920000Y-75912500D01*
X262080000Y-74000000D02*
X254920000Y-74000000D01*
X256000000Y-29760000D02*
X262000000Y-35760000D01*
%TO.N,R*%
X265080000Y-59000000D02*
X265080000Y-54080000D01*
X265080000Y-54080000D02*
X262000000Y-51000000D01*
X249000000Y-84292500D02*
X257150000Y-92442500D01*
X257000000Y-92592500D02*
X257150000Y-92442500D01*
X249000000Y-66000000D02*
X249000000Y-84292500D01*
X263080000Y-61000000D02*
X265080000Y-59000000D01*
X254000000Y-61000000D02*
X249000000Y-66000000D01*
X257000000Y-100000000D02*
X257000000Y-92592500D01*
X262080000Y-51000000D02*
X262000000Y-51000000D01*
X254000000Y-61000000D02*
X263080000Y-61000000D01*
%TO.N,+5V*%
X149000000Y-21000000D02*
X117000000Y-21000000D01*
X151600000Y-50400000D02*
X155500000Y-50400000D01*
X250000000Y-41000000D02*
X232000000Y-41000000D01*
X117000000Y-21000000D02*
X111000000Y-27000000D01*
X172000000Y-44000000D02*
X149000000Y-21000000D01*
X111000000Y-27000000D02*
X111000000Y-69000000D01*
X232000000Y-41000000D02*
X229000000Y-44000000D01*
X252500000Y-43500000D02*
X250000000Y-41000000D01*
X253000000Y-43500000D02*
X261880000Y-43500000D01*
X261880000Y-43500000D02*
X262000000Y-43380000D01*
X111000000Y-69000000D02*
X114000000Y-72000000D01*
X150000000Y-52000000D02*
X151600000Y-50400000D01*
X146000000Y-72000000D02*
X150000000Y-68000000D01*
X150000000Y-52000000D02*
X145000000Y-57000000D01*
X229000000Y-44000000D02*
X172000000Y-44000000D01*
X114000000Y-72000000D02*
X146000000Y-72000000D01*
X145000000Y-57000000D02*
X142000000Y-57000000D01*
X150000000Y-68000000D02*
X150000000Y-52000000D01*
%TO.N,/OUTR*%
X150100000Y-42100000D02*
X155500000Y-42100000D01*
X142350000Y-34350000D02*
X150100000Y-42100000D01*
X166000000Y-68000000D02*
X166000000Y-52600000D01*
X166000000Y-52600000D02*
X155500000Y-42100000D01*
X119200000Y-34350000D02*
X142350000Y-34350000D01*
%TO.N,/OUTL*%
X155500000Y-37100000D02*
X159100000Y-37100000D01*
X147350000Y-28950000D02*
X155500000Y-37100000D01*
X119200000Y-28950000D02*
X147350000Y-28950000D01*
X170000000Y-64000000D02*
X174000000Y-68000000D01*
X159100000Y-37100000D02*
X170000000Y-48000000D01*
X170000000Y-48000000D02*
X170000000Y-64000000D01*
%TO.N,+3.3V*%
X133100000Y-61100000D02*
X133100000Y-56850000D01*
X119200000Y-45150000D02*
X130150000Y-45150000D01*
X130150000Y-45150000D02*
X133100000Y-48100000D01*
X119200000Y-39750000D02*
X124750000Y-39750000D01*
X124750000Y-39750000D02*
X130150000Y-45150000D01*
X133100000Y-48100000D02*
X133100000Y-56850000D01*
X140000000Y-68000000D02*
X140000000Y-67000000D01*
X140000000Y-68000000D02*
X133100000Y-61100000D01*
%TD*%
%TA.AperFunction,Conductor*%
%TO.N,GND*%
G36*
X254046476Y-15520691D02*
G01*
X254139900Y-15578536D01*
X254206119Y-15666224D01*
X254236190Y-15771912D01*
X254226051Y-15881325D01*
X254177072Y-15979688D01*
X254149890Y-16010925D01*
X250858033Y-19302781D01*
X250737715Y-19468385D01*
X250721748Y-19499724D01*
X250721746Y-19499727D01*
X250644781Y-19650777D01*
X250644777Y-19650789D01*
X250631163Y-19692684D01*
X250631164Y-19692685D01*
X250581521Y-19845469D01*
X250574830Y-19887712D01*
X250574831Y-19887713D01*
X250549500Y-20047643D01*
X250549500Y-25904829D01*
X250529309Y-26012840D01*
X250471464Y-26106264D01*
X250383776Y-26172483D01*
X250278088Y-26202554D01*
X250211484Y-26201272D01*
X250198024Y-26199500D01*
X250198011Y-26199500D01*
X249961989Y-26199500D01*
X249961987Y-26199500D01*
X249747226Y-26227774D01*
X249727986Y-26230307D01*
X249500007Y-26291394D01*
X249500005Y-26291394D01*
X249500004Y-26291395D01*
X249281948Y-26381717D01*
X249077549Y-26499727D01*
X248890307Y-26643402D01*
X248890295Y-26643413D01*
X248723413Y-26810295D01*
X248723402Y-26810307D01*
X248579727Y-26997549D01*
X248461717Y-27201948D01*
X248384283Y-27388891D01*
X248371394Y-27420007D01*
X248335350Y-27554524D01*
X248310307Y-27647986D01*
X248279589Y-27881315D01*
X248279500Y-27881989D01*
X248279500Y-28118011D01*
X248310307Y-28352014D01*
X248371394Y-28579993D01*
X248431894Y-28726051D01*
X248461717Y-28798051D01*
X248579727Y-29002450D01*
X248723402Y-29189692D01*
X248723405Y-29189696D01*
X248723408Y-29189699D01*
X248890301Y-29356592D01*
X248890304Y-29356594D01*
X248890307Y-29356597D01*
X249008255Y-29447101D01*
X249077550Y-29500273D01*
X249281951Y-29618284D01*
X249500007Y-29708606D01*
X249727986Y-29769693D01*
X249913215Y-29794078D01*
X249961987Y-29800500D01*
X249961989Y-29800500D01*
X250198013Y-29800500D01*
X250242181Y-29794684D01*
X250432014Y-29769693D01*
X250659993Y-29708606D01*
X250878049Y-29618284D01*
X251060408Y-29512998D01*
X251164041Y-29476480D01*
X251273871Y-29479863D01*
X251375062Y-29522693D01*
X251421331Y-29560516D01*
X254890124Y-33029309D01*
X258049891Y-36189075D01*
X258111989Y-36279728D01*
X258137147Y-36386691D01*
X258121966Y-36495520D01*
X258068497Y-36591515D01*
X257983961Y-36661713D01*
X257879775Y-36696633D01*
X257838466Y-36699500D01*
X251444296Y-36699500D01*
X251336285Y-36679309D01*
X251262277Y-36637713D01*
X251082450Y-36499727D01*
X250878051Y-36381717D01*
X250870372Y-36378536D01*
X250659993Y-36291394D01*
X250432014Y-36230307D01*
X250354013Y-36220038D01*
X250198013Y-36199500D01*
X250198011Y-36199500D01*
X249961989Y-36199500D01*
X249961987Y-36199500D01*
X249727986Y-36230307D01*
X249500007Y-36291394D01*
X249500005Y-36291394D01*
X249500004Y-36291395D01*
X249281948Y-36381717D01*
X249077549Y-36499727D01*
X248890307Y-36643402D01*
X248890295Y-36643413D01*
X248723413Y-36810295D01*
X248723402Y-36810307D01*
X248579727Y-36997549D01*
X248461717Y-37201948D01*
X248371395Y-37420004D01*
X248310307Y-37647986D01*
X248279500Y-37881986D01*
X248279500Y-38118013D01*
X248290032Y-38198011D01*
X248310307Y-38352014D01*
X248371394Y-38579993D01*
X248430457Y-38722582D01*
X248461717Y-38798051D01*
X248579727Y-39002450D01*
X248723402Y-39189692D01*
X248729864Y-39197060D01*
X248728858Y-39197942D01*
X248784882Y-39279728D01*
X248810040Y-39386691D01*
X248794859Y-39495520D01*
X248741390Y-39591515D01*
X248656854Y-39661713D01*
X248552668Y-39696633D01*
X248511359Y-39699500D01*
X241488641Y-39699500D01*
X241380630Y-39679309D01*
X241287206Y-39621464D01*
X241220987Y-39533776D01*
X241190916Y-39428088D01*
X241201055Y-39318675D01*
X241250034Y-39220312D01*
X241270210Y-39197125D01*
X241270136Y-39197060D01*
X241276582Y-39189708D01*
X241276592Y-39189699D01*
X241420273Y-39002450D01*
X241538284Y-38798049D01*
X241628606Y-38579993D01*
X241689693Y-38352014D01*
X241719509Y-38125540D01*
X241720500Y-38118013D01*
X241720500Y-37881986D01*
X241703929Y-37756119D01*
X241689693Y-37647986D01*
X241628606Y-37420007D01*
X241538284Y-37201951D01*
X241420273Y-36997550D01*
X241305504Y-36847980D01*
X241276597Y-36810307D01*
X241276594Y-36810304D01*
X241276592Y-36810301D01*
X241109699Y-36643408D01*
X241109696Y-36643405D01*
X241109692Y-36643402D01*
X240922450Y-36499727D01*
X240718051Y-36381717D01*
X240710372Y-36378536D01*
X240499993Y-36291394D01*
X240272014Y-36230307D01*
X240194013Y-36220038D01*
X240038013Y-36199500D01*
X240038011Y-36199500D01*
X239801989Y-36199500D01*
X239801987Y-36199500D01*
X239567986Y-36230307D01*
X239340007Y-36291394D01*
X239340005Y-36291394D01*
X239340004Y-36291395D01*
X239121948Y-36381717D01*
X238917549Y-36499727D01*
X238737723Y-36637713D01*
X238639741Y-36687447D01*
X238555704Y-36699500D01*
X237260038Y-36699500D01*
X237152027Y-36679309D01*
X237078019Y-36637713D01*
X237002450Y-36579727D01*
X236798051Y-36461717D01*
X236675427Y-36410924D01*
X236579993Y-36371394D01*
X236352014Y-36310307D01*
X236127283Y-36280720D01*
X236022832Y-36246603D01*
X235954887Y-36195703D01*
X233767219Y-34008034D01*
X233601611Y-33887713D01*
X233601607Y-33887711D01*
X233601603Y-33887708D01*
X233510415Y-33841246D01*
X233419223Y-33794782D01*
X233419222Y-33794781D01*
X233419219Y-33794780D01*
X233354323Y-33773694D01*
X233321874Y-33763150D01*
X233321874Y-33763149D01*
X233224537Y-33731523D01*
X233022353Y-33699500D01*
X233022352Y-33699500D01*
X208977648Y-33699500D01*
X208977646Y-33699500D01*
X208775463Y-33731523D01*
X208580787Y-33794776D01*
X208580787Y-33794777D01*
X208580784Y-33794778D01*
X208580782Y-33794779D01*
X208470873Y-33850781D01*
X208398390Y-33887713D01*
X208232781Y-34008034D01*
X208088034Y-34152781D01*
X208088031Y-34152784D01*
X208074924Y-34165890D01*
X208074920Y-34165894D01*
X206125111Y-36115703D01*
X206034458Y-36177801D01*
X205952715Y-36200720D01*
X205727985Y-36230307D01*
X205596359Y-36265576D01*
X205500007Y-36291394D01*
X205500005Y-36291394D01*
X205500004Y-36291395D01*
X205281948Y-36381717D01*
X205077549Y-36499727D01*
X204890307Y-36643402D01*
X204890295Y-36643413D01*
X204723413Y-36810295D01*
X204723402Y-36810307D01*
X204579727Y-36997549D01*
X204461717Y-37201948D01*
X204371395Y-37420004D01*
X204310307Y-37647986D01*
X204279500Y-37881986D01*
X204279500Y-38118013D01*
X204290032Y-38198011D01*
X204310307Y-38352014D01*
X204371394Y-38579993D01*
X204430457Y-38722582D01*
X204461717Y-38798051D01*
X204579727Y-39002450D01*
X204723402Y-39189692D01*
X204723405Y-39189696D01*
X204723408Y-39189699D01*
X204890301Y-39356592D01*
X204890304Y-39356594D01*
X204890307Y-39356597D01*
X204984956Y-39429223D01*
X205077550Y-39500273D01*
X205281951Y-39618284D01*
X205500007Y-39708606D01*
X205727986Y-39769693D01*
X205913215Y-39794078D01*
X205961987Y-39800500D01*
X205961989Y-39800500D01*
X206198013Y-39800500D01*
X206242181Y-39794684D01*
X206432014Y-39769693D01*
X206659993Y-39708606D01*
X206878049Y-39618284D01*
X207082450Y-39500273D01*
X207262277Y-39362286D01*
X207360259Y-39312553D01*
X207444296Y-39300500D01*
X209453504Y-39300500D01*
X209561515Y-39320691D01*
X209654939Y-39378536D01*
X209699281Y-39429222D01*
X209786181Y-39554654D01*
X209945346Y-39713819D01*
X210130374Y-39842007D01*
X210130377Y-39842008D01*
X210130381Y-39842011D01*
X210314740Y-39925749D01*
X210335317Y-39935096D01*
X210553588Y-39990096D01*
X210685783Y-40000500D01*
X212314216Y-40000499D01*
X212314221Y-40000499D01*
X212446401Y-39990097D01*
X212446402Y-39990096D01*
X212446412Y-39990096D01*
X212664683Y-39935096D01*
X212851710Y-39850145D01*
X212869618Y-39842011D01*
X212869619Y-39842009D01*
X212869626Y-39842007D01*
X213054654Y-39713819D01*
X213213819Y-39554654D01*
X213342007Y-39369626D01*
X213347928Y-39356592D01*
X213385160Y-39274622D01*
X213435096Y-39164683D01*
X213490096Y-38946412D01*
X213500500Y-38814217D01*
X213500499Y-37185784D01*
X213498565Y-37161210D01*
X213490097Y-37053598D01*
X213490096Y-37053596D01*
X213490096Y-37053588D01*
X213435096Y-36835317D01*
X213384148Y-36723151D01*
X213357863Y-36616462D01*
X213371894Y-36507479D01*
X213424347Y-36410924D01*
X213508137Y-36339838D01*
X213611949Y-36303820D01*
X213656382Y-36300500D01*
X232257465Y-36300500D01*
X232365476Y-36320691D01*
X232458900Y-36378536D01*
X232468890Y-36388075D01*
X234115703Y-38034887D01*
X234177801Y-38125540D01*
X234200720Y-38207283D01*
X234219775Y-38352014D01*
X234230307Y-38432014D01*
X234291394Y-38659993D01*
X234375848Y-38863881D01*
X234381717Y-38878051D01*
X234499727Y-39082450D01*
X234604107Y-39218481D01*
X234653841Y-39316464D01*
X234664822Y-39425796D01*
X234635566Y-39531712D01*
X234570024Y-39619907D01*
X234477048Y-39678470D01*
X234369196Y-39699491D01*
X234366894Y-39699500D01*
X231897646Y-39699500D01*
X231807243Y-39713818D01*
X231807243Y-39713819D01*
X231695466Y-39731523D01*
X231695463Y-39731523D01*
X231695462Y-39731524D01*
X231500787Y-39794776D01*
X231500781Y-39794779D01*
X231362207Y-39865385D01*
X231362208Y-39865386D01*
X231318388Y-39887713D01*
X231152782Y-40008033D01*
X231152775Y-40008039D01*
X228548890Y-42611925D01*
X228458237Y-42674023D01*
X228351274Y-42699181D01*
X228337465Y-42699500D01*
X172662535Y-42699500D01*
X172554524Y-42679309D01*
X172461100Y-42621464D01*
X172451110Y-42611925D01*
X170934588Y-41095403D01*
X170872490Y-41004750D01*
X170847332Y-40897787D01*
X170862513Y-40788958D01*
X170915982Y-40692963D01*
X171000518Y-40622765D01*
X171104704Y-40587845D01*
X171214469Y-40592920D01*
X171314989Y-40637304D01*
X171321737Y-40642065D01*
X171418390Y-40712287D01*
X171600781Y-40805220D01*
X171795466Y-40868477D01*
X171997648Y-40900500D01*
X172565935Y-40900500D01*
X172673946Y-40920691D01*
X172767370Y-40978536D01*
X172797664Y-41010549D01*
X172838888Y-41061106D01*
X172838889Y-41061107D01*
X172838891Y-41061109D01*
X172996593Y-41189698D01*
X173176951Y-41283909D01*
X173372582Y-41339886D01*
X173491963Y-41350500D01*
X175108036Y-41350499D01*
X175227418Y-41339886D01*
X175423049Y-41283909D01*
X175603407Y-41189698D01*
X175761109Y-41061109D01*
X175790258Y-41025361D01*
X175802336Y-41010549D01*
X175886241Y-40939598D01*
X175990111Y-40903748D01*
X176034065Y-40900500D01*
X180002351Y-40900500D01*
X180002352Y-40900500D01*
X180204535Y-40868477D01*
X180277697Y-40844705D01*
X180304843Y-40835885D01*
X180304845Y-40835883D01*
X180318267Y-40831523D01*
X180399219Y-40805220D01*
X180523362Y-40741966D01*
X180581611Y-40712287D01*
X180747219Y-40591966D01*
X182251109Y-39088074D01*
X182341762Y-39025977D01*
X182448725Y-39000819D01*
X182462534Y-39000500D01*
X194270780Y-39000500D01*
X194378791Y-39020691D01*
X194472215Y-39078536D01*
X194507992Y-39117480D01*
X194544213Y-39164684D01*
X194563408Y-39189699D01*
X194730301Y-39356592D01*
X194730304Y-39356594D01*
X194730307Y-39356597D01*
X194824956Y-39429223D01*
X194917550Y-39500273D01*
X195121951Y-39618284D01*
X195340007Y-39708606D01*
X195567986Y-39769693D01*
X195753215Y-39794078D01*
X195801987Y-39800500D01*
X195801989Y-39800500D01*
X196038013Y-39800500D01*
X196082181Y-39794684D01*
X196272014Y-39769693D01*
X196499993Y-39708606D01*
X196718049Y-39618284D01*
X196922450Y-39500273D01*
X197109699Y-39356592D01*
X197276592Y-39189699D01*
X197420273Y-39002450D01*
X197538284Y-38798049D01*
X197628606Y-38579993D01*
X197689693Y-38352014D01*
X197719509Y-38125540D01*
X197720500Y-38118013D01*
X197720500Y-37881986D01*
X197703929Y-37756119D01*
X197689693Y-37647986D01*
X197628606Y-37420007D01*
X197538284Y-37201951D01*
X197420273Y-36997550D01*
X197305504Y-36847980D01*
X197276597Y-36810307D01*
X197276594Y-36810304D01*
X197276592Y-36810301D01*
X197109699Y-36643408D01*
X197109696Y-36643405D01*
X197109692Y-36643402D01*
X196922450Y-36499727D01*
X196718051Y-36381717D01*
X196710372Y-36378536D01*
X196499993Y-36291394D01*
X196272014Y-36230307D01*
X196194013Y-36220038D01*
X196038013Y-36199500D01*
X196038011Y-36199500D01*
X195801989Y-36199500D01*
X195801987Y-36199500D01*
X195567986Y-36230307D01*
X195340007Y-36291394D01*
X195340005Y-36291394D01*
X195340004Y-36291395D01*
X195338645Y-36291958D01*
X195133963Y-36376740D01*
X195026449Y-36399420D01*
X195019542Y-36399500D01*
X193081535Y-36399500D01*
X192973524Y-36379309D01*
X192880100Y-36321464D01*
X192813881Y-36233776D01*
X192783810Y-36128088D01*
X192793949Y-36018675D01*
X192842928Y-35920312D01*
X192870110Y-35889075D01*
X194318104Y-34441081D01*
X195874891Y-32884293D01*
X195965541Y-32822198D01*
X196047285Y-32799279D01*
X196272014Y-32769693D01*
X196499993Y-32708606D01*
X196718049Y-32618284D01*
X196922450Y-32500273D01*
X197109699Y-32356592D01*
X197276592Y-32189699D01*
X197420273Y-32002450D01*
X197538284Y-31798049D01*
X197628606Y-31579993D01*
X197689693Y-31352014D01*
X197720500Y-31118011D01*
X197720500Y-30881989D01*
X204279500Y-30881989D01*
X204279500Y-31118011D01*
X204310307Y-31352014D01*
X204360383Y-31538900D01*
X204371395Y-31579995D01*
X204461717Y-31798051D01*
X204579727Y-32002450D01*
X204723402Y-32189692D01*
X204723405Y-32189696D01*
X204723408Y-32189699D01*
X204890301Y-32356592D01*
X204890304Y-32356594D01*
X204890307Y-32356597D01*
X205008255Y-32447101D01*
X205077550Y-32500273D01*
X205281951Y-32618284D01*
X205500007Y-32708606D01*
X205727986Y-32769693D01*
X205913215Y-32794078D01*
X205961987Y-32800500D01*
X205961989Y-32800500D01*
X206198013Y-32800500D01*
X206242181Y-32794684D01*
X206432014Y-32769693D01*
X206659993Y-32708606D01*
X206878049Y-32618284D01*
X207082450Y-32500273D01*
X207262277Y-32362286D01*
X207360259Y-32312553D01*
X207444296Y-32300500D01*
X233022351Y-32300500D01*
X233022352Y-32300500D01*
X233224535Y-32268477D01*
X233321876Y-32236848D01*
X233419219Y-32205220D01*
X233576228Y-32125220D01*
X233601611Y-32112287D01*
X233767219Y-31991966D01*
X235954890Y-29804293D01*
X236045539Y-29742198D01*
X236127282Y-29719279D01*
X236352014Y-29689693D01*
X236579993Y-29628606D01*
X236798049Y-29538284D01*
X237002450Y-29420273D01*
X237078019Y-29362287D01*
X237176002Y-29312552D01*
X237260038Y-29300500D01*
X238555704Y-29300500D01*
X238663715Y-29320691D01*
X238737722Y-29362286D01*
X238917550Y-29500273D01*
X239121951Y-29618284D01*
X239340007Y-29708606D01*
X239567986Y-29769693D01*
X239753215Y-29794078D01*
X239801987Y-29800500D01*
X239801989Y-29800500D01*
X240038013Y-29800500D01*
X240082181Y-29794684D01*
X240272014Y-29769693D01*
X240499993Y-29708606D01*
X240718049Y-29618284D01*
X240922450Y-29500273D01*
X241109699Y-29356592D01*
X241276592Y-29189699D01*
X241420273Y-29002450D01*
X241538284Y-28798049D01*
X241628606Y-28579993D01*
X241689693Y-28352014D01*
X241720500Y-28118011D01*
X241720500Y-27881989D01*
X241720411Y-27881315D01*
X241702436Y-27744780D01*
X241689693Y-27647986D01*
X241628606Y-27420007D01*
X241538284Y-27201951D01*
X241420273Y-26997550D01*
X241335992Y-26887713D01*
X241276597Y-26810307D01*
X241276594Y-26810304D01*
X241276592Y-26810301D01*
X241109699Y-26643408D01*
X241109696Y-26643405D01*
X241109692Y-26643402D01*
X240922450Y-26499727D01*
X240718051Y-26381717D01*
X240565172Y-26318392D01*
X240499993Y-26291394D01*
X240272014Y-26230307D01*
X240194013Y-26220038D01*
X240038013Y-26199500D01*
X240038011Y-26199500D01*
X239801989Y-26199500D01*
X239801987Y-26199500D01*
X239587226Y-26227774D01*
X239567986Y-26230307D01*
X239340007Y-26291394D01*
X239340005Y-26291394D01*
X239340004Y-26291395D01*
X239121948Y-26381717D01*
X238917549Y-26499727D01*
X238737723Y-26637713D01*
X238639741Y-26687447D01*
X238555704Y-26699500D01*
X237449641Y-26699500D01*
X237341630Y-26679309D01*
X237248206Y-26621464D01*
X237238216Y-26611925D01*
X237189704Y-26563413D01*
X237189692Y-26563402D01*
X237002450Y-26419727D01*
X236798051Y-26301717D01*
X236773130Y-26291394D01*
X236579993Y-26211394D01*
X236352014Y-26150307D01*
X236274013Y-26140038D01*
X236118013Y-26119500D01*
X236118011Y-26119500D01*
X235881989Y-26119500D01*
X235881987Y-26119500D01*
X235647986Y-26150307D01*
X235420007Y-26211394D01*
X235420005Y-26211394D01*
X235420004Y-26211395D01*
X235201948Y-26301717D01*
X234997549Y-26419727D01*
X234810307Y-26563402D01*
X234810295Y-26563413D01*
X234643413Y-26730295D01*
X234643402Y-26730307D01*
X234499727Y-26917549D01*
X234381717Y-27121948D01*
X234291395Y-27340004D01*
X234230307Y-27567985D01*
X234200720Y-27792715D01*
X234166603Y-27897167D01*
X234115703Y-27965111D01*
X232468890Y-29611925D01*
X232378237Y-29674023D01*
X232271274Y-29699181D01*
X232257465Y-29699500D01*
X213656382Y-29699500D01*
X213548371Y-29679309D01*
X213454947Y-29621464D01*
X213388728Y-29533776D01*
X213358657Y-29428088D01*
X213368796Y-29318675D01*
X213384149Y-29276846D01*
X213435096Y-29164683D01*
X213490096Y-28946412D01*
X213500500Y-28814217D01*
X213500499Y-27185784D01*
X213498949Y-27166092D01*
X213490097Y-27053598D01*
X213490096Y-27053596D01*
X213490096Y-27053588D01*
X213435096Y-26835317D01*
X213387951Y-26731523D01*
X213342011Y-26630381D01*
X213342008Y-26630377D01*
X213342007Y-26630374D01*
X213213819Y-26445346D01*
X213054654Y-26286181D01*
X212869626Y-26157993D01*
X212869624Y-26157992D01*
X212869618Y-26157988D01*
X212664684Y-26064904D01*
X212446408Y-26009903D01*
X212314237Y-25999501D01*
X212314224Y-25999500D01*
X212314217Y-25999500D01*
X212314205Y-25999500D01*
X210685778Y-25999500D01*
X210553598Y-26009902D01*
X210553583Y-26009905D01*
X210335316Y-26064904D01*
X210130381Y-26157988D01*
X210130372Y-26157994D01*
X209945344Y-26286182D01*
X209786182Y-26445344D01*
X209699282Y-26570777D01*
X209621174Y-26648064D01*
X209520421Y-26691916D01*
X209453504Y-26699500D01*
X208897648Y-26699500D01*
X208789325Y-26716656D01*
X208789325Y-26716657D01*
X208695466Y-26731523D01*
X208695463Y-26731523D01*
X208695462Y-26731524D01*
X208500787Y-26794776D01*
X208500787Y-26794777D01*
X208500784Y-26794778D01*
X208500782Y-26794779D01*
X208318390Y-26887713D01*
X208318387Y-26887714D01*
X208318385Y-26887716D01*
X208152782Y-27008033D01*
X208152775Y-27008039D01*
X208008031Y-27152784D01*
X206032981Y-29127833D01*
X205942328Y-29189931D01*
X205860585Y-29212850D01*
X205727985Y-29230307D01*
X205670199Y-29245791D01*
X205500007Y-29291394D01*
X205500005Y-29291394D01*
X205500004Y-29291395D01*
X205281948Y-29381717D01*
X205077549Y-29499727D01*
X204890307Y-29643402D01*
X204890295Y-29643413D01*
X204723413Y-29810295D01*
X204723402Y-29810307D01*
X204579727Y-29997549D01*
X204461717Y-30201948D01*
X204398981Y-30353407D01*
X204371394Y-30420007D01*
X204346983Y-30511109D01*
X204310307Y-30647986D01*
X204291626Y-30789886D01*
X204279500Y-30881989D01*
X197720500Y-30881989D01*
X197689693Y-30647986D01*
X197628606Y-30420007D01*
X197538284Y-30201951D01*
X197420273Y-29997550D01*
X197367101Y-29928255D01*
X197276597Y-29810307D01*
X197276594Y-29810304D01*
X197276592Y-29810301D01*
X197109699Y-29643408D01*
X197109696Y-29643405D01*
X197109692Y-29643402D01*
X196922450Y-29499727D01*
X196718051Y-29381717D01*
X196717081Y-29381315D01*
X196499993Y-29291394D01*
X196272014Y-29230307D01*
X196139415Y-29212850D01*
X196038013Y-29199500D01*
X196038011Y-29199500D01*
X195801989Y-29199500D01*
X195801987Y-29199500D01*
X195567986Y-29230307D01*
X195340007Y-29291394D01*
X195340005Y-29291394D01*
X195340004Y-29291395D01*
X195121948Y-29381717D01*
X194917549Y-29499727D01*
X194730307Y-29643402D01*
X194730295Y-29643413D01*
X194563413Y-29810295D01*
X194563402Y-29810307D01*
X194419727Y-29997549D01*
X194301717Y-30201948D01*
X194211395Y-30420004D01*
X194150307Y-30647985D01*
X194120720Y-30872715D01*
X194086603Y-30977167D01*
X194035703Y-31045111D01*
X191268890Y-33811925D01*
X191178237Y-33874023D01*
X191071274Y-33899181D01*
X191057465Y-33899500D01*
X183399500Y-33899500D01*
X183291489Y-33879309D01*
X183198065Y-33821464D01*
X183131846Y-33733776D01*
X183101775Y-33628088D01*
X183100500Y-33600500D01*
X183100500Y-24766698D01*
X183120691Y-24658687D01*
X183178536Y-24565263D01*
X183188075Y-24555273D01*
X183240825Y-24502523D01*
X183450946Y-24239039D01*
X183630246Y-23953686D01*
X183776469Y-23650051D01*
X183887776Y-23331954D01*
X183962767Y-23003394D01*
X184000500Y-22668504D01*
X184000500Y-22331496D01*
X183981026Y-22158665D01*
X183962768Y-21996613D01*
X183962767Y-21996611D01*
X183962767Y-21996606D01*
X183887776Y-21668046D01*
X183776469Y-21349949D01*
X183630246Y-21046314D01*
X183450946Y-20760961D01*
X183240825Y-20497477D01*
X183002523Y-20259175D01*
X182739039Y-20049054D01*
X182739040Y-20049054D01*
X182739038Y-20049053D01*
X182453685Y-19869753D01*
X182150058Y-19723534D01*
X182150055Y-19723533D01*
X182150051Y-19723531D01*
X181942132Y-19650777D01*
X181831955Y-19612224D01*
X181503386Y-19537231D01*
X181225501Y-19505922D01*
X181168504Y-19499500D01*
X180831496Y-19499500D01*
X180778969Y-19505418D01*
X180496613Y-19537231D01*
X180168044Y-19612224D01*
X179945430Y-19690120D01*
X179849949Y-19723531D01*
X179849947Y-19723532D01*
X179849941Y-19723534D01*
X179546314Y-19869753D01*
X179260961Y-20049053D01*
X178997483Y-20259170D01*
X178997467Y-20259184D01*
X178759184Y-20497467D01*
X178759170Y-20497483D01*
X178549053Y-20760961D01*
X178369753Y-21046314D01*
X178223534Y-21349941D01*
X178223532Y-21349946D01*
X178223531Y-21349949D01*
X178190120Y-21445430D01*
X178112224Y-21668044D01*
X178037231Y-21996613D01*
X178007974Y-22256285D01*
X178000718Y-22320691D01*
X177999500Y-22331498D01*
X177999500Y-22668501D01*
X178037231Y-23003386D01*
X178037233Y-23003394D01*
X178112224Y-23331954D01*
X178223531Y-23650051D01*
X178223533Y-23650055D01*
X178223534Y-23650058D01*
X178369753Y-23953685D01*
X178463167Y-24102351D01*
X178549054Y-24239039D01*
X178759175Y-24502523D01*
X178997477Y-24740825D01*
X179260961Y-24950946D01*
X179546314Y-25130246D01*
X179849949Y-25276469D01*
X180168046Y-25387776D01*
X180267033Y-25410369D01*
X180367842Y-25454087D01*
X180446052Y-25531270D01*
X180491099Y-25631494D01*
X180499500Y-25701872D01*
X180499500Y-34537465D01*
X180479309Y-34645476D01*
X180421464Y-34738900D01*
X180411925Y-34748890D01*
X179448890Y-35711925D01*
X179358237Y-35774023D01*
X179251274Y-35799181D01*
X179237465Y-35799500D01*
X176034065Y-35799500D01*
X175926054Y-35779309D01*
X175832630Y-35721464D01*
X175802336Y-35689451D01*
X175761111Y-35638893D01*
X175755050Y-35633951D01*
X175603407Y-35510302D01*
X175423049Y-35416091D01*
X175227418Y-35360114D01*
X175108037Y-35349500D01*
X175108036Y-35349500D01*
X173491973Y-35349500D01*
X173491972Y-35349500D01*
X173491964Y-35349501D01*
X173436599Y-35354422D01*
X173372584Y-35360113D01*
X173312107Y-35377418D01*
X173176951Y-35416091D01*
X173176949Y-35416091D01*
X173176949Y-35416092D01*
X172996596Y-35510300D01*
X172996592Y-35510302D01*
X172838891Y-35638891D01*
X172710302Y-35796592D01*
X172710300Y-35796596D01*
X172616092Y-35976949D01*
X172616091Y-35976951D01*
X172571180Y-36133909D01*
X172560114Y-36172583D01*
X172549500Y-36291958D01*
X172549500Y-37488465D01*
X172529309Y-37596476D01*
X172471464Y-37689900D01*
X172383776Y-37756119D01*
X172278088Y-37786190D01*
X172168675Y-37776051D01*
X172070312Y-37727072D01*
X172039075Y-37699890D01*
X171388075Y-37048890D01*
X171325977Y-36958237D01*
X171300819Y-36851274D01*
X171300500Y-36837465D01*
X171300500Y-35662533D01*
X171320691Y-35554522D01*
X171378536Y-35461098D01*
X171388054Y-35451129D01*
X173830175Y-33009007D01*
X173830182Y-33009002D01*
X173847217Y-32991967D01*
X173847219Y-32991966D01*
X173991966Y-32847219D01*
X174112287Y-32681610D01*
X174204683Y-32500273D01*
X174204690Y-32500276D01*
X174204732Y-32500175D01*
X174205221Y-32499218D01*
X174268477Y-32304534D01*
X174300500Y-32102351D01*
X174300500Y-31897648D01*
X174300500Y-25391284D01*
X174320691Y-25283273D01*
X174378536Y-25189849D01*
X174447182Y-25135666D01*
X174446582Y-25134710D01*
X174527504Y-25083862D01*
X174739039Y-24950946D01*
X175002523Y-24740825D01*
X175240825Y-24502523D01*
X175450946Y-24239039D01*
X175630246Y-23953686D01*
X175776469Y-23650051D01*
X175887776Y-23331954D01*
X175962767Y-23003394D01*
X176000500Y-22668504D01*
X176000500Y-22331496D01*
X175981026Y-22158665D01*
X175962768Y-21996613D01*
X175962767Y-21996611D01*
X175962767Y-21996606D01*
X175887776Y-21668046D01*
X175776469Y-21349949D01*
X175630246Y-21046314D01*
X175450946Y-20760961D01*
X175240825Y-20497477D01*
X175002523Y-20259175D01*
X174739039Y-20049054D01*
X174739040Y-20049054D01*
X174739038Y-20049053D01*
X174453685Y-19869753D01*
X174150058Y-19723534D01*
X174150055Y-19723533D01*
X174150051Y-19723531D01*
X173942132Y-19650777D01*
X173831955Y-19612224D01*
X173503386Y-19537231D01*
X173225501Y-19505922D01*
X173168504Y-19499500D01*
X172831496Y-19499500D01*
X172778969Y-19505418D01*
X172496613Y-19537231D01*
X172168044Y-19612224D01*
X171945430Y-19690120D01*
X171849949Y-19723531D01*
X171849947Y-19723532D01*
X171849941Y-19723534D01*
X171546314Y-19869753D01*
X171260961Y-20049053D01*
X170997483Y-20259170D01*
X170997467Y-20259184D01*
X170759184Y-20497467D01*
X170759170Y-20497483D01*
X170549053Y-20760961D01*
X170369753Y-21046314D01*
X170223534Y-21349941D01*
X170223532Y-21349946D01*
X170223531Y-21349949D01*
X170190120Y-21445430D01*
X170112224Y-21668044D01*
X170037231Y-21996613D01*
X170007974Y-22256285D01*
X170000718Y-22320691D01*
X169999500Y-22331498D01*
X169999500Y-22668501D01*
X170037231Y-23003386D01*
X170037233Y-23003394D01*
X170112224Y-23331954D01*
X170223531Y-23650051D01*
X170223533Y-23650055D01*
X170223534Y-23650058D01*
X170369753Y-23953685D01*
X170463167Y-24102351D01*
X170549054Y-24239039D01*
X170759175Y-24502523D01*
X170997477Y-24740825D01*
X171260961Y-24950946D01*
X171553418Y-25134710D01*
X171552704Y-25135845D01*
X171629874Y-25199480D01*
X171683672Y-25295292D01*
X171699500Y-25391284D01*
X171699500Y-31337465D01*
X171679309Y-31445476D01*
X171621464Y-31538900D01*
X171611925Y-31548890D01*
X169008033Y-34152781D01*
X168887713Y-34318387D01*
X168887712Y-34318389D01*
X168870192Y-34352777D01*
X168870190Y-34352781D01*
X168794781Y-34500777D01*
X168794780Y-34500781D01*
X168775897Y-34558896D01*
X168731523Y-34695463D01*
X168706771Y-34851741D01*
X168699500Y-34897644D01*
X168699500Y-37602353D01*
X168731523Y-37804537D01*
X168746706Y-37851265D01*
X168746710Y-37851275D01*
X168749582Y-37860114D01*
X168794780Y-37999219D01*
X168834671Y-38077510D01*
X168887713Y-38181611D01*
X168957917Y-38278240D01*
X169005069Y-38377489D01*
X169013184Y-38487071D01*
X168981165Y-38592185D01*
X168913336Y-38678634D01*
X168818860Y-38734743D01*
X168710494Y-38752934D01*
X168602874Y-38730750D01*
X168510535Y-38671188D01*
X168504595Y-38665410D01*
X149847219Y-20008034D01*
X149827041Y-19993374D01*
X149681611Y-19887713D01*
X149681607Y-19887711D01*
X149681603Y-19887708D01*
X149590415Y-19841246D01*
X149499223Y-19794782D01*
X149499222Y-19794781D01*
X149499219Y-19794780D01*
X149430643Y-19772498D01*
X149401874Y-19763150D01*
X149401874Y-19763149D01*
X149304537Y-19731523D01*
X149102353Y-19699500D01*
X149102352Y-19699500D01*
X116897648Y-19699500D01*
X116897646Y-19699500D01*
X116695464Y-19731523D01*
X116500785Y-19794778D01*
X116500781Y-19794779D01*
X116318392Y-19887711D01*
X116257766Y-19931757D01*
X116257767Y-19931758D01*
X116152783Y-20008032D01*
X116152779Y-20008035D01*
X110008033Y-26152781D01*
X109887712Y-26318389D01*
X109887710Y-26318392D01*
X109859025Y-26374691D01*
X109859015Y-26374711D01*
X109855447Y-26381716D01*
X109794780Y-26500781D01*
X109777493Y-26553985D01*
X109772669Y-26568831D01*
X109772667Y-26568836D01*
X109731523Y-26695462D01*
X109713335Y-26810300D01*
X109699500Y-26897647D01*
X109699500Y-69102353D01*
X109731523Y-69304537D01*
X109763150Y-69401874D01*
X109763151Y-69401876D01*
X109794780Y-69499219D01*
X109794781Y-69499222D01*
X109794782Y-69499223D01*
X109841246Y-69590415D01*
X109887708Y-69681603D01*
X109887711Y-69681607D01*
X109887713Y-69681611D01*
X109929437Y-69739039D01*
X110008034Y-69847219D01*
X113000524Y-72839708D01*
X113000531Y-72839716D01*
X113008034Y-72847219D01*
X113152781Y-72991966D01*
X113284459Y-73087635D01*
X113284460Y-73087636D01*
X113284459Y-73087636D01*
X113318383Y-73112282D01*
X113318390Y-73112287D01*
X113500782Y-73205221D01*
X113500787Y-73205222D01*
X113500787Y-73205223D01*
X113609859Y-73240662D01*
X113687775Y-73265978D01*
X113695466Y-73268477D01*
X113897648Y-73300500D01*
X113897649Y-73300500D01*
X146102351Y-73300500D01*
X146102352Y-73300500D01*
X146304535Y-73268477D01*
X146401876Y-73236848D01*
X146499219Y-73205220D01*
X146602136Y-73152781D01*
X146681611Y-73112287D01*
X146847219Y-72991966D01*
X148875147Y-70964036D01*
X148965796Y-70901941D01*
X149072760Y-70876783D01*
X149159615Y-70887006D01*
X149159866Y-70885909D01*
X149168045Y-70887775D01*
X149168046Y-70887776D01*
X149496606Y-70962767D01*
X149496611Y-70962767D01*
X149496613Y-70962768D01*
X149658665Y-70981026D01*
X149831496Y-71000500D01*
X149831498Y-71000500D01*
X150168502Y-71000500D01*
X150168504Y-71000500D01*
X150492105Y-70964039D01*
X150503386Y-70962768D01*
X150503386Y-70962767D01*
X150503394Y-70962767D01*
X150831954Y-70887776D01*
X151150051Y-70776469D01*
X151453686Y-70630246D01*
X151739039Y-70450946D01*
X152002523Y-70240825D01*
X152240825Y-70002523D01*
X152450946Y-69739039D01*
X152630246Y-69453686D01*
X152776469Y-69150051D01*
X152887776Y-68831954D01*
X152962767Y-68503394D01*
X153000500Y-68168504D01*
X153000500Y-67831496D01*
X152962767Y-67496606D01*
X152887776Y-67168046D01*
X152776469Y-66849949D01*
X152630246Y-66546314D01*
X152450946Y-66260961D01*
X152240825Y-65997477D01*
X152002523Y-65759175D01*
X151739039Y-65549054D01*
X151453686Y-65369754D01*
X151453685Y-65369753D01*
X151446583Y-65365291D01*
X151447291Y-65364163D01*
X151370078Y-65300462D01*
X151316304Y-65204637D01*
X151300500Y-65108715D01*
X151300500Y-52662534D01*
X151320691Y-52554523D01*
X151378536Y-52461099D01*
X151388075Y-52451109D01*
X152051109Y-51788075D01*
X152141762Y-51725977D01*
X152248725Y-51700819D01*
X152262534Y-51700500D01*
X153765935Y-51700500D01*
X153873946Y-51720691D01*
X153967370Y-51778536D01*
X153997664Y-51810549D01*
X154038888Y-51861106D01*
X154038889Y-51861107D01*
X154038891Y-51861109D01*
X154196593Y-51989698D01*
X154376951Y-52083909D01*
X154572582Y-52139886D01*
X154691963Y-52150500D01*
X156308036Y-52150499D01*
X156427418Y-52139886D01*
X156623049Y-52083909D01*
X156803407Y-51989698D01*
X156961109Y-51861109D01*
X157089698Y-51703407D01*
X157183909Y-51523049D01*
X157239886Y-51327418D01*
X157250500Y-51208037D01*
X157250499Y-49591964D01*
X157239886Y-49472582D01*
X157183909Y-49276951D01*
X157089698Y-49096593D01*
X156961109Y-48938891D01*
X156803407Y-48810302D01*
X156623049Y-48716091D01*
X156427418Y-48660114D01*
X156308037Y-48649500D01*
X156308036Y-48649500D01*
X154691973Y-48649500D01*
X154691972Y-48649500D01*
X154691964Y-48649501D01*
X154636599Y-48654422D01*
X154572584Y-48660113D01*
X154480496Y-48686463D01*
X154376951Y-48716091D01*
X154376949Y-48716091D01*
X154376949Y-48716092D01*
X154196596Y-48810300D01*
X154196592Y-48810302D01*
X154038888Y-48938893D01*
X153997664Y-48989451D01*
X153913759Y-49060402D01*
X153809889Y-49096252D01*
X153765935Y-49099500D01*
X151497648Y-49099500D01*
X151389325Y-49116656D01*
X151389325Y-49116657D01*
X151295466Y-49131523D01*
X151295463Y-49131523D01*
X151295462Y-49131524D01*
X151100787Y-49194776D01*
X151100781Y-49194779D01*
X150934602Y-49279452D01*
X150934601Y-49279451D01*
X150918392Y-49287711D01*
X150918389Y-49287713D01*
X150752782Y-49408033D01*
X150752775Y-49408039D01*
X144548890Y-55611925D01*
X144520394Y-55631444D01*
X144494868Y-55654715D01*
X144475431Y-55662244D01*
X144458237Y-55674023D01*
X144424616Y-55681930D01*
X144392406Y-55694409D01*
X144358013Y-55697595D01*
X144351274Y-55699181D01*
X144337465Y-55699500D01*
X144046496Y-55699500D01*
X143938485Y-55679309D01*
X143845061Y-55621464D01*
X143800718Y-55570777D01*
X143795228Y-55562853D01*
X143713819Y-55445346D01*
X143554654Y-55286181D01*
X143369626Y-55157993D01*
X143369624Y-55157992D01*
X143369618Y-55157988D01*
X143164684Y-55064904D01*
X142946408Y-55009903D01*
X142814237Y-54999501D01*
X142814224Y-54999500D01*
X142814217Y-54999500D01*
X142814205Y-54999500D01*
X141185778Y-54999500D01*
X141053598Y-55009902D01*
X141053583Y-55009905D01*
X140835316Y-55064904D01*
X140630381Y-55157988D01*
X140630372Y-55157994D01*
X140445344Y-55286182D01*
X140286182Y-55445344D01*
X140157994Y-55630372D01*
X140157988Y-55630381D01*
X140064904Y-55835315D01*
X140009903Y-56053591D01*
X139999501Y-56185762D01*
X139999500Y-56185794D01*
X139999500Y-57814221D01*
X140009902Y-57946401D01*
X140009905Y-57946416D01*
X140064904Y-58164683D01*
X140157988Y-58369618D01*
X140157992Y-58369624D01*
X140157993Y-58369626D01*
X140286181Y-58554654D01*
X140445346Y-58713819D01*
X140630374Y-58842007D01*
X140630377Y-58842008D01*
X140630381Y-58842011D01*
X140814740Y-58925749D01*
X140835317Y-58935096D01*
X141053588Y-58990096D01*
X141185783Y-59000500D01*
X142814216Y-59000499D01*
X142814221Y-59000499D01*
X142946401Y-58990097D01*
X142946402Y-58990096D01*
X142946412Y-58990096D01*
X143164683Y-58935096D01*
X143314681Y-58866963D01*
X143369618Y-58842011D01*
X143369619Y-58842009D01*
X143369626Y-58842007D01*
X143554654Y-58713819D01*
X143713819Y-58554654D01*
X143800718Y-58429222D01*
X143878826Y-58351936D01*
X143979579Y-58308084D01*
X144046496Y-58300500D01*
X145102351Y-58300500D01*
X145102352Y-58300500D01*
X145304535Y-58268477D01*
X145414395Y-58232781D01*
X145499219Y-58205220D01*
X145618355Y-58144517D01*
X145681611Y-58112287D01*
X145847219Y-57991966D01*
X148189075Y-55650108D01*
X148279728Y-55588011D01*
X148386691Y-55562853D01*
X148495520Y-55578034D01*
X148591515Y-55631503D01*
X148661713Y-55716039D01*
X148696633Y-55820225D01*
X148699500Y-55861534D01*
X148699500Y-65108715D01*
X148679309Y-65216726D01*
X148621464Y-65310150D01*
X148552821Y-65364343D01*
X148553417Y-65365291D01*
X148260965Y-65549051D01*
X147997483Y-65759170D01*
X147997467Y-65759184D01*
X147759184Y-65997467D01*
X147759170Y-65997483D01*
X147549053Y-66260961D01*
X147369753Y-66546314D01*
X147223534Y-66849941D01*
X147223532Y-66849947D01*
X147112224Y-67168044D01*
X147037231Y-67496613D01*
X146999500Y-67831498D01*
X146999500Y-68168501D01*
X147037231Y-68503386D01*
X147114091Y-68840133D01*
X147112788Y-68840430D01*
X147122349Y-68940038D01*
X147092625Y-69045823D01*
X147035960Y-69124853D01*
X145548890Y-70611925D01*
X145458238Y-70674023D01*
X145351274Y-70699181D01*
X145337465Y-70699500D01*
X142265698Y-70699500D01*
X142157687Y-70679309D01*
X142064263Y-70621464D01*
X141998044Y-70533776D01*
X141967973Y-70428088D01*
X141978112Y-70318675D01*
X142027091Y-70220312D01*
X142054273Y-70189075D01*
X142240825Y-70002523D01*
X142450946Y-69739039D01*
X142630246Y-69453686D01*
X142776469Y-69150051D01*
X142887776Y-68831954D01*
X142962767Y-68503394D01*
X143000500Y-68168504D01*
X143000500Y-67831496D01*
X142962767Y-67496606D01*
X142887776Y-67168046D01*
X142776469Y-66849949D01*
X142630246Y-66546314D01*
X142450946Y-66260961D01*
X142240825Y-65997477D01*
X142002523Y-65759175D01*
X141739039Y-65549054D01*
X141739040Y-65549054D01*
X141739038Y-65549053D01*
X141453685Y-65369753D01*
X141150058Y-65223534D01*
X141150055Y-65223533D01*
X141150051Y-65223531D01*
X140943262Y-65151172D01*
X140831955Y-65112224D01*
X140503386Y-65037231D01*
X140225501Y-65005922D01*
X140168504Y-64999500D01*
X139831496Y-64999500D01*
X139778969Y-65005418D01*
X139496613Y-65037231D01*
X139276598Y-65087447D01*
X139168046Y-65112224D01*
X139168044Y-65112224D01*
X139159867Y-65114091D01*
X139159570Y-65112793D01*
X139059924Y-65122345D01*
X138954142Y-65092610D01*
X138875144Y-65035960D01*
X134488075Y-60648890D01*
X134425977Y-60558237D01*
X134400819Y-60451274D01*
X134400500Y-60437465D01*
X134400500Y-58765603D01*
X134420691Y-58657592D01*
X134478536Y-58564168D01*
X134510545Y-58533877D01*
X134661109Y-58411109D01*
X134789698Y-58253407D01*
X134883909Y-58073049D01*
X134939886Y-57877418D01*
X134950500Y-57758037D01*
X134950499Y-55941964D01*
X134939886Y-55822582D01*
X134883909Y-55626951D01*
X134789698Y-55446593D01*
X134661109Y-55288891D01*
X134510547Y-55166124D01*
X134439598Y-55082221D01*
X134403748Y-54978351D01*
X134400500Y-54934396D01*
X134400500Y-47997649D01*
X134400499Y-47997642D01*
X134387814Y-47917552D01*
X134387814Y-47917549D01*
X134368477Y-47795465D01*
X134318141Y-47640548D01*
X134305220Y-47600781D01*
X134218150Y-47429896D01*
X134212287Y-47418389D01*
X134190000Y-47387714D01*
X134091966Y-47252781D01*
X125597219Y-38758034D01*
X125590199Y-38752934D01*
X125431611Y-38637713D01*
X125431607Y-38637711D01*
X125431603Y-38637708D01*
X125324090Y-38582928D01*
X125324084Y-38582925D01*
X125310476Y-38575992D01*
X125249219Y-38544780D01*
X125108994Y-38499218D01*
X125101172Y-38496676D01*
X125101158Y-38496671D01*
X125054536Y-38481523D01*
X124852353Y-38449500D01*
X124852352Y-38449500D01*
X121115604Y-38449500D01*
X121007593Y-38429309D01*
X120914169Y-38371464D01*
X120883874Y-38339451D01*
X120761109Y-38188891D01*
X120603407Y-38060302D01*
X120423049Y-37966091D01*
X120227418Y-37910114D01*
X120108037Y-37899500D01*
X120108036Y-37899500D01*
X118291973Y-37899500D01*
X118291972Y-37899500D01*
X118291964Y-37899501D01*
X118236599Y-37904422D01*
X118172584Y-37910113D01*
X118074766Y-37938102D01*
X117976951Y-37966091D01*
X117976949Y-37966091D01*
X117976949Y-37966092D01*
X117796596Y-38060300D01*
X117796592Y-38060302D01*
X117638891Y-38188891D01*
X117510302Y-38346592D01*
X117510300Y-38346596D01*
X117436398Y-38488075D01*
X117416091Y-38526951D01*
X117369523Y-38689699D01*
X117360114Y-38722583D01*
X117349500Y-38841958D01*
X117349500Y-40658026D01*
X117349501Y-40658036D01*
X117352294Y-40689451D01*
X117360113Y-40777415D01*
X117366432Y-40799500D01*
X117416091Y-40973049D01*
X117510302Y-41153407D01*
X117638891Y-41311109D01*
X117796593Y-41439698D01*
X117976951Y-41533909D01*
X118172582Y-41589886D01*
X118291963Y-41600500D01*
X120108036Y-41600499D01*
X120227418Y-41589886D01*
X120423049Y-41533909D01*
X120603407Y-41439698D01*
X120761109Y-41311109D01*
X120883875Y-41160547D01*
X120967779Y-41089598D01*
X121071649Y-41053748D01*
X121115604Y-41050500D01*
X124087465Y-41050500D01*
X124195476Y-41070691D01*
X124288900Y-41128536D01*
X124298890Y-41138075D01*
X126499890Y-43339075D01*
X126561988Y-43429728D01*
X126587146Y-43536691D01*
X126571965Y-43645520D01*
X126518496Y-43741515D01*
X126433960Y-43811713D01*
X126329774Y-43846633D01*
X126288465Y-43849500D01*
X121115604Y-43849500D01*
X121007593Y-43829309D01*
X120914169Y-43771464D01*
X120883874Y-43739451D01*
X120761109Y-43588891D01*
X120603407Y-43460302D01*
X120423049Y-43366091D01*
X120227418Y-43310114D01*
X120108037Y-43299500D01*
X120108036Y-43299500D01*
X118291973Y-43299500D01*
X118291972Y-43299500D01*
X118291964Y-43299501D01*
X118236599Y-43304422D01*
X118172584Y-43310113D01*
X118079151Y-43336848D01*
X117976951Y-43366091D01*
X117976949Y-43366091D01*
X117976949Y-43366092D01*
X117796596Y-43460300D01*
X117796592Y-43460302D01*
X117638891Y-43588891D01*
X117510302Y-43746592D01*
X117510300Y-43746596D01*
X117445479Y-43870690D01*
X117416091Y-43926951D01*
X117360114Y-44122582D01*
X117360114Y-44122583D01*
X117349500Y-44241958D01*
X117349500Y-46058026D01*
X117349501Y-46058036D01*
X117355038Y-46120321D01*
X117360113Y-46177415D01*
X117360114Y-46177418D01*
X117416091Y-46373049D01*
X117510302Y-46553407D01*
X117638891Y-46711109D01*
X117796593Y-46839698D01*
X117976951Y-46933909D01*
X118172582Y-46989886D01*
X118291963Y-47000500D01*
X120108036Y-47000499D01*
X120227418Y-46989886D01*
X120423049Y-46933909D01*
X120603407Y-46839698D01*
X120761109Y-46711109D01*
X120883875Y-46560547D01*
X120967779Y-46489598D01*
X121071649Y-46453748D01*
X121115604Y-46450500D01*
X129487465Y-46450500D01*
X129595476Y-46470691D01*
X129688900Y-46528536D01*
X129698890Y-46538075D01*
X131711925Y-48551110D01*
X131774023Y-48641763D01*
X131799181Y-48748726D01*
X131799500Y-48762535D01*
X131799500Y-54934396D01*
X131779309Y-55042407D01*
X131721464Y-55135831D01*
X131689454Y-55166122D01*
X131645515Y-55201951D01*
X131538891Y-55288891D01*
X131410302Y-55446592D01*
X131410300Y-55446596D01*
X131323940Y-55611925D01*
X131316091Y-55626951D01*
X131260114Y-55822582D01*
X131260114Y-55822583D01*
X131249500Y-55941958D01*
X131249500Y-57758026D01*
X131249501Y-57758036D01*
X131253267Y-57800397D01*
X131260113Y-57877415D01*
X131260114Y-57877418D01*
X131316091Y-58073049D01*
X131410302Y-58253407D01*
X131538891Y-58411109D01*
X131689451Y-58533875D01*
X131760401Y-58617777D01*
X131796251Y-58721647D01*
X131799500Y-58765603D01*
X131799500Y-61202353D01*
X131831523Y-61404535D01*
X131894778Y-61599216D01*
X131894780Y-61599221D01*
X131936760Y-61681610D01*
X131987713Y-61781611D01*
X132108034Y-61947219D01*
X134621913Y-64461098D01*
X137035960Y-66875144D01*
X137098058Y-66965797D01*
X137123216Y-67072760D01*
X137112999Y-67159617D01*
X137114091Y-67159867D01*
X137037231Y-67496613D01*
X136999500Y-67831498D01*
X136999500Y-68168501D01*
X137037231Y-68503386D01*
X137096571Y-68763376D01*
X137112224Y-68831954D01*
X137223531Y-69150051D01*
X137223533Y-69150055D01*
X137223534Y-69150058D01*
X137369753Y-69453685D01*
X137499738Y-69660553D01*
X137549054Y-69739039D01*
X137759175Y-70002523D01*
X137759184Y-70002532D01*
X137945727Y-70189075D01*
X138007825Y-70279728D01*
X138032983Y-70386691D01*
X138017802Y-70495520D01*
X137964333Y-70591515D01*
X137879797Y-70661713D01*
X137775611Y-70696633D01*
X137734302Y-70699500D01*
X134265698Y-70699500D01*
X134157687Y-70679309D01*
X134064263Y-70621464D01*
X133998044Y-70533776D01*
X133967973Y-70428088D01*
X133978112Y-70318675D01*
X134027091Y-70220312D01*
X134054273Y-70189075D01*
X134240825Y-70002523D01*
X134450946Y-69739039D01*
X134630246Y-69453686D01*
X134776469Y-69150051D01*
X134887776Y-68831954D01*
X134962767Y-68503394D01*
X135000500Y-68168504D01*
X135000500Y-67831496D01*
X134962767Y-67496606D01*
X134887776Y-67168046D01*
X134776469Y-66849949D01*
X134630246Y-66546314D01*
X134450946Y-66260961D01*
X134240825Y-65997477D01*
X134002523Y-65759175D01*
X133739039Y-65549054D01*
X133739040Y-65549054D01*
X133739038Y-65549053D01*
X133453685Y-65369753D01*
X133150058Y-65223534D01*
X133150055Y-65223533D01*
X133150051Y-65223531D01*
X132943262Y-65151172D01*
X132831955Y-65112224D01*
X132503386Y-65037231D01*
X132225501Y-65005922D01*
X132168504Y-64999500D01*
X131831496Y-64999500D01*
X131778969Y-65005418D01*
X131496613Y-65037231D01*
X131276598Y-65087447D01*
X131168046Y-65112224D01*
X131168044Y-65112224D01*
X131159867Y-65114091D01*
X131159570Y-65112791D01*
X131059937Y-65122346D01*
X130954154Y-65092615D01*
X130875145Y-65035960D01*
X129088075Y-63248890D01*
X129025977Y-63158237D01*
X129000819Y-63051274D01*
X129000500Y-63037465D01*
X129000500Y-58765603D01*
X129020691Y-58657592D01*
X129078536Y-58564168D01*
X129110545Y-58533877D01*
X129261109Y-58411109D01*
X129389698Y-58253407D01*
X129483909Y-58073049D01*
X129539886Y-57877418D01*
X129550500Y-57758037D01*
X129550499Y-55941964D01*
X129539886Y-55822582D01*
X129483909Y-55626951D01*
X129389698Y-55446593D01*
X129261109Y-55288891D01*
X129103407Y-55160302D01*
X128923049Y-55066091D01*
X128727418Y-55010114D01*
X128608037Y-54999500D01*
X128608036Y-54999500D01*
X126791973Y-54999500D01*
X126791972Y-54999500D01*
X126791964Y-54999501D01*
X126736599Y-55004422D01*
X126672584Y-55010113D01*
X126476947Y-55066092D01*
X126462864Y-55071718D01*
X126461509Y-55068327D01*
X126383264Y-55092213D01*
X126273677Y-55084164D01*
X126237727Y-55070236D01*
X126237136Y-55071718D01*
X126223052Y-55066092D01*
X126223049Y-55066091D01*
X126027418Y-55010114D01*
X125908037Y-54999500D01*
X125908036Y-54999500D01*
X124091973Y-54999500D01*
X124091972Y-54999500D01*
X124091964Y-54999501D01*
X124036599Y-55004422D01*
X123972584Y-55010113D01*
X123776947Y-55066092D01*
X123762864Y-55071718D01*
X123761509Y-55068327D01*
X123683264Y-55092213D01*
X123573677Y-55084164D01*
X123537727Y-55070236D01*
X123537136Y-55071718D01*
X123523052Y-55066092D01*
X123523049Y-55066091D01*
X123327418Y-55010114D01*
X123208037Y-54999500D01*
X123208036Y-54999500D01*
X121391973Y-54999500D01*
X121391972Y-54999500D01*
X121391964Y-54999501D01*
X121336599Y-55004422D01*
X121272584Y-55010113D01*
X121174766Y-55038102D01*
X121076951Y-55066091D01*
X121076949Y-55066091D01*
X121076949Y-55066092D01*
X120896596Y-55160300D01*
X120896592Y-55160302D01*
X120738891Y-55288891D01*
X120610302Y-55446592D01*
X120610300Y-55446596D01*
X120523940Y-55611925D01*
X120516091Y-55626951D01*
X120460114Y-55822582D01*
X120460114Y-55822583D01*
X120449500Y-55941958D01*
X120449500Y-57758026D01*
X120449501Y-57758036D01*
X120453267Y-57800397D01*
X120460113Y-57877415D01*
X120460114Y-57877418D01*
X120516091Y-58073049D01*
X120610302Y-58253407D01*
X120738891Y-58411109D01*
X120889451Y-58533875D01*
X120960401Y-58617777D01*
X120996251Y-58721647D01*
X120999500Y-58765603D01*
X120999500Y-61037464D01*
X120979309Y-61145475D01*
X120921464Y-61238899D01*
X120911925Y-61248889D01*
X117124853Y-65035960D01*
X117034200Y-65098058D01*
X116927237Y-65123216D01*
X116840383Y-65112994D01*
X116840133Y-65114091D01*
X116831955Y-65112224D01*
X116831954Y-65112224D01*
X116654648Y-65071755D01*
X116503386Y-65037231D01*
X116225501Y-65005922D01*
X116168504Y-64999500D01*
X115831496Y-64999500D01*
X115778969Y-65005418D01*
X115496613Y-65037231D01*
X115168044Y-65112224D01*
X115007564Y-65168379D01*
X114849949Y-65223531D01*
X114849947Y-65223532D01*
X114849941Y-65223534D01*
X114546314Y-65369753D01*
X114260961Y-65549053D01*
X113997483Y-65759170D01*
X113997467Y-65759184D01*
X113759184Y-65997467D01*
X113759170Y-65997483D01*
X113549053Y-66260961D01*
X113369753Y-66546314D01*
X113223534Y-66849941D01*
X113223532Y-66849947D01*
X113112224Y-67168044D01*
X113037231Y-67496613D01*
X112999500Y-67831498D01*
X112999500Y-68168502D01*
X113029767Y-68437135D01*
X113021796Y-68546728D01*
X112974774Y-68646041D01*
X112895052Y-68721661D01*
X112793396Y-68763376D01*
X112683535Y-68765551D01*
X112580307Y-68727893D01*
X112521222Y-68682037D01*
X112388075Y-68548890D01*
X112325977Y-68458237D01*
X112300819Y-68351274D01*
X112300500Y-68337465D01*
X112300500Y-33441958D01*
X117349500Y-33441958D01*
X117349500Y-35258026D01*
X117349501Y-35258036D01*
X117349847Y-35261925D01*
X117360113Y-35377415D01*
X117360114Y-35377418D01*
X117416091Y-35573049D01*
X117510302Y-35753407D01*
X117638891Y-35911109D01*
X117796593Y-36039698D01*
X117976951Y-36133909D01*
X118172582Y-36189886D01*
X118291963Y-36200500D01*
X120108036Y-36200499D01*
X120227418Y-36189886D01*
X120423049Y-36133909D01*
X120603407Y-36039698D01*
X120761109Y-35911109D01*
X120883875Y-35760547D01*
X120967779Y-35689598D01*
X121071649Y-35653748D01*
X121115604Y-35650500D01*
X141687465Y-35650500D01*
X141795476Y-35670691D01*
X141888900Y-35728536D01*
X141898890Y-35738075D01*
X149252781Y-43091966D01*
X149418389Y-43212287D01*
X149481645Y-43244517D01*
X149600781Y-43305220D01*
X149698123Y-43336848D01*
X149795462Y-43368476D01*
X149795463Y-43368476D01*
X149795465Y-43368477D01*
X149997648Y-43400500D01*
X150202352Y-43400500D01*
X153765935Y-43400500D01*
X153873946Y-43420691D01*
X153967370Y-43478536D01*
X153997664Y-43510549D01*
X154038888Y-43561106D01*
X154038889Y-43561107D01*
X154038891Y-43561109D01*
X154196593Y-43689698D01*
X154376951Y-43783909D01*
X154572582Y-43839886D01*
X154691963Y-43850500D01*
X155287464Y-43850499D01*
X155395475Y-43870690D01*
X155488899Y-43928535D01*
X155498889Y-43938074D01*
X164611925Y-53051110D01*
X164674023Y-53141763D01*
X164699181Y-53248726D01*
X164699500Y-53262535D01*
X164699500Y-65108715D01*
X164679309Y-65216726D01*
X164621464Y-65310150D01*
X164552821Y-65364343D01*
X164553417Y-65365291D01*
X164260965Y-65549051D01*
X163997483Y-65759170D01*
X163997467Y-65759184D01*
X163759184Y-65997467D01*
X163759170Y-65997483D01*
X163549053Y-66260961D01*
X163369753Y-66546314D01*
X163223534Y-66849941D01*
X163223532Y-66849947D01*
X163112224Y-67168044D01*
X163037231Y-67496613D01*
X162999500Y-67831498D01*
X162999500Y-68168501D01*
X163037231Y-68503386D01*
X163096571Y-68763376D01*
X163112224Y-68831954D01*
X163223531Y-69150051D01*
X163223533Y-69150055D01*
X163223534Y-69150058D01*
X163369753Y-69453685D01*
X163499738Y-69660553D01*
X163549054Y-69739039D01*
X163759175Y-70002523D01*
X163997477Y-70240825D01*
X164260961Y-70450946D01*
X164546314Y-70630246D01*
X164849949Y-70776469D01*
X165168046Y-70887776D01*
X165496606Y-70962767D01*
X165496611Y-70962767D01*
X165496613Y-70962768D01*
X165658665Y-70981026D01*
X165831496Y-71000500D01*
X165831498Y-71000500D01*
X166168502Y-71000500D01*
X166168504Y-71000500D01*
X166492105Y-70964039D01*
X166503386Y-70962768D01*
X166503386Y-70962767D01*
X166503394Y-70962767D01*
X166831954Y-70887776D01*
X167150051Y-70776469D01*
X167453686Y-70630246D01*
X167739039Y-70450946D01*
X168002523Y-70240825D01*
X168240825Y-70002523D01*
X168450946Y-69739039D01*
X168630246Y-69453686D01*
X168776469Y-69150051D01*
X168887776Y-68831954D01*
X168962767Y-68503394D01*
X169000500Y-68168504D01*
X169000500Y-67831496D01*
X168962767Y-67496606D01*
X168887776Y-67168046D01*
X168776469Y-66849949D01*
X168630246Y-66546314D01*
X168450946Y-66260961D01*
X168240825Y-65997477D01*
X168002523Y-65759175D01*
X167739039Y-65549054D01*
X167453686Y-65369754D01*
X167453685Y-65369753D01*
X167446583Y-65365291D01*
X167447291Y-65364163D01*
X167370078Y-65300462D01*
X167316304Y-65204637D01*
X167300500Y-65108715D01*
X167300500Y-52497648D01*
X167268477Y-52295466D01*
X167205220Y-52100781D01*
X167112287Y-51918390D01*
X166991966Y-51752781D01*
X166847219Y-51608034D01*
X157338074Y-42098889D01*
X157275976Y-42008236D01*
X157250818Y-41901273D01*
X157250499Y-41887464D01*
X157250499Y-41291973D01*
X157250499Y-41291964D01*
X157239886Y-41172582D01*
X157183909Y-40976951D01*
X157089698Y-40796593D01*
X156961109Y-40638891D01*
X156803407Y-40510302D01*
X156623049Y-40416091D01*
X156427418Y-40360114D01*
X156308037Y-40349500D01*
X156308036Y-40349500D01*
X154691973Y-40349500D01*
X154691972Y-40349500D01*
X154691964Y-40349501D01*
X154636599Y-40354422D01*
X154572584Y-40360113D01*
X154474766Y-40388102D01*
X154376951Y-40416091D01*
X154376949Y-40416091D01*
X154376949Y-40416092D01*
X154196596Y-40510300D01*
X154196592Y-40510302D01*
X154038888Y-40638893D01*
X153997664Y-40689451D01*
X153913759Y-40760402D01*
X153809889Y-40796252D01*
X153765935Y-40799500D01*
X150762535Y-40799500D01*
X150654524Y-40779309D01*
X150561100Y-40721464D01*
X150551110Y-40711925D01*
X143197219Y-33358034D01*
X143031611Y-33237713D01*
X143031607Y-33237711D01*
X143031603Y-33237708D01*
X142951002Y-33196640D01*
X142950993Y-33196636D01*
X142940414Y-33191246D01*
X142849219Y-33144780D01*
X142749216Y-33112287D01*
X142738170Y-33108697D01*
X142738163Y-33108695D01*
X142654536Y-33081523D01*
X142452353Y-33049500D01*
X142452352Y-33049500D01*
X121115604Y-33049500D01*
X121007593Y-33029309D01*
X120914169Y-32971464D01*
X120883874Y-32939451D01*
X120761109Y-32788891D01*
X120603407Y-32660302D01*
X120423049Y-32566091D01*
X120227418Y-32510114D01*
X120108037Y-32499500D01*
X120108036Y-32499500D01*
X118291973Y-32499500D01*
X118291972Y-32499500D01*
X118291964Y-32499501D01*
X118236599Y-32504422D01*
X118172584Y-32510113D01*
X118074766Y-32538102D01*
X117976951Y-32566091D01*
X117976949Y-32566091D01*
X117976949Y-32566092D01*
X117796596Y-32660300D01*
X117796592Y-32660302D01*
X117638891Y-32788891D01*
X117510302Y-32946592D01*
X117510300Y-32946596D01*
X117425627Y-33108695D01*
X117416091Y-33126951D01*
X117384398Y-33237713D01*
X117360114Y-33322583D01*
X117349500Y-33441958D01*
X112300500Y-33441958D01*
X112300500Y-28041958D01*
X117349500Y-28041958D01*
X117349500Y-29858026D01*
X117349501Y-29858036D01*
X117355038Y-29920321D01*
X117360113Y-29977415D01*
X117360114Y-29977418D01*
X117416091Y-30173049D01*
X117510302Y-30353407D01*
X117638891Y-30511109D01*
X117796593Y-30639698D01*
X117976951Y-30733909D01*
X118172582Y-30789886D01*
X118291963Y-30800500D01*
X120108036Y-30800499D01*
X120227418Y-30789886D01*
X120423049Y-30733909D01*
X120603407Y-30639698D01*
X120761109Y-30511109D01*
X120883875Y-30360547D01*
X120967779Y-30289598D01*
X121071649Y-30253748D01*
X121115604Y-30250500D01*
X146687465Y-30250500D01*
X146795476Y-30270691D01*
X146888900Y-30328536D01*
X146898890Y-30338075D01*
X153661925Y-37101109D01*
X153724023Y-37191762D01*
X153749181Y-37298725D01*
X153749500Y-37312534D01*
X153749500Y-37908026D01*
X153749501Y-37908036D01*
X153753921Y-37957757D01*
X153760113Y-38027415D01*
X153760114Y-38027418D01*
X153816091Y-38223049D01*
X153910302Y-38403407D01*
X154038891Y-38561109D01*
X154196593Y-38689698D01*
X154376951Y-38783909D01*
X154572582Y-38839886D01*
X154691963Y-38850500D01*
X156308036Y-38850499D01*
X156427418Y-38839886D01*
X156623049Y-38783909D01*
X156803407Y-38689698D01*
X156961109Y-38561109D01*
X156976307Y-38542469D01*
X157002336Y-38510549D01*
X157086241Y-38439598D01*
X157190111Y-38403748D01*
X157234065Y-38400500D01*
X158437465Y-38400500D01*
X158545476Y-38420691D01*
X158638900Y-38478536D01*
X158648890Y-38488075D01*
X168611925Y-48451109D01*
X168674023Y-48541762D01*
X168699181Y-48648725D01*
X168699500Y-48662534D01*
X168699500Y-64102353D01*
X168731523Y-64304537D01*
X168748661Y-64357281D01*
X168756567Y-64381611D01*
X168794780Y-64499219D01*
X168800114Y-64509687D01*
X168841246Y-64590415D01*
X168887708Y-64681603D01*
X168887711Y-64681607D01*
X168887713Y-64681611D01*
X169008033Y-64847217D01*
X169008034Y-64847219D01*
X171035960Y-66875145D01*
X171098058Y-66965798D01*
X171123216Y-67072761D01*
X171112998Y-67159617D01*
X171114091Y-67159867D01*
X171037231Y-67496613D01*
X170999500Y-67831498D01*
X170999500Y-68168501D01*
X171037231Y-68503386D01*
X171096571Y-68763376D01*
X171112224Y-68831954D01*
X171223531Y-69150051D01*
X171223533Y-69150055D01*
X171223534Y-69150058D01*
X171369753Y-69453685D01*
X171499738Y-69660553D01*
X171549054Y-69739039D01*
X171759175Y-70002523D01*
X171997477Y-70240825D01*
X172260961Y-70450946D01*
X172546314Y-70630246D01*
X172849949Y-70776469D01*
X173168046Y-70887776D01*
X173496606Y-70962767D01*
X173496611Y-70962767D01*
X173496613Y-70962768D01*
X173658665Y-70981026D01*
X173831496Y-71000500D01*
X173831498Y-71000500D01*
X174168502Y-71000500D01*
X174168504Y-71000500D01*
X174492105Y-70964039D01*
X174503386Y-70962768D01*
X174503386Y-70962767D01*
X174503394Y-70962767D01*
X174831954Y-70887776D01*
X175150051Y-70776469D01*
X175453686Y-70630246D01*
X175739039Y-70450946D01*
X176002523Y-70240825D01*
X176240825Y-70002523D01*
X176450946Y-69739039D01*
X176630246Y-69453686D01*
X176776469Y-69150051D01*
X176887776Y-68831954D01*
X176962767Y-68503394D01*
X177000500Y-68168504D01*
X177000500Y-67831496D01*
X176962767Y-67496606D01*
X176887776Y-67168046D01*
X176776469Y-66849949D01*
X176630246Y-66546314D01*
X176450946Y-66260961D01*
X176240825Y-65997477D01*
X176002523Y-65759175D01*
X175739039Y-65549054D01*
X175739040Y-65549054D01*
X175739038Y-65549053D01*
X175453685Y-65369753D01*
X175150058Y-65223534D01*
X175150055Y-65223533D01*
X175150051Y-65223531D01*
X174943262Y-65151172D01*
X174831955Y-65112224D01*
X174503386Y-65037231D01*
X174225501Y-65005922D01*
X174168504Y-64999500D01*
X173831496Y-64999500D01*
X173778969Y-65005418D01*
X173496613Y-65037231D01*
X173276598Y-65087447D01*
X173168046Y-65112224D01*
X173168044Y-65112224D01*
X173159867Y-65114091D01*
X173159570Y-65112791D01*
X173059937Y-65122346D01*
X172954154Y-65092615D01*
X172875145Y-65035960D01*
X171388075Y-63548890D01*
X171325977Y-63458237D01*
X171300819Y-63351274D01*
X171300500Y-63337465D01*
X171300500Y-49591958D01*
X172549500Y-49591958D01*
X172549500Y-51208026D01*
X172549501Y-51208036D01*
X172555038Y-51270321D01*
X172560113Y-51327415D01*
X172564356Y-51342242D01*
X172613010Y-51512283D01*
X172616092Y-51523052D01*
X172621718Y-51537136D01*
X172618327Y-51538490D01*
X172642213Y-51616736D01*
X172634164Y-51726323D01*
X172620236Y-51762272D01*
X172621718Y-51762864D01*
X172616092Y-51776947D01*
X172612908Y-51788075D01*
X172560114Y-51972582D01*
X172559934Y-51974612D01*
X172549500Y-52091958D01*
X172549500Y-53708026D01*
X172549501Y-53708036D01*
X172552568Y-53742535D01*
X172560113Y-53827415D01*
X172560114Y-53827418D01*
X172616091Y-54023049D01*
X172710302Y-54203407D01*
X172838891Y-54361109D01*
X172996593Y-54489698D01*
X173176951Y-54583909D01*
X173372582Y-54639886D01*
X173491963Y-54650500D01*
X175108036Y-54650499D01*
X175227418Y-54639886D01*
X175423049Y-54583909D01*
X175603407Y-54489698D01*
X175761109Y-54361109D01*
X175776307Y-54342469D01*
X175802336Y-54310549D01*
X175886241Y-54239598D01*
X175990111Y-54203748D01*
X176034065Y-54200500D01*
X192157465Y-54200500D01*
X192265476Y-54220691D01*
X192358900Y-54278536D01*
X192368890Y-54288075D01*
X194035703Y-55954888D01*
X194097801Y-56045541D01*
X194120720Y-56127284D01*
X194150307Y-56352014D01*
X194211395Y-56579995D01*
X194301717Y-56798051D01*
X194419727Y-57002450D01*
X194557713Y-57182277D01*
X194564545Y-57195737D01*
X194574715Y-57206893D01*
X194589244Y-57244397D01*
X194607447Y-57280259D01*
X194609980Y-57297923D01*
X194614409Y-57309355D01*
X194619500Y-57364296D01*
X194619500Y-57417465D01*
X194599309Y-57525476D01*
X194541464Y-57618900D01*
X194531925Y-57628890D01*
X187248890Y-64911925D01*
X187158237Y-64974023D01*
X187051274Y-64999181D01*
X187037465Y-64999500D01*
X186831496Y-64999500D01*
X186778969Y-65005418D01*
X186496613Y-65037231D01*
X186168044Y-65112224D01*
X186007564Y-65168379D01*
X185849949Y-65223531D01*
X185849947Y-65223532D01*
X185849941Y-65223534D01*
X185546314Y-65369753D01*
X185260961Y-65549053D01*
X184997483Y-65759170D01*
X184997467Y-65759184D01*
X184759184Y-65997467D01*
X184759170Y-65997483D01*
X184549053Y-66260961D01*
X184369753Y-66546314D01*
X184223534Y-66849941D01*
X184223532Y-66849947D01*
X184112224Y-67168044D01*
X184037231Y-67496613D01*
X183999500Y-67831498D01*
X183999500Y-68168501D01*
X184037231Y-68503386D01*
X184096571Y-68763376D01*
X184112224Y-68831954D01*
X184223531Y-69150051D01*
X184223533Y-69150055D01*
X184223534Y-69150058D01*
X184369753Y-69453685D01*
X184499738Y-69660553D01*
X184549054Y-69739039D01*
X184759175Y-70002523D01*
X184997477Y-70240825D01*
X185260961Y-70450946D01*
X185546314Y-70630246D01*
X185849949Y-70776469D01*
X186168046Y-70887776D01*
X186496606Y-70962767D01*
X186496611Y-70962767D01*
X186496613Y-70962768D01*
X186658665Y-70981026D01*
X186831496Y-71000500D01*
X186831498Y-71000500D01*
X187168502Y-71000500D01*
X187168504Y-71000500D01*
X187492105Y-70964039D01*
X187503386Y-70962768D01*
X187503386Y-70962767D01*
X187503394Y-70962767D01*
X187831954Y-70887776D01*
X188150051Y-70776469D01*
X188453686Y-70630246D01*
X188739039Y-70450946D01*
X189002523Y-70240825D01*
X189240825Y-70002523D01*
X189450946Y-69739039D01*
X189630246Y-69453686D01*
X189776469Y-69150051D01*
X189887776Y-68831954D01*
X189962767Y-68503394D01*
X190000500Y-68168504D01*
X190000500Y-67831496D01*
X189962767Y-67496606D01*
X189887776Y-67168046D01*
X189776469Y-66849949D01*
X189630246Y-66546314D01*
X189626918Y-66541018D01*
X189586550Y-66438824D01*
X189585825Y-66328944D01*
X189624841Y-66226222D01*
X189668661Y-66170522D01*
X196911966Y-58927219D01*
X197032287Y-58761611D01*
X197110105Y-58608884D01*
X197125220Y-58579219D01*
X197183975Y-58398390D01*
X197183976Y-58398390D01*
X197183977Y-58398383D01*
X197188477Y-58384535D01*
X197220500Y-58182352D01*
X197220500Y-57977648D01*
X197220500Y-57364296D01*
X197240691Y-57256285D01*
X197282287Y-57182277D01*
X197373857Y-57062940D01*
X197420273Y-57002450D01*
X197538284Y-56798049D01*
X197628606Y-56579993D01*
X197689693Y-56352014D01*
X197720500Y-56118011D01*
X197720500Y-55881989D01*
X197689693Y-55647986D01*
X197628606Y-55420007D01*
X197538284Y-55201951D01*
X197420273Y-54997550D01*
X197335992Y-54887713D01*
X197276597Y-54810307D01*
X197276594Y-54810304D01*
X197276592Y-54810301D01*
X197109699Y-54643408D01*
X197109696Y-54643405D01*
X197109692Y-54643402D01*
X196922450Y-54499727D01*
X196718051Y-54381717D01*
X196499995Y-54291395D01*
X196499996Y-54291395D01*
X196499993Y-54291394D01*
X196272014Y-54230307D01*
X196047284Y-54200720D01*
X195942832Y-54166603D01*
X195874888Y-54115703D01*
X193970110Y-52210925D01*
X193908012Y-52120272D01*
X193882854Y-52013309D01*
X193898035Y-51904480D01*
X193951504Y-51808485D01*
X194036040Y-51738287D01*
X194140226Y-51703367D01*
X194181535Y-51700500D01*
X194622351Y-51700500D01*
X194622352Y-51700500D01*
X194824535Y-51668477D01*
X194938267Y-51631523D01*
X195019219Y-51605220D01*
X195138355Y-51544517D01*
X195201611Y-51512287D01*
X195367219Y-51391966D01*
X195708575Y-51050610D01*
X195799228Y-50988512D01*
X195906191Y-50963354D01*
X196015020Y-50978535D01*
X196111015Y-51032004D01*
X196131425Y-51050610D01*
X198611925Y-53531110D01*
X198674023Y-53621763D01*
X198699181Y-53728726D01*
X198699500Y-53742535D01*
X198699500Y-63337464D01*
X198679309Y-63445475D01*
X198621464Y-63538899D01*
X198611925Y-63548889D01*
X197124853Y-65035960D01*
X197034200Y-65098058D01*
X196927237Y-65123216D01*
X196840383Y-65112994D01*
X196840133Y-65114091D01*
X196831955Y-65112224D01*
X196831954Y-65112224D01*
X196654648Y-65071755D01*
X196503386Y-65037231D01*
X196225501Y-65005922D01*
X196168504Y-64999500D01*
X195831496Y-64999500D01*
X195778969Y-65005418D01*
X195496613Y-65037231D01*
X195168044Y-65112224D01*
X195007564Y-65168379D01*
X194849949Y-65223531D01*
X194849947Y-65223532D01*
X194849941Y-65223534D01*
X194546314Y-65369753D01*
X194260961Y-65549053D01*
X193997483Y-65759170D01*
X193997467Y-65759184D01*
X193759184Y-65997467D01*
X193759170Y-65997483D01*
X193549053Y-66260961D01*
X193369753Y-66546314D01*
X193223534Y-66849941D01*
X193223532Y-66849947D01*
X193112224Y-67168044D01*
X193037231Y-67496613D01*
X192999500Y-67831498D01*
X192999500Y-68168501D01*
X193037231Y-68503386D01*
X193096571Y-68763376D01*
X193112224Y-68831954D01*
X193223531Y-69150051D01*
X193223533Y-69150055D01*
X193223534Y-69150058D01*
X193369753Y-69453685D01*
X193499738Y-69660553D01*
X193549054Y-69739039D01*
X193759175Y-70002523D01*
X193997477Y-70240825D01*
X194260961Y-70450946D01*
X194546314Y-70630246D01*
X194849949Y-70776469D01*
X195168046Y-70887776D01*
X195496606Y-70962767D01*
X195496611Y-70962767D01*
X195496613Y-70962768D01*
X195658665Y-70981026D01*
X195831496Y-71000500D01*
X195831498Y-71000500D01*
X196168502Y-71000500D01*
X196168504Y-71000500D01*
X196492105Y-70964039D01*
X196503386Y-70962768D01*
X196503386Y-70962767D01*
X196503394Y-70962767D01*
X196831954Y-70887776D01*
X197150051Y-70776469D01*
X197453686Y-70630246D01*
X197739039Y-70450946D01*
X198002523Y-70240825D01*
X198240825Y-70002523D01*
X198450946Y-69739039D01*
X198630246Y-69453686D01*
X198776469Y-69150051D01*
X198887776Y-68831954D01*
X198962767Y-68503394D01*
X199000500Y-68168504D01*
X199000500Y-67831496D01*
X198962767Y-67496606D01*
X198887776Y-67168046D01*
X198887775Y-67168045D01*
X198885909Y-67159866D01*
X198887213Y-67159568D01*
X198877649Y-67059977D01*
X198907366Y-66954189D01*
X198964036Y-66875147D01*
X200991966Y-64847219D01*
X201112287Y-64681611D01*
X201158753Y-64590414D01*
X201205220Y-64499219D01*
X201243433Y-64381611D01*
X201268477Y-64304535D01*
X201300500Y-64102352D01*
X201300500Y-63897649D01*
X201300500Y-63897648D01*
X201300500Y-55881986D01*
X204279500Y-55881986D01*
X204279500Y-56118013D01*
X204310307Y-56352013D01*
X204371395Y-56579995D01*
X204461717Y-56798051D01*
X204579727Y-57002450D01*
X204723402Y-57189692D01*
X204723405Y-57189696D01*
X204723408Y-57189699D01*
X204890301Y-57356592D01*
X204890304Y-57356594D01*
X204890307Y-57356597D01*
X204945770Y-57399155D01*
X205077550Y-57500273D01*
X205281951Y-57618284D01*
X205500007Y-57708606D01*
X205727986Y-57769693D01*
X205727988Y-57769693D01*
X205727991Y-57769694D01*
X205728000Y-57769695D01*
X205860581Y-57787149D01*
X205965034Y-57821264D01*
X206032982Y-57872166D01*
X208008031Y-59847215D01*
X208008034Y-59847219D01*
X208152781Y-59991966D01*
X208312536Y-60108034D01*
X208318390Y-60112287D01*
X208319916Y-60113064D01*
X208319918Y-60113066D01*
X208405423Y-60156633D01*
X208500782Y-60205221D01*
X208500784Y-60205221D01*
X208500787Y-60205223D01*
X208683194Y-60264489D01*
X208695466Y-60268477D01*
X208897648Y-60300500D01*
X208897649Y-60300500D01*
X209102352Y-60300500D01*
X209847517Y-60300500D01*
X209955528Y-60320691D01*
X210048952Y-60378536D01*
X210058942Y-60388075D01*
X210178149Y-60507282D01*
X210386197Y-60666924D01*
X210386203Y-60666927D01*
X210386207Y-60666930D01*
X210613296Y-60798039D01*
X210613303Y-60798043D01*
X210855581Y-60898398D01*
X211108884Y-60966270D01*
X211290037Y-60990119D01*
X211368878Y-61000500D01*
X211368880Y-61000500D01*
X211631122Y-61000500D01*
X211699582Y-60991486D01*
X211891116Y-60966270D01*
X212144419Y-60898398D01*
X212386697Y-60798043D01*
X212613803Y-60666924D01*
X212821851Y-60507282D01*
X213007282Y-60321851D01*
X213166924Y-60113803D01*
X213298043Y-59886697D01*
X213398398Y-59644419D01*
X213466270Y-59391116D01*
X213500500Y-59131120D01*
X213500500Y-58868880D01*
X213466270Y-58608884D01*
X213398398Y-58355581D01*
X213298043Y-58113303D01*
X213274803Y-58073050D01*
X213166930Y-57886207D01*
X213166928Y-57886204D01*
X213166924Y-57886197D01*
X213160185Y-57877415D01*
X213086603Y-57781521D01*
X213036867Y-57683539D01*
X213025886Y-57574207D01*
X213055141Y-57468291D01*
X213120682Y-57380095D01*
X213213657Y-57321531D01*
X213321510Y-57300509D01*
X213323814Y-57300500D01*
X232257465Y-57300500D01*
X232365476Y-57320691D01*
X232458900Y-57378536D01*
X232468890Y-57388075D01*
X234115703Y-59034887D01*
X234177801Y-59125540D01*
X234200720Y-59207283D01*
X234219775Y-59352014D01*
X234230307Y-59432014D01*
X234291394Y-59659993D01*
X234307759Y-59699500D01*
X234381717Y-59878051D01*
X234499727Y-60082450D01*
X234643402Y-60269692D01*
X234643405Y-60269696D01*
X234643408Y-60269699D01*
X234810301Y-60436592D01*
X234810304Y-60436594D01*
X234810307Y-60436597D01*
X234893292Y-60500273D01*
X234997550Y-60580273D01*
X235201951Y-60698284D01*
X235420007Y-60788606D01*
X235647986Y-60849693D01*
X235833215Y-60874078D01*
X235881987Y-60880500D01*
X235881989Y-60880500D01*
X236118013Y-60880500D01*
X236162181Y-60874684D01*
X236352014Y-60849693D01*
X236579993Y-60788606D01*
X236798049Y-60698284D01*
X237002450Y-60580273D01*
X237189699Y-60436592D01*
X237238216Y-60388075D01*
X237328869Y-60325977D01*
X237435832Y-60300819D01*
X237449641Y-60300500D01*
X238555704Y-60300500D01*
X238663715Y-60320691D01*
X238737722Y-60362286D01*
X238917550Y-60500273D01*
X239121951Y-60618284D01*
X239340007Y-60708606D01*
X239567986Y-60769693D01*
X239753215Y-60794078D01*
X239801987Y-60800500D01*
X239801989Y-60800500D01*
X240038013Y-60800500D01*
X240082181Y-60794684D01*
X240272014Y-60769693D01*
X240499993Y-60708606D01*
X240718049Y-60618284D01*
X240922450Y-60500273D01*
X241109699Y-60356592D01*
X241276592Y-60189699D01*
X241420273Y-60002450D01*
X241538284Y-59798049D01*
X241628606Y-59579993D01*
X241689693Y-59352014D01*
X241719509Y-59125540D01*
X241720500Y-59118013D01*
X241720500Y-58881986D01*
X241711777Y-58815733D01*
X241689693Y-58647986D01*
X241628606Y-58420007D01*
X241538284Y-58201951D01*
X241420273Y-57997550D01*
X241324063Y-57872166D01*
X241276597Y-57810307D01*
X241276594Y-57810304D01*
X241276592Y-57810301D01*
X241109699Y-57643408D01*
X241109696Y-57643405D01*
X241109692Y-57643402D01*
X240922450Y-57499727D01*
X240718051Y-57381717D01*
X240714136Y-57380095D01*
X240499993Y-57291394D01*
X240272014Y-57230307D01*
X240194013Y-57220038D01*
X240038013Y-57199500D01*
X240038011Y-57199500D01*
X239801989Y-57199500D01*
X239801987Y-57199500D01*
X239567986Y-57230307D01*
X239340007Y-57291394D01*
X239340005Y-57291394D01*
X239340004Y-57291395D01*
X239121948Y-57381717D01*
X238917549Y-57499727D01*
X238737723Y-57637713D01*
X238639741Y-57687447D01*
X238555704Y-57699500D01*
X237260038Y-57699500D01*
X237152027Y-57679309D01*
X237078019Y-57637713D01*
X237002450Y-57579727D01*
X236798051Y-57461717D01*
X236682211Y-57413734D01*
X236579993Y-57371394D01*
X236352014Y-57310307D01*
X236344783Y-57309355D01*
X236127283Y-57280720D01*
X236022832Y-57246603D01*
X235954887Y-57195703D01*
X234886468Y-56127284D01*
X233767219Y-55008034D01*
X233601611Y-54887713D01*
X233601607Y-54887711D01*
X233601603Y-54887708D01*
X233510416Y-54841246D01*
X233510416Y-54841247D01*
X233507450Y-54839735D01*
X233419219Y-54794780D01*
X233419215Y-54794779D01*
X233419212Y-54794777D01*
X233317136Y-54761611D01*
X233224536Y-54731523D01*
X233022353Y-54699500D01*
X233022352Y-54699500D01*
X207444296Y-54699500D01*
X207336285Y-54679309D01*
X207262277Y-54637713D01*
X207082450Y-54499727D01*
X206878051Y-54381717D01*
X206659995Y-54291395D01*
X206659996Y-54291395D01*
X206659993Y-54291394D01*
X206432014Y-54230307D01*
X206354013Y-54220038D01*
X206198013Y-54199500D01*
X206198011Y-54199500D01*
X205961989Y-54199500D01*
X205961987Y-54199500D01*
X205727986Y-54230307D01*
X205500007Y-54291394D01*
X205500005Y-54291394D01*
X205500004Y-54291395D01*
X205281948Y-54381717D01*
X205077549Y-54499727D01*
X204890307Y-54643402D01*
X204890295Y-54643413D01*
X204723413Y-54810295D01*
X204723402Y-54810307D01*
X204579727Y-54997549D01*
X204461717Y-55201948D01*
X204426827Y-55286181D01*
X204371394Y-55420007D01*
X204333118Y-55562853D01*
X204310307Y-55647986D01*
X204279500Y-55881986D01*
X201300500Y-55881986D01*
X201300500Y-52977648D01*
X201268477Y-52775466D01*
X201205220Y-52580781D01*
X201113506Y-52400782D01*
X201112287Y-52398389D01*
X200991966Y-52232781D01*
X197804296Y-49045111D01*
X197742198Y-48954458D01*
X197721879Y-48881989D01*
X204279500Y-48881989D01*
X204279500Y-49118011D01*
X204310307Y-49352014D01*
X204371394Y-49579993D01*
X204423053Y-49704707D01*
X204461717Y-49798051D01*
X204579727Y-50002450D01*
X204723402Y-50189692D01*
X204723405Y-50189696D01*
X204723408Y-50189699D01*
X204890301Y-50356592D01*
X204890304Y-50356594D01*
X204890307Y-50356597D01*
X204993935Y-50436113D01*
X205077550Y-50500273D01*
X205281951Y-50618284D01*
X205500007Y-50708606D01*
X205727986Y-50769693D01*
X205937275Y-50797246D01*
X205952714Y-50799279D01*
X206057166Y-50833396D01*
X206125111Y-50884296D01*
X207101922Y-51861106D01*
X208088031Y-52847215D01*
X208088034Y-52847219D01*
X208232781Y-52991966D01*
X208380402Y-53099218D01*
X208390614Y-53106637D01*
X208390617Y-53106640D01*
X208398381Y-53112281D01*
X208398383Y-53112282D01*
X208398390Y-53112287D01*
X208580782Y-53205221D01*
X208580787Y-53205222D01*
X208580787Y-53205223D01*
X208757178Y-53262535D01*
X208775466Y-53268477D01*
X208977648Y-53300500D01*
X208977649Y-53300500D01*
X233022351Y-53300500D01*
X233022352Y-53300500D01*
X233224535Y-53268477D01*
X233334395Y-53232781D01*
X233419219Y-53205220D01*
X233510414Y-53158753D01*
X233601611Y-53112287D01*
X233767219Y-52991966D01*
X235954890Y-50804293D01*
X236045539Y-50742198D01*
X236127282Y-50719279D01*
X236352014Y-50689693D01*
X236579993Y-50628606D01*
X236798049Y-50538284D01*
X237002450Y-50420273D01*
X237078019Y-50362287D01*
X237176002Y-50312552D01*
X237260038Y-50300500D01*
X238555704Y-50300500D01*
X238663715Y-50320691D01*
X238737722Y-50362286D01*
X238917550Y-50500273D01*
X239121951Y-50618284D01*
X239340007Y-50708606D01*
X239567986Y-50769693D01*
X239753215Y-50794078D01*
X239801987Y-50800500D01*
X239801989Y-50800500D01*
X240038013Y-50800500D01*
X240082181Y-50794684D01*
X240272014Y-50769693D01*
X240499993Y-50708606D01*
X240718049Y-50618284D01*
X240922450Y-50500273D01*
X241109699Y-50356592D01*
X241276592Y-50189699D01*
X241420273Y-50002450D01*
X241538284Y-49798049D01*
X241628606Y-49579993D01*
X241689693Y-49352014D01*
X241720500Y-49118011D01*
X241720500Y-48881989D01*
X241720411Y-48881315D01*
X241706054Y-48772264D01*
X241689693Y-48647986D01*
X241628606Y-48420007D01*
X241538284Y-48201951D01*
X241420273Y-47997550D01*
X241367101Y-47928255D01*
X241276597Y-47810307D01*
X241276594Y-47810304D01*
X241276592Y-47810301D01*
X241109699Y-47643408D01*
X241109696Y-47643405D01*
X241109692Y-47643402D01*
X240922450Y-47499727D01*
X240718051Y-47381717D01*
X240694641Y-47372020D01*
X240499993Y-47291394D01*
X240272014Y-47230307D01*
X240157979Y-47215294D01*
X240038013Y-47199500D01*
X240038011Y-47199500D01*
X239801989Y-47199500D01*
X239801987Y-47199500D01*
X239567986Y-47230307D01*
X239340007Y-47291394D01*
X239340005Y-47291394D01*
X239340004Y-47291395D01*
X239121948Y-47381717D01*
X238917549Y-47499727D01*
X238737723Y-47637713D01*
X238639741Y-47687447D01*
X238555704Y-47699500D01*
X237449641Y-47699500D01*
X237341630Y-47679309D01*
X237248206Y-47621464D01*
X237238216Y-47611925D01*
X237189704Y-47563413D01*
X237189692Y-47563402D01*
X237002450Y-47419727D01*
X236798051Y-47301717D01*
X236781309Y-47294782D01*
X236579993Y-47211394D01*
X236352014Y-47150307D01*
X236274013Y-47140038D01*
X236118013Y-47119500D01*
X236118011Y-47119500D01*
X235881989Y-47119500D01*
X235881987Y-47119500D01*
X235647986Y-47150307D01*
X235420007Y-47211394D01*
X235420005Y-47211394D01*
X235420004Y-47211395D01*
X235201948Y-47301717D01*
X234997549Y-47419727D01*
X234810307Y-47563402D01*
X234810295Y-47563413D01*
X234643413Y-47730295D01*
X234643402Y-47730307D01*
X234499727Y-47917549D01*
X234381717Y-48121948D01*
X234291395Y-48340004D01*
X234230307Y-48567985D01*
X234200720Y-48792715D01*
X234166603Y-48897167D01*
X234115703Y-48965111D01*
X232468890Y-50611925D01*
X232378237Y-50674023D01*
X232271274Y-50699181D01*
X232257465Y-50699500D01*
X213323814Y-50699500D01*
X213215803Y-50679309D01*
X213122379Y-50621464D01*
X213056160Y-50533776D01*
X213026089Y-50428088D01*
X213036228Y-50318675D01*
X213085207Y-50220312D01*
X213086603Y-50218479D01*
X213166916Y-50113813D01*
X213166924Y-50113803D01*
X213298043Y-49886697D01*
X213398398Y-49644419D01*
X213466270Y-49391116D01*
X213500500Y-49131120D01*
X213500500Y-48868880D01*
X213496635Y-48839526D01*
X213480521Y-48717129D01*
X213466270Y-48608884D01*
X213398398Y-48355581D01*
X213298043Y-48113303D01*
X213233079Y-48000782D01*
X213166930Y-47886207D01*
X213166923Y-47886196D01*
X213114898Y-47818396D01*
X213007282Y-47678149D01*
X212821851Y-47492718D01*
X212613803Y-47333076D01*
X212613792Y-47333069D01*
X212386703Y-47201960D01*
X212386700Y-47201958D01*
X212386697Y-47201957D01*
X212144419Y-47101602D01*
X212144418Y-47101601D01*
X212144414Y-47101600D01*
X211891118Y-47033730D01*
X211631122Y-46999500D01*
X211631120Y-46999500D01*
X211368880Y-46999500D01*
X211368878Y-46999500D01*
X211108881Y-47033730D01*
X210855585Y-47101600D01*
X210613296Y-47201960D01*
X210386207Y-47333069D01*
X210386196Y-47333076D01*
X210178146Y-47492720D01*
X210058942Y-47611925D01*
X209968289Y-47674023D01*
X209861326Y-47699181D01*
X209847517Y-47699500D01*
X207444296Y-47699500D01*
X207336285Y-47679309D01*
X207262277Y-47637713D01*
X207214151Y-47600785D01*
X207082450Y-47499727D01*
X206961499Y-47429896D01*
X206878051Y-47381717D01*
X206854641Y-47372020D01*
X206659993Y-47291394D01*
X206432014Y-47230307D01*
X206317979Y-47215294D01*
X206198013Y-47199500D01*
X206198011Y-47199500D01*
X205961989Y-47199500D01*
X205961987Y-47199500D01*
X205727986Y-47230307D01*
X205500007Y-47291394D01*
X205500005Y-47291394D01*
X205500004Y-47291395D01*
X205281948Y-47381717D01*
X205077549Y-47499727D01*
X204890307Y-47643402D01*
X204890295Y-47643413D01*
X204723413Y-47810295D01*
X204723402Y-47810307D01*
X204579727Y-47997549D01*
X204461717Y-48201948D01*
X204398079Y-48355585D01*
X204371394Y-48420007D01*
X204338770Y-48541762D01*
X204310307Y-48647986D01*
X204279589Y-48881315D01*
X204279500Y-48881989D01*
X197721879Y-48881989D01*
X197719279Y-48872714D01*
X197710001Y-48802242D01*
X197689693Y-48647986D01*
X197628606Y-48420007D01*
X197538284Y-48201951D01*
X197420273Y-47997550D01*
X197367101Y-47928255D01*
X197276597Y-47810307D01*
X197276594Y-47810304D01*
X197276592Y-47810301D01*
X197109699Y-47643408D01*
X197109696Y-47643405D01*
X197109692Y-47643402D01*
X196922450Y-47499727D01*
X196718051Y-47381717D01*
X196694641Y-47372020D01*
X196499993Y-47291394D01*
X196272014Y-47230307D01*
X196157979Y-47215294D01*
X196038013Y-47199500D01*
X196038011Y-47199500D01*
X195801989Y-47199500D01*
X195801987Y-47199500D01*
X195692265Y-47213945D01*
X195606463Y-47212822D01*
X195522353Y-47199500D01*
X195522352Y-47199500D01*
X195317648Y-47199500D01*
X195317646Y-47199500D01*
X195115461Y-47231523D01*
X194920777Y-47294781D01*
X194920774Y-47294782D01*
X194738396Y-47387708D01*
X194738386Y-47387714D01*
X194572781Y-47508033D01*
X194428033Y-47652781D01*
X194307714Y-47818386D01*
X194307708Y-47818396D01*
X194214782Y-48000774D01*
X194214781Y-48000777D01*
X194151523Y-48195461D01*
X194119500Y-48397646D01*
X194119500Y-48602353D01*
X194132822Y-48686463D01*
X194133061Y-48704770D01*
X194136069Y-48717129D01*
X194133945Y-48772264D01*
X194125090Y-48839526D01*
X194090974Y-48943978D01*
X194021429Y-49029053D01*
X193925849Y-49083260D01*
X193828648Y-49099500D01*
X176034065Y-49099500D01*
X175926054Y-49079309D01*
X175832630Y-49021464D01*
X175802336Y-48989451D01*
X175761111Y-48938893D01*
X175709938Y-48897167D01*
X175603407Y-48810302D01*
X175423049Y-48716091D01*
X175227418Y-48660114D01*
X175108037Y-48649500D01*
X175108036Y-48649500D01*
X173491973Y-48649500D01*
X173491972Y-48649500D01*
X173491964Y-48649501D01*
X173436599Y-48654422D01*
X173372584Y-48660113D01*
X173280496Y-48686463D01*
X173176951Y-48716091D01*
X173176949Y-48716091D01*
X173176949Y-48716092D01*
X172996596Y-48810300D01*
X172996592Y-48810302D01*
X172838891Y-48938891D01*
X172710302Y-49096592D01*
X172710300Y-49096596D01*
X172659014Y-49194779D01*
X172616091Y-49276951D01*
X172570976Y-49434622D01*
X172560114Y-49472583D01*
X172549500Y-49591958D01*
X171300500Y-49591958D01*
X171300500Y-47897648D01*
X171274188Y-47731523D01*
X171273995Y-47730307D01*
X171269116Y-47699500D01*
X171268477Y-47695465D01*
X171249712Y-47637713D01*
X171227792Y-47570249D01*
X171227790Y-47570245D01*
X171222507Y-47553985D01*
X171205220Y-47500781D01*
X171119770Y-47333076D01*
X171116864Y-47327372D01*
X171116857Y-47327357D01*
X171112289Y-47318392D01*
X171112286Y-47318388D01*
X171101352Y-47303339D01*
X171005607Y-47171557D01*
X170991966Y-47152781D01*
X170847219Y-47008034D01*
X170839723Y-47000538D01*
X170839708Y-47000524D01*
X159947219Y-36108034D01*
X159939241Y-36102238D01*
X159781611Y-35987713D01*
X159631266Y-35911109D01*
X159599219Y-35894780D01*
X159497772Y-35861818D01*
X159452008Y-35846948D01*
X159404537Y-35831523D01*
X159202353Y-35799500D01*
X159202352Y-35799500D01*
X157234065Y-35799500D01*
X157126054Y-35779309D01*
X157032630Y-35721464D01*
X157002336Y-35689451D01*
X156961111Y-35638893D01*
X156955050Y-35633951D01*
X156803407Y-35510302D01*
X156623049Y-35416091D01*
X156427418Y-35360114D01*
X156393309Y-35357081D01*
X156308042Y-35349500D01*
X156308037Y-35349500D01*
X155712534Y-35349500D01*
X155604523Y-35329309D01*
X155511099Y-35271464D01*
X155501109Y-35261925D01*
X148197219Y-27958034D01*
X148031611Y-27837713D01*
X148031607Y-27837711D01*
X148031603Y-27837708D01*
X147940415Y-27791246D01*
X147849223Y-27744782D01*
X147849222Y-27744781D01*
X147849219Y-27744780D01*
X147784323Y-27723694D01*
X147751874Y-27713150D01*
X147751874Y-27713149D01*
X147654537Y-27681523D01*
X147452353Y-27649500D01*
X147452352Y-27649500D01*
X121115604Y-27649500D01*
X121007593Y-27629309D01*
X120914169Y-27571464D01*
X120883874Y-27539451D01*
X120761109Y-27388891D01*
X120603407Y-27260302D01*
X120423049Y-27166091D01*
X120227418Y-27110114D01*
X120108037Y-27099500D01*
X120108036Y-27099500D01*
X118291973Y-27099500D01*
X118291972Y-27099500D01*
X118291964Y-27099501D01*
X118236599Y-27104422D01*
X118172584Y-27110113D01*
X118074766Y-27138102D01*
X117976951Y-27166091D01*
X117976949Y-27166091D01*
X117976949Y-27166092D01*
X117796596Y-27260300D01*
X117796592Y-27260302D01*
X117638891Y-27388891D01*
X117510302Y-27546592D01*
X117510300Y-27546596D01*
X117416092Y-27726949D01*
X117416091Y-27726951D01*
X117384398Y-27837713D01*
X117360114Y-27922583D01*
X117349500Y-28041958D01*
X112300500Y-28041958D01*
X112300500Y-27662535D01*
X112320691Y-27554524D01*
X112378536Y-27461100D01*
X112388075Y-27451110D01*
X117451110Y-22388075D01*
X117541763Y-22325977D01*
X117648726Y-22300819D01*
X117662535Y-22300500D01*
X148337465Y-22300500D01*
X148445476Y-22320691D01*
X148538900Y-22378536D01*
X148548890Y-22388075D01*
X171152781Y-44991966D01*
X171318389Y-45112287D01*
X171371565Y-45139382D01*
X171371575Y-45139386D01*
X171380850Y-45144112D01*
X171500781Y-45205220D01*
X171598123Y-45236848D01*
X171695462Y-45268476D01*
X171695463Y-45268476D01*
X171695465Y-45268477D01*
X171897648Y-45300500D01*
X171897649Y-45300500D01*
X229102351Y-45300500D01*
X229102352Y-45300500D01*
X229304535Y-45268477D01*
X229401876Y-45236848D01*
X229499219Y-45205220D01*
X229619150Y-45144112D01*
X229681611Y-45112287D01*
X229847219Y-44991966D01*
X232451109Y-42388074D01*
X232541762Y-42325977D01*
X232648725Y-42300819D01*
X232662534Y-42300500D01*
X249337465Y-42300500D01*
X249445476Y-42320691D01*
X249538900Y-42378536D01*
X249548890Y-42388075D01*
X250411925Y-43251110D01*
X250474023Y-43341763D01*
X250499181Y-43448726D01*
X250499500Y-43462535D01*
X250499500Y-44314221D01*
X250509902Y-44446401D01*
X250509905Y-44446416D01*
X250564904Y-44664683D01*
X250657988Y-44869618D01*
X250657992Y-44869624D01*
X250657993Y-44869626D01*
X250786181Y-45054654D01*
X250945346Y-45213819D01*
X251130374Y-45342007D01*
X251130377Y-45342008D01*
X251130381Y-45342011D01*
X251314740Y-45425749D01*
X251335317Y-45435096D01*
X251553588Y-45490096D01*
X251685783Y-45500500D01*
X253314216Y-45500499D01*
X253314221Y-45500499D01*
X253446401Y-45490097D01*
X253446402Y-45490096D01*
X253446412Y-45490096D01*
X253664683Y-45435096D01*
X253814681Y-45366963D01*
X253869618Y-45342011D01*
X253869619Y-45342009D01*
X253869626Y-45342007D01*
X254054654Y-45213819D01*
X254213819Y-45054654D01*
X254300718Y-44929222D01*
X254378826Y-44851936D01*
X254479579Y-44808084D01*
X254546496Y-44800500D01*
X260121499Y-44800500D01*
X260229510Y-44820691D01*
X260322934Y-44878536D01*
X260389153Y-44966224D01*
X260419224Y-45071912D01*
X260409085Y-45181325D01*
X260397739Y-45213922D01*
X260338840Y-45356115D01*
X260279453Y-45577756D01*
X260258798Y-45734638D01*
X260224680Y-45839090D01*
X260173781Y-45907033D01*
X258468890Y-47611925D01*
X258378237Y-47674023D01*
X258271274Y-47699181D01*
X258257465Y-47699500D01*
X251444296Y-47699500D01*
X251336285Y-47679309D01*
X251262277Y-47637713D01*
X251214151Y-47600785D01*
X251082450Y-47499727D01*
X250961499Y-47429896D01*
X250878051Y-47381717D01*
X250854641Y-47372020D01*
X250659993Y-47291394D01*
X250432014Y-47230307D01*
X250317979Y-47215294D01*
X250198013Y-47199500D01*
X250198011Y-47199500D01*
X249961989Y-47199500D01*
X249961987Y-47199500D01*
X249727986Y-47230307D01*
X249500007Y-47291394D01*
X249500005Y-47291394D01*
X249500004Y-47291395D01*
X249281948Y-47381717D01*
X249077549Y-47499727D01*
X248890307Y-47643402D01*
X248890295Y-47643413D01*
X248723413Y-47810295D01*
X248723402Y-47810307D01*
X248579727Y-47997549D01*
X248461717Y-48201948D01*
X248398079Y-48355585D01*
X248371394Y-48420007D01*
X248338770Y-48541762D01*
X248310307Y-48647986D01*
X248279589Y-48881315D01*
X248279500Y-48881989D01*
X248279500Y-49118011D01*
X248310307Y-49352014D01*
X248371394Y-49579993D01*
X248423053Y-49704707D01*
X248461717Y-49798051D01*
X248579727Y-50002450D01*
X248723402Y-50189692D01*
X248723405Y-50189696D01*
X248723408Y-50189699D01*
X248890301Y-50356592D01*
X248890304Y-50356594D01*
X248890307Y-50356597D01*
X248993935Y-50436113D01*
X249077550Y-50500273D01*
X249281951Y-50618284D01*
X249500007Y-50708606D01*
X249727986Y-50769693D01*
X249913215Y-50794078D01*
X249961987Y-50800500D01*
X249961989Y-50800500D01*
X250198013Y-50800500D01*
X250242181Y-50794684D01*
X250432014Y-50769693D01*
X250659993Y-50708606D01*
X250878049Y-50618284D01*
X251082450Y-50500273D01*
X251262277Y-50362286D01*
X251360259Y-50312553D01*
X251444296Y-50300500D01*
X257598465Y-50300500D01*
X257706476Y-50320691D01*
X257799900Y-50378536D01*
X257866119Y-50466224D01*
X257896190Y-50571912D01*
X257886051Y-50681325D01*
X257837072Y-50779688D01*
X257809890Y-50810925D01*
X251269177Y-57351636D01*
X251178524Y-57413734D01*
X251071561Y-57438892D01*
X250962732Y-57423711D01*
X250908257Y-57399155D01*
X250878056Y-57381719D01*
X250878055Y-57381718D01*
X250705653Y-57310307D01*
X250659993Y-57291394D01*
X250432014Y-57230307D01*
X250354013Y-57220038D01*
X250198013Y-57199500D01*
X250198011Y-57199500D01*
X249961989Y-57199500D01*
X249961987Y-57199500D01*
X249727986Y-57230307D01*
X249500007Y-57291394D01*
X249500005Y-57291394D01*
X249500004Y-57291395D01*
X249281948Y-57381717D01*
X249077549Y-57499727D01*
X248890307Y-57643402D01*
X248890295Y-57643413D01*
X248723413Y-57810295D01*
X248723402Y-57810307D01*
X248579727Y-57997549D01*
X248461717Y-58201948D01*
X248375080Y-58411109D01*
X248371394Y-58420007D01*
X248328733Y-58579219D01*
X248310307Y-58647986D01*
X248279500Y-58881986D01*
X248279500Y-59118013D01*
X248280491Y-59125540D01*
X248310307Y-59352014D01*
X248371394Y-59579993D01*
X248420764Y-59699181D01*
X248461717Y-59798051D01*
X248579727Y-60002450D01*
X248723402Y-60189692D01*
X248723405Y-60189696D01*
X248723408Y-60189699D01*
X248890301Y-60356592D01*
X248890304Y-60356594D01*
X248890307Y-60356597D01*
X248969632Y-60417465D01*
X249077550Y-60500273D01*
X249281951Y-60618284D01*
X249500007Y-60708606D01*
X249727986Y-60769693D01*
X249913215Y-60794078D01*
X249961987Y-60800500D01*
X249961989Y-60800500D01*
X250198013Y-60800500D01*
X250242181Y-60794684D01*
X250432014Y-60769693D01*
X250659993Y-60708606D01*
X250878049Y-60618284D01*
X251082450Y-60500273D01*
X251262277Y-60362286D01*
X251360259Y-60312553D01*
X251444296Y-60300500D01*
X251562352Y-60300500D01*
X252138466Y-60300500D01*
X252246477Y-60320691D01*
X252339901Y-60378536D01*
X252406120Y-60466224D01*
X252436191Y-60571912D01*
X252426052Y-60681325D01*
X252377073Y-60779688D01*
X252349891Y-60810925D01*
X248008031Y-65152783D01*
X247887719Y-65318378D01*
X247887709Y-65318396D01*
X247794781Y-65500776D01*
X247731523Y-65695464D01*
X247699500Y-65897646D01*
X247699500Y-84394853D01*
X247731522Y-84597033D01*
X247731523Y-84597035D01*
X247735035Y-84607843D01*
X247794780Y-84791719D01*
X247841246Y-84882914D01*
X247847999Y-84896168D01*
X247848002Y-84896175D01*
X247887708Y-84974103D01*
X247887711Y-84974107D01*
X247887713Y-84974111D01*
X248008034Y-85139719D01*
X254612064Y-91743748D01*
X254674162Y-91834401D01*
X254699320Y-91941364D01*
X254689451Y-92032558D01*
X254671520Y-92099475D01*
X254641500Y-92327501D01*
X254641500Y-92557498D01*
X254671520Y-92785521D01*
X254731044Y-93007672D01*
X254731046Y-93007676D01*
X254819060Y-93220161D01*
X254934056Y-93419340D01*
X255074066Y-93601805D01*
X255236695Y-93764434D01*
X255236703Y-93764440D01*
X255236704Y-93764441D01*
X255419157Y-93904442D01*
X255419160Y-93904445D01*
X255549999Y-93979984D01*
X255633444Y-94051475D01*
X255685429Y-94148282D01*
X255699500Y-94238926D01*
X255699500Y-97108715D01*
X255679309Y-97216726D01*
X255621464Y-97310150D01*
X255552821Y-97364343D01*
X255553417Y-97365291D01*
X255260965Y-97549051D01*
X254997483Y-97759170D01*
X254997467Y-97759184D01*
X254759184Y-97997467D01*
X254759170Y-97997483D01*
X254549053Y-98260961D01*
X254369753Y-98546314D01*
X254223534Y-98849941D01*
X254223532Y-98849947D01*
X254112224Y-99168044D01*
X254037231Y-99496613D01*
X254005418Y-99778969D01*
X253999500Y-99831496D01*
X253999500Y-100168504D01*
X254008377Y-100247294D01*
X254037231Y-100503386D01*
X254100669Y-100781330D01*
X254112224Y-100831954D01*
X254223531Y-101150051D01*
X254223533Y-101150055D01*
X254223534Y-101150058D01*
X254369753Y-101453685D01*
X254430888Y-101550979D01*
X254549054Y-101739039D01*
X254759175Y-102002523D01*
X254997477Y-102240825D01*
X255260961Y-102450946D01*
X255546314Y-102630246D01*
X255849949Y-102776469D01*
X256168046Y-102887776D01*
X256496606Y-102962767D01*
X256496611Y-102962767D01*
X256496613Y-102962768D01*
X256658665Y-102981026D01*
X256831496Y-103000500D01*
X256831498Y-103000500D01*
X257168502Y-103000500D01*
X257168504Y-103000500D01*
X257401444Y-102974253D01*
X257503386Y-102962768D01*
X257503386Y-102962767D01*
X257503394Y-102962767D01*
X257831954Y-102887776D01*
X258150051Y-102776469D01*
X258453686Y-102630246D01*
X258739039Y-102450946D01*
X259002523Y-102240825D01*
X259240825Y-102002523D01*
X259450946Y-101739039D01*
X259630246Y-101453686D01*
X259776469Y-101150051D01*
X259887776Y-100831954D01*
X259962767Y-100503394D01*
X260000500Y-100168504D01*
X260000500Y-99831496D01*
X259962767Y-99496606D01*
X259887776Y-99168046D01*
X259776469Y-98849949D01*
X259630246Y-98546314D01*
X259450946Y-98260961D01*
X259240825Y-97997477D01*
X259002523Y-97759175D01*
X258739039Y-97549054D01*
X258453686Y-97369754D01*
X258453685Y-97369753D01*
X258446583Y-97365291D01*
X258447291Y-97364163D01*
X258370078Y-97300462D01*
X258316304Y-97204637D01*
X258300500Y-97108715D01*
X258300500Y-94377107D01*
X258320691Y-94269096D01*
X258378536Y-94175672D01*
X258466224Y-94109453D01*
X258485078Y-94100867D01*
X258681661Y-94019440D01*
X258880840Y-93904444D01*
X259063305Y-93764434D01*
X259225934Y-93601805D01*
X259365944Y-93419340D01*
X259480940Y-93220161D01*
X259568954Y-93007676D01*
X259628480Y-92785520D01*
X259658500Y-92557496D01*
X259658500Y-92327504D01*
X259628480Y-92099480D01*
X259568954Y-91877324D01*
X259480940Y-91664839D01*
X259365944Y-91465660D01*
X259225934Y-91283195D01*
X259063305Y-91120566D01*
X258880840Y-90980556D01*
X258681661Y-90865560D01*
X258610832Y-90836222D01*
X258469172Y-90777544D01*
X258247021Y-90718020D01*
X258018998Y-90688000D01*
X258018996Y-90688000D01*
X257358534Y-90688000D01*
X257250523Y-90667809D01*
X257157099Y-90609964D01*
X257147109Y-90600425D01*
X250388075Y-83841390D01*
X250325977Y-83750737D01*
X250300819Y-83643774D01*
X250300500Y-83629965D01*
X250300500Y-66662534D01*
X250320691Y-66554523D01*
X250378536Y-66461099D01*
X250388075Y-66451109D01*
X254451109Y-62388075D01*
X254541762Y-62325977D01*
X254648725Y-62300819D01*
X254662534Y-62300500D01*
X263182351Y-62300500D01*
X263182352Y-62300500D01*
X263384535Y-62268477D01*
X263481876Y-62236848D01*
X263579219Y-62205220D01*
X263682136Y-62152781D01*
X263761611Y-62112287D01*
X263927219Y-61991966D01*
X265034891Y-60884293D01*
X265125540Y-60822198D01*
X265207285Y-60799279D01*
X265432014Y-60769693D01*
X265659993Y-60708606D01*
X265878049Y-60618284D01*
X266082450Y-60500273D01*
X266269699Y-60356592D01*
X266436592Y-60189699D01*
X266580273Y-60002450D01*
X266698284Y-59798049D01*
X266788606Y-59579993D01*
X266849693Y-59352014D01*
X266879509Y-59125540D01*
X266880500Y-59118013D01*
X266880500Y-58881986D01*
X266871777Y-58815733D01*
X266849693Y-58647986D01*
X266788606Y-58420007D01*
X266698284Y-58201951D01*
X266580273Y-57997550D01*
X266541037Y-57946416D01*
X266442287Y-57817722D01*
X266392552Y-57719739D01*
X266380500Y-57635703D01*
X266380500Y-53977648D01*
X266348477Y-53775466D01*
X266326568Y-53708036D01*
X266285221Y-53580782D01*
X266192287Y-53398390D01*
X266097900Y-53268477D01*
X266071966Y-53232781D01*
X265927219Y-53088034D01*
X265927218Y-53088033D01*
X265919723Y-53080538D01*
X265919708Y-53080524D01*
X263826218Y-50987033D01*
X263764120Y-50896380D01*
X263741201Y-50814636D01*
X263720548Y-50657762D01*
X263709970Y-50618284D01*
X263661160Y-50436118D01*
X263573342Y-50224107D01*
X263458617Y-50025398D01*
X263458615Y-50025395D01*
X263458611Y-50025388D01*
X263371620Y-49912020D01*
X263321885Y-49814039D01*
X263310904Y-49704707D01*
X263340159Y-49598791D01*
X263371621Y-49547979D01*
X263429474Y-49472584D01*
X263458611Y-49434612D01*
X263543424Y-49287711D01*
X263573342Y-49235892D01*
X263616573Y-49131524D01*
X263661158Y-49023887D01*
X263661808Y-49021464D01*
X263699179Y-48881989D01*
X263720548Y-48802238D01*
X263750500Y-48574734D01*
X263750500Y-48345266D01*
X263720548Y-48117762D01*
X263688337Y-47997549D01*
X263661160Y-47896118D01*
X263573342Y-47684107D01*
X263458617Y-47485398D01*
X263458615Y-47485395D01*
X263458611Y-47485388D01*
X263416029Y-47429895D01*
X263371621Y-47372021D01*
X263321885Y-47274039D01*
X263310904Y-47164707D01*
X263340159Y-47058791D01*
X263371621Y-47007979D01*
X263458603Y-46894622D01*
X263458611Y-46894612D01*
X263573344Y-46695888D01*
X263661158Y-46483887D01*
X263690857Y-46373050D01*
X263720547Y-46262242D01*
X263741201Y-46105363D01*
X263745887Y-46091013D01*
X263746585Y-46075935D01*
X263762830Y-46039142D01*
X263775318Y-46000911D01*
X263786018Y-45986627D01*
X263790969Y-45975415D01*
X263826213Y-45932971D01*
X263953918Y-45805266D01*
X267869500Y-45805266D01*
X267869500Y-46034734D01*
X267876909Y-46091013D01*
X267899453Y-46262242D01*
X267958839Y-46483881D01*
X268046657Y-46695892D01*
X268161382Y-46894601D01*
X268161394Y-46894620D01*
X268248379Y-47007980D01*
X268298114Y-47105962D01*
X268309095Y-47215294D01*
X268279839Y-47321210D01*
X268248379Y-47372020D01*
X268161394Y-47485379D01*
X268161382Y-47485398D01*
X268046657Y-47684107D01*
X267958839Y-47896118D01*
X267899453Y-48117757D01*
X267899452Y-48117762D01*
X267869500Y-48345266D01*
X267869500Y-48574734D01*
X267899419Y-48801989D01*
X267899453Y-48802242D01*
X267958839Y-49023881D01*
X268046657Y-49235892D01*
X268161382Y-49434601D01*
X268161394Y-49434620D01*
X268248379Y-49547980D01*
X268298114Y-49645962D01*
X268309095Y-49755294D01*
X268279839Y-49861210D01*
X268248379Y-49912020D01*
X268161394Y-50025379D01*
X268161382Y-50025398D01*
X268046657Y-50224107D01*
X267958839Y-50436118D01*
X267907264Y-50628606D01*
X267899452Y-50657762D01*
X267869500Y-50885266D01*
X267869500Y-51114734D01*
X267897500Y-51327415D01*
X267899453Y-51342242D01*
X267958839Y-51563881D01*
X268046657Y-51775892D01*
X268161382Y-51974601D01*
X268161389Y-51974612D01*
X268301081Y-52156661D01*
X268463339Y-52318919D01*
X268645388Y-52458611D01*
X268645394Y-52458614D01*
X268645398Y-52458617D01*
X268844107Y-52573342D01*
X269056118Y-52661160D01*
X269166937Y-52690853D01*
X269277762Y-52720548D01*
X269484935Y-52747823D01*
X269505265Y-52750500D01*
X269505266Y-52750500D01*
X269734735Y-52750500D01*
X269753396Y-52748042D01*
X269962238Y-52720548D01*
X270118033Y-52678803D01*
X270183881Y-52661160D01*
X270183883Y-52661158D01*
X270183887Y-52661158D01*
X270395888Y-52573344D01*
X270395890Y-52573342D01*
X270395892Y-52573342D01*
X270527001Y-52497646D01*
X270594612Y-52458611D01*
X270776661Y-52318919D01*
X270938919Y-52156661D01*
X271078611Y-51974612D01*
X271191815Y-51778536D01*
X271193342Y-51775892D01*
X271193344Y-51775888D01*
X271281158Y-51563887D01*
X271292101Y-51523049D01*
X271298803Y-51498033D01*
X271340548Y-51342238D01*
X271370500Y-51114734D01*
X271370500Y-50885266D01*
X271340548Y-50657762D01*
X271308534Y-50538282D01*
X271281160Y-50436118D01*
X271193342Y-50224107D01*
X271078617Y-50025398D01*
X271078615Y-50025395D01*
X271078611Y-50025388D01*
X270991620Y-49912020D01*
X270941885Y-49814039D01*
X270930904Y-49704707D01*
X270960159Y-49598791D01*
X270991621Y-49547979D01*
X271049474Y-49472584D01*
X271078611Y-49434612D01*
X271163424Y-49287711D01*
X271193342Y-49235892D01*
X271236573Y-49131524D01*
X271281158Y-49023887D01*
X271281808Y-49021464D01*
X271319179Y-48881989D01*
X271340548Y-48802238D01*
X271370500Y-48574734D01*
X271370500Y-48345266D01*
X271340548Y-48117762D01*
X271308337Y-47997549D01*
X271281160Y-47896118D01*
X271193342Y-47684107D01*
X271078617Y-47485398D01*
X271078615Y-47485395D01*
X271078611Y-47485388D01*
X271036029Y-47429895D01*
X270991621Y-47372021D01*
X270941885Y-47274039D01*
X270930904Y-47164707D01*
X270960159Y-47058791D01*
X270991621Y-47007979D01*
X271078603Y-46894622D01*
X271078611Y-46894612D01*
X271193344Y-46695888D01*
X271281158Y-46483887D01*
X271340548Y-46262238D01*
X271370500Y-46034734D01*
X271370500Y-45805266D01*
X271340548Y-45577762D01*
X271302321Y-45435095D01*
X271281160Y-45356118D01*
X271193342Y-45144107D01*
X271078617Y-44945398D01*
X271078610Y-44945387D01*
X271006902Y-44851936D01*
X270938919Y-44763339D01*
X270776661Y-44601081D01*
X270594612Y-44461389D01*
X270594601Y-44461382D01*
X270395892Y-44346657D01*
X270183881Y-44258839D01*
X269962242Y-44199453D01*
X269962241Y-44199452D01*
X269962238Y-44199452D01*
X269784240Y-44176017D01*
X269734735Y-44169500D01*
X269734734Y-44169500D01*
X269505266Y-44169500D01*
X269505265Y-44169500D01*
X269441991Y-44177830D01*
X269277762Y-44199452D01*
X269277759Y-44199452D01*
X269277757Y-44199453D01*
X269056118Y-44258839D01*
X268844107Y-44346657D01*
X268645398Y-44461382D01*
X268645387Y-44461389D01*
X268463336Y-44601083D01*
X268301083Y-44763336D01*
X268161389Y-44945387D01*
X268161382Y-44945398D01*
X268046657Y-45144107D01*
X267958839Y-45356118D01*
X267899453Y-45577757D01*
X267899452Y-45577762D01*
X267869500Y-45805266D01*
X263953918Y-45805266D01*
X266991966Y-42767219D01*
X267112287Y-42601611D01*
X267188839Y-42451368D01*
X267205220Y-42419219D01*
X267268477Y-42224534D01*
X267286256Y-42112287D01*
X267300500Y-42022352D01*
X267300500Y-41817649D01*
X267300500Y-41194602D01*
X267320691Y-41086591D01*
X267378536Y-40993167D01*
X267466224Y-40926948D01*
X267571912Y-40896877D01*
X267681325Y-40907016D01*
X267779688Y-40955995D01*
X267853715Y-41037199D01*
X267893409Y-41139661D01*
X267895942Y-41155574D01*
X267899452Y-41182242D01*
X267958839Y-41403881D01*
X268046657Y-41615892D01*
X268161382Y-41814601D01*
X268161389Y-41814612D01*
X268301081Y-41996661D01*
X268463339Y-42158919D01*
X268645388Y-42298611D01*
X268645394Y-42298614D01*
X268645398Y-42298617D01*
X268844107Y-42413342D01*
X269056118Y-42501160D01*
X269166937Y-42530853D01*
X269277762Y-42560548D01*
X269484935Y-42587823D01*
X269505265Y-42590500D01*
X269505266Y-42590500D01*
X269734735Y-42590500D01*
X269753396Y-42588042D01*
X269962238Y-42560548D01*
X270118033Y-42518803D01*
X270183881Y-42501160D01*
X270183883Y-42501158D01*
X270183887Y-42501158D01*
X270395888Y-42413344D01*
X270395890Y-42413342D01*
X270395892Y-42413342D01*
X270489010Y-42359579D01*
X270594612Y-42298611D01*
X270776661Y-42158919D01*
X270938919Y-41996661D01*
X271078611Y-41814612D01*
X271193344Y-41615888D01*
X271281158Y-41403887D01*
X271291451Y-41365475D01*
X271298803Y-41338033D01*
X271340548Y-41182238D01*
X271370500Y-40954734D01*
X271370500Y-40725266D01*
X271369999Y-40721464D01*
X271361649Y-40658036D01*
X271340548Y-40497762D01*
X271303666Y-40360114D01*
X271281160Y-40276118D01*
X271193342Y-40064107D01*
X271078617Y-39865398D01*
X271078615Y-39865395D01*
X271078611Y-39865388D01*
X271060668Y-39842005D01*
X270991621Y-39752021D01*
X270941885Y-39654039D01*
X270930904Y-39544707D01*
X270960159Y-39438791D01*
X270991621Y-39387979D01*
X271044800Y-39318675D01*
X271078611Y-39274612D01*
X271186308Y-39088075D01*
X271193342Y-39075892D01*
X271223763Y-39002450D01*
X271281158Y-38863887D01*
X271284746Y-38850499D01*
X271310887Y-38752934D01*
X271340548Y-38642238D01*
X271370500Y-38414734D01*
X271370500Y-38185266D01*
X271340548Y-37957762D01*
X271299492Y-37804537D01*
X271281160Y-37736118D01*
X271193342Y-37524107D01*
X271078617Y-37325398D01*
X271078615Y-37325395D01*
X271078611Y-37325388D01*
X270991620Y-37212020D01*
X270941885Y-37114039D01*
X270930904Y-37004707D01*
X270960159Y-36898791D01*
X270991621Y-36847979D01*
X271078603Y-36734622D01*
X271078611Y-36734612D01*
X271193344Y-36535888D01*
X271281158Y-36323887D01*
X271281808Y-36321464D01*
X271314219Y-36200499D01*
X271340548Y-36102238D01*
X271370500Y-35874734D01*
X271370500Y-35645266D01*
X271340548Y-35417762D01*
X271297748Y-35258027D01*
X271281160Y-35196118D01*
X271193342Y-34984107D01*
X271078617Y-34785398D01*
X271078610Y-34785387D01*
X271009610Y-34695465D01*
X270938919Y-34603339D01*
X270776661Y-34441081D01*
X270594612Y-34301389D01*
X270594601Y-34301382D01*
X270395892Y-34186657D01*
X270183881Y-34098839D01*
X269962242Y-34039453D01*
X269962241Y-34039452D01*
X269962238Y-34039452D01*
X269784240Y-34016017D01*
X269734735Y-34009500D01*
X269734734Y-34009500D01*
X269505266Y-34009500D01*
X269505265Y-34009500D01*
X269441991Y-34017830D01*
X269277762Y-34039452D01*
X269277759Y-34039452D01*
X269277757Y-34039453D01*
X269056118Y-34098839D01*
X268844107Y-34186657D01*
X268645398Y-34301382D01*
X268645387Y-34301389D01*
X268463336Y-34441083D01*
X268301083Y-34603336D01*
X268161389Y-34785387D01*
X268161382Y-34785398D01*
X268046657Y-34984107D01*
X267958839Y-35196118D01*
X267899899Y-35416092D01*
X267899452Y-35417762D01*
X267898960Y-35421504D01*
X267895942Y-35444426D01*
X267861825Y-35548877D01*
X267792280Y-35633951D01*
X267696698Y-35688157D01*
X267587990Y-35704175D01*
X267480836Y-35679842D01*
X267389708Y-35618443D01*
X267326914Y-35528270D01*
X267300934Y-35421504D01*
X267300500Y-35405397D01*
X267300500Y-34897650D01*
X267300499Y-34897644D01*
X267293229Y-34851741D01*
X267282721Y-34785398D01*
X267268477Y-34695465D01*
X267224102Y-34558893D01*
X267205220Y-34500781D01*
X267129810Y-34352781D01*
X267112287Y-34318389D01*
X266991966Y-34152781D01*
X262354458Y-29515273D01*
X262292360Y-29424620D01*
X262267202Y-29317657D01*
X262282383Y-29208828D01*
X262328667Y-29121832D01*
X262420273Y-29002450D01*
X262538284Y-28798049D01*
X262628606Y-28579993D01*
X262689693Y-28352014D01*
X262720500Y-28118011D01*
X262720500Y-27881989D01*
X262720411Y-27881315D01*
X262702436Y-27744780D01*
X262689693Y-27647986D01*
X262628606Y-27420007D01*
X262538284Y-27201951D01*
X262420273Y-26997550D01*
X262335992Y-26887713D01*
X262276597Y-26810307D01*
X262276594Y-26810304D01*
X262276592Y-26810301D01*
X262109699Y-26643408D01*
X262109696Y-26643405D01*
X262109692Y-26643402D01*
X261922450Y-26499727D01*
X261718051Y-26381717D01*
X261565172Y-26318392D01*
X261499993Y-26291394D01*
X261272014Y-26230307D01*
X261272011Y-26230306D01*
X261267533Y-26229416D01*
X261265204Y-26228482D01*
X261262559Y-26227774D01*
X261262644Y-26227456D01*
X261165537Y-26188539D01*
X261085195Y-26113577D01*
X261037358Y-26014654D01*
X261028486Y-25905131D01*
X261059777Y-25799798D01*
X261114444Y-25724739D01*
X261830175Y-25009007D01*
X261830182Y-25009002D01*
X261847217Y-24991967D01*
X261847219Y-24991966D01*
X261991966Y-24847219D01*
X262112287Y-24681610D01*
X262176659Y-24555273D01*
X262203538Y-24502522D01*
X262203539Y-24502517D01*
X262205221Y-24499218D01*
X262268477Y-24304534D01*
X262300500Y-24102351D01*
X262300500Y-23897648D01*
X262300500Y-22364296D01*
X262320691Y-22256285D01*
X262362287Y-22182277D01*
X262500273Y-22002450D01*
X262618284Y-21798049D01*
X262708606Y-21579993D01*
X262769693Y-21352014D01*
X262800500Y-21118011D01*
X262800500Y-20881989D01*
X262769693Y-20647986D01*
X262769691Y-20647979D01*
X262768447Y-20638529D01*
X262774366Y-20528806D01*
X262819522Y-20428631D01*
X262897817Y-20351533D01*
X262998675Y-20307924D01*
X263064889Y-20300500D01*
X273337466Y-20300500D01*
X273371415Y-20306846D01*
X273405920Y-20308441D01*
X273424990Y-20316861D01*
X273445477Y-20320691D01*
X273474839Y-20338871D01*
X273506440Y-20352824D01*
X273533015Y-20374891D01*
X273538901Y-20378536D01*
X273548874Y-20388059D01*
X273611925Y-20451110D01*
X273674022Y-20541758D01*
X273699181Y-20648722D01*
X273699500Y-20662533D01*
X273699500Y-60417465D01*
X273679309Y-60525476D01*
X273621464Y-60618900D01*
X273611925Y-60628890D01*
X261628890Y-72611925D01*
X261538237Y-72674023D01*
X261431274Y-72699181D01*
X261417465Y-72699500D01*
X256284296Y-72699500D01*
X256176285Y-72679309D01*
X256102277Y-72637713D01*
X256088985Y-72627514D01*
X255922450Y-72499727D01*
X255718049Y-72381716D01*
X255499993Y-72291394D01*
X255272014Y-72230307D01*
X255176049Y-72217673D01*
X255038013Y-72199500D01*
X255038011Y-72199500D01*
X254801989Y-72199500D01*
X254801987Y-72199500D01*
X254567986Y-72230307D01*
X254340007Y-72291394D01*
X254340005Y-72291394D01*
X254340004Y-72291395D01*
X254121948Y-72381717D01*
X253917549Y-72499727D01*
X253730307Y-72643402D01*
X253730295Y-72643413D01*
X253563413Y-72810295D01*
X253563402Y-72810307D01*
X253419727Y-72997549D01*
X253301717Y-73201948D01*
X253260896Y-73300500D01*
X253211394Y-73420007D01*
X253150307Y-73647986D01*
X253119500Y-73881986D01*
X253119500Y-74118013D01*
X253140038Y-74274013D01*
X253150307Y-74352014D01*
X253211394Y-74579993D01*
X253301716Y-74798049D01*
X253419727Y-75002450D01*
X253532990Y-75150058D01*
X253557713Y-75182277D01*
X253607447Y-75280259D01*
X253619500Y-75364296D01*
X253619500Y-76014853D01*
X253651523Y-76217035D01*
X253714778Y-76411715D01*
X253714779Y-76411718D01*
X253714780Y-76411719D01*
X253734767Y-76450946D01*
X253807713Y-76594111D01*
X253928034Y-76759719D01*
X259412064Y-82243749D01*
X259474162Y-82334402D01*
X259499320Y-82441365D01*
X259489451Y-82532560D01*
X259471520Y-82599478D01*
X259441500Y-82827501D01*
X259441500Y-83057498D01*
X259471520Y-83285521D01*
X259531044Y-83507672D01*
X259531046Y-83507676D01*
X259619060Y-83720161D01*
X259734056Y-83919340D01*
X259874066Y-84101805D01*
X260036695Y-84264434D01*
X260036703Y-84264440D01*
X260036704Y-84264441D01*
X260206659Y-84394852D01*
X260219160Y-84404444D01*
X260418339Y-84519440D01*
X260630824Y-84607454D01*
X260630825Y-84607454D01*
X260630827Y-84607455D01*
X260696826Y-84625139D01*
X260852980Y-84666980D01*
X261020962Y-84689095D01*
X261081002Y-84697000D01*
X261081004Y-84697000D01*
X262818998Y-84697000D01*
X262872052Y-84690014D01*
X263047020Y-84666980D01*
X263269176Y-84607454D01*
X263481661Y-84519440D01*
X263680840Y-84404444D01*
X263863305Y-84264434D01*
X264025934Y-84101805D01*
X264165944Y-83919340D01*
X264280940Y-83720161D01*
X264368954Y-83507676D01*
X264428480Y-83285520D01*
X264458500Y-83057496D01*
X264458500Y-82827504D01*
X264428480Y-82599480D01*
X264410548Y-82532559D01*
X264402095Y-82423005D01*
X264433790Y-82317793D01*
X264487932Y-82243751D01*
X271069229Y-75662453D01*
X271159882Y-75600356D01*
X271266845Y-75575198D01*
X271375674Y-75590379D01*
X271471669Y-75643848D01*
X271533824Y-75714801D01*
X271549054Y-75739039D01*
X271759175Y-76002523D01*
X271997477Y-76240825D01*
X272260961Y-76450946D01*
X272546314Y-76630246D01*
X272849949Y-76776469D01*
X273168046Y-76887776D01*
X273496606Y-76962767D01*
X273496611Y-76962767D01*
X273496613Y-76962768D01*
X273658665Y-76981026D01*
X273831496Y-77000500D01*
X273831498Y-77000500D01*
X274168502Y-77000500D01*
X274168504Y-77000500D01*
X274401444Y-76974253D01*
X274503386Y-76962768D01*
X274503386Y-76962767D01*
X274503394Y-76962767D01*
X274831954Y-76887776D01*
X275150051Y-76776469D01*
X275453686Y-76630246D01*
X275739039Y-76450946D01*
X276002523Y-76240825D01*
X276240825Y-76002523D01*
X276450946Y-75739039D01*
X276630246Y-75453686D01*
X276776469Y-75150051D01*
X276887776Y-74831954D01*
X276962767Y-74503394D01*
X277000500Y-74168504D01*
X277000500Y-73831496D01*
X276962767Y-73496606D01*
X276887776Y-73168046D01*
X276776469Y-72849949D01*
X276630246Y-72546314D01*
X276450946Y-72260961D01*
X276240825Y-71997477D01*
X276002523Y-71759175D01*
X275739039Y-71549054D01*
X275739040Y-71549054D01*
X275739038Y-71549053D01*
X275453685Y-71369753D01*
X275150058Y-71223534D01*
X275150055Y-71223533D01*
X275150051Y-71223531D01*
X274943262Y-71151172D01*
X274831955Y-71112224D01*
X274503386Y-71037231D01*
X274225501Y-71005922D01*
X274168504Y-70999500D01*
X273831496Y-70999500D01*
X273778969Y-71005418D01*
X273496613Y-71037231D01*
X273168044Y-71112224D01*
X272945430Y-71190120D01*
X272849949Y-71223531D01*
X272849947Y-71223532D01*
X272849941Y-71223534D01*
X272546314Y-71369753D01*
X272260961Y-71549053D01*
X271997483Y-71759170D01*
X271997467Y-71759184D01*
X271759184Y-71997467D01*
X271759177Y-71997475D01*
X271759175Y-71997477D01*
X271581471Y-72220312D01*
X271549051Y-72260965D01*
X271365291Y-72553417D01*
X271364159Y-72552706D01*
X271300491Y-72629898D01*
X271204673Y-72683684D01*
X271108716Y-72699500D01*
X270861534Y-72699500D01*
X270753523Y-72679309D01*
X270660099Y-72621464D01*
X270593880Y-72533776D01*
X270563809Y-72428088D01*
X270573948Y-72318675D01*
X270622927Y-72220312D01*
X270650109Y-72189075D01*
X272411096Y-70428088D01*
X277830175Y-65009007D01*
X277830182Y-65009002D01*
X277847217Y-64991967D01*
X277847219Y-64991966D01*
X277991966Y-64847219D01*
X278112287Y-64681610D01*
X278199889Y-64509681D01*
X278204490Y-64501465D01*
X278205220Y-64499219D01*
X278205221Y-64499218D01*
X278268477Y-64304534D01*
X278284207Y-64205220D01*
X278300500Y-64102352D01*
X278300500Y-17897648D01*
X278297044Y-17875828D01*
X278298400Y-17826865D01*
X278297772Y-17777885D01*
X278299916Y-17772130D01*
X278300087Y-17765992D01*
X278319043Y-17720814D01*
X278336149Y-17674922D01*
X278340226Y-17670332D01*
X278342603Y-17664668D01*
X278376597Y-17629392D01*
X278409128Y-17592775D01*
X278414590Y-17589966D01*
X278418851Y-17585546D01*
X278463282Y-17564936D01*
X278506854Y-17542539D01*
X278512961Y-17541893D01*
X278518532Y-17539310D01*
X278567409Y-17536142D01*
X278616129Y-17530997D01*
X278622057Y-17532601D01*
X278628184Y-17532205D01*
X278674900Y-17546906D01*
X278722193Y-17559709D01*
X278727140Y-17563346D01*
X278732998Y-17565190D01*
X278771259Y-17595783D01*
X278810723Y-17624798D01*
X278815909Y-17631485D01*
X278818819Y-17633812D01*
X278844532Y-17668392D01*
X278889666Y-17739238D01*
X278902707Y-17761827D01*
X279071903Y-18086849D01*
X279082927Y-18110489D01*
X279197907Y-18388075D01*
X279223152Y-18449020D01*
X279232069Y-18473520D01*
X279263092Y-18571912D01*
X279342255Y-18822986D01*
X279349005Y-18848180D01*
X279428316Y-19205927D01*
X279432846Y-19231616D01*
X279480674Y-19594906D01*
X279482947Y-19620890D01*
X279499215Y-19993471D01*
X279499500Y-20006514D01*
X279499500Y-99993485D01*
X279499215Y-100006528D01*
X279482947Y-100379109D01*
X279480674Y-100405093D01*
X279432846Y-100768383D01*
X279428316Y-100794072D01*
X279349005Y-101151819D01*
X279342255Y-101177013D01*
X279255022Y-101453685D01*
X279232074Y-101526466D01*
X279223152Y-101550979D01*
X279082927Y-101889510D01*
X279071903Y-101913150D01*
X278902707Y-102238172D01*
X278889665Y-102260761D01*
X278692794Y-102569788D01*
X278677833Y-102591156D01*
X278454763Y-102881866D01*
X278437996Y-102901847D01*
X278190446Y-103172001D01*
X278172001Y-103190446D01*
X277901847Y-103437996D01*
X277881866Y-103454763D01*
X277591156Y-103677833D01*
X277569788Y-103692794D01*
X277260761Y-103889665D01*
X277238172Y-103902707D01*
X276913150Y-104071903D01*
X276889510Y-104082927D01*
X276550979Y-104223152D01*
X276526471Y-104232071D01*
X276366837Y-104282404D01*
X276177013Y-104342255D01*
X276151819Y-104349005D01*
X275794072Y-104428316D01*
X275768383Y-104432846D01*
X275405093Y-104480674D01*
X275379109Y-104482947D01*
X275037808Y-104497849D01*
X275006526Y-104499215D01*
X274993486Y-104499500D01*
X247506514Y-104499500D01*
X247493473Y-104499215D01*
X247460266Y-104497765D01*
X247120890Y-104482947D01*
X247094906Y-104480674D01*
X246731616Y-104432846D01*
X246705927Y-104428316D01*
X246348180Y-104349005D01*
X246322986Y-104342255D01*
X246309116Y-104337882D01*
X245973520Y-104232069D01*
X245949028Y-104223155D01*
X245779754Y-104153039D01*
X245610489Y-104082927D01*
X245586849Y-104071903D01*
X245261827Y-103902707D01*
X245239238Y-103889665D01*
X244930211Y-103692794D01*
X244908843Y-103677833D01*
X244618133Y-103454763D01*
X244598152Y-103437996D01*
X244327998Y-103190446D01*
X244309553Y-103172001D01*
X244062003Y-102901847D01*
X244045236Y-102881866D01*
X243822166Y-102591156D01*
X243807205Y-102569788D01*
X243610334Y-102260761D01*
X243597292Y-102238172D01*
X243428096Y-101913150D01*
X243417072Y-101889510D01*
X243276839Y-101550959D01*
X243267934Y-101526492D01*
X243157740Y-101176999D01*
X243150994Y-101151819D01*
X243071683Y-100794072D01*
X243067153Y-100768383D01*
X243019325Y-100405093D01*
X243017052Y-100379108D01*
X243000785Y-100006527D01*
X243000500Y-99993485D01*
X243000500Y-84772502D01*
X242994244Y-84697000D01*
X242962926Y-84319047D01*
X242888035Y-83870248D01*
X242776338Y-83429166D01*
X242628598Y-82998815D01*
X242445825Y-82582134D01*
X242229266Y-82181969D01*
X241980402Y-81801054D01*
X241980399Y-81801050D01*
X241980388Y-81801034D01*
X241700942Y-81442001D01*
X241700940Y-81442000D01*
X241700933Y-81441991D01*
X241392766Y-81107234D01*
X241058009Y-80799067D01*
X241057999Y-80799059D01*
X241057998Y-80799057D01*
X240698965Y-80519611D01*
X240698943Y-80519596D01*
X240605399Y-80458481D01*
X240318031Y-80270734D01*
X239917866Y-80054175D01*
X239917863Y-80054173D01*
X239917860Y-80054172D01*
X239501188Y-79871403D01*
X239070843Y-79723665D01*
X239070840Y-79723664D01*
X239070839Y-79723663D01*
X239070834Y-79723662D01*
X238629752Y-79611965D01*
X238629748Y-79611964D01*
X238629747Y-79611964D01*
X238629738Y-79611962D01*
X238180962Y-79537075D01*
X238180955Y-79537074D01*
X238180953Y-79537074D01*
X237727502Y-79499500D01*
X237727498Y-79499500D01*
X110010848Y-79499500D01*
X109995744Y-79499118D01*
X109979233Y-79498282D01*
X109626268Y-79480429D01*
X109600418Y-79477993D01*
X109239072Y-79428027D01*
X109213528Y-79423356D01*
X108857878Y-79342226D01*
X108832837Y-79335357D01*
X108485590Y-79223683D01*
X108461238Y-79214668D01*
X108124964Y-79073276D01*
X108101487Y-79062181D01*
X107778770Y-78892158D01*
X107756344Y-78879069D01*
X107449573Y-78681671D01*
X107428376Y-78666691D01*
X107139898Y-78443429D01*
X107120073Y-78426661D01*
X106859892Y-78186450D01*
X106852046Y-78179206D01*
X106833764Y-78160793D01*
X106588224Y-77891023D01*
X106571596Y-77871079D01*
X106350389Y-77581024D01*
X106335554Y-77559712D01*
X106140354Y-77251568D01*
X106127424Y-77229051D01*
X105959680Y-76905105D01*
X105948762Y-76881569D01*
X105809760Y-76544298D01*
X105800920Y-76519887D01*
X105713357Y-76240829D01*
X105691709Y-76171841D01*
X105685020Y-76146757D01*
X105653193Y-76002523D01*
X105606416Y-75790537D01*
X105601929Y-75764971D01*
X105598531Y-75739039D01*
X105554528Y-75403269D01*
X105552278Y-75377433D01*
X105536312Y-75010080D01*
X105536031Y-74997371D01*
X105500504Y-20006596D01*
X105500789Y-19993374D01*
X105503363Y-19934431D01*
X105517052Y-19620881D01*
X105519325Y-19594906D01*
X105531856Y-19499724D01*
X105567155Y-19231602D01*
X105571683Y-19205927D01*
X105650994Y-18848180D01*
X105657738Y-18823006D01*
X105767936Y-18473500D01*
X105776836Y-18449048D01*
X105917077Y-18110477D01*
X105928096Y-18086849D01*
X106037945Y-17875832D01*
X106097295Y-17761820D01*
X106110334Y-17739238D01*
X106307213Y-17430198D01*
X106322157Y-17408855D01*
X106545242Y-17118125D01*
X106562003Y-17098152D01*
X106809553Y-16827998D01*
X106827998Y-16809553D01*
X107098152Y-16562003D01*
X107118125Y-16545242D01*
X107408855Y-16322157D01*
X107430198Y-16307213D01*
X107739244Y-16110330D01*
X107761820Y-16097295D01*
X108086852Y-15928094D01*
X108110477Y-15917077D01*
X108449048Y-15776836D01*
X108473500Y-15767936D01*
X108823006Y-15657738D01*
X108848180Y-15650994D01*
X109205927Y-15571683D01*
X109231602Y-15567155D01*
X109594910Y-15519324D01*
X109620883Y-15517052D01*
X109993472Y-15500784D01*
X110006514Y-15500500D01*
X110065892Y-15500500D01*
X253938465Y-15500500D01*
X254046476Y-15520691D01*
G37*
%TD.AperFunction*%
%TA.AperFunction,Conductor*%
G36*
X258605476Y-39320691D02*
G01*
X258698900Y-39378536D01*
X258708890Y-39388075D01*
X260173781Y-40852966D01*
X260235879Y-40943619D01*
X260258798Y-41025361D01*
X260279453Y-41182243D01*
X260338839Y-41403881D01*
X260426656Y-41615888D01*
X260504663Y-41751000D01*
X260541183Y-41854636D01*
X260537799Y-41964466D01*
X260494968Y-42065657D01*
X260418475Y-42144543D01*
X260318651Y-42190469D01*
X260245721Y-42199500D01*
X254546496Y-42199500D01*
X254438485Y-42179309D01*
X254345061Y-42121464D01*
X254300718Y-42070777D01*
X254267169Y-42022352D01*
X254213819Y-41945346D01*
X254054654Y-41786181D01*
X253869626Y-41657993D01*
X253869624Y-41657992D01*
X253869618Y-41657988D01*
X253664684Y-41564904D01*
X253446408Y-41509903D01*
X253314238Y-41499501D01*
X253314224Y-41499500D01*
X253314217Y-41499500D01*
X253314205Y-41499500D01*
X252462535Y-41499500D01*
X252354524Y-41479309D01*
X252261100Y-41421464D01*
X252251110Y-41411925D01*
X250886946Y-40047761D01*
X250879044Y-40036226D01*
X250868292Y-40027293D01*
X250848195Y-39991191D01*
X250824848Y-39957108D01*
X250821647Y-39943500D01*
X250814847Y-39931284D01*
X250809149Y-39890363D01*
X250799690Y-39850145D01*
X250801621Y-39836297D01*
X250799694Y-39822452D01*
X250809162Y-39782239D01*
X250814871Y-39741316D01*
X250821674Y-39729102D01*
X250824878Y-39715495D01*
X250848235Y-39681415D01*
X250868340Y-39645321D01*
X250880686Y-39634068D01*
X250886999Y-39624858D01*
X250910962Y-39606474D01*
X250929457Y-39589619D01*
X250938920Y-39583139D01*
X251082450Y-39500273D01*
X251268709Y-39357351D01*
X251275382Y-39352783D01*
X251318370Y-39333814D01*
X251360259Y-39312553D01*
X251369590Y-39311214D01*
X251375913Y-39308425D01*
X251395234Y-39307536D01*
X251444296Y-39300500D01*
X258497465Y-39300500D01*
X258605476Y-39320691D01*
G37*
%TD.AperFunction*%
%TD*%
%TA.AperFunction,NonConductor*%
G36*
X256246476Y-18320691D02*
G01*
X256339900Y-18378536D01*
X256406119Y-18466224D01*
X256436190Y-18571912D01*
X256426051Y-18681325D01*
X256377072Y-18779688D01*
X256349890Y-18810925D01*
X255008033Y-20152781D01*
X254887716Y-20318384D01*
X254887714Y-20318386D01*
X254887713Y-20318389D01*
X254845876Y-20400500D01*
X254845875Y-20400499D01*
X254793706Y-20502887D01*
X254791150Y-20511952D01*
X254731523Y-20695463D01*
X254699500Y-20897646D01*
X254699500Y-28438465D01*
X254679309Y-28546476D01*
X254621464Y-28639900D01*
X254533776Y-28706119D01*
X254428088Y-28736190D01*
X254318675Y-28726051D01*
X254220312Y-28677072D01*
X254189075Y-28649890D01*
X253238075Y-27698890D01*
X253175977Y-27608237D01*
X253150819Y-27501274D01*
X253150500Y-27487465D01*
X253150500Y-20812534D01*
X253170691Y-20704523D01*
X253228536Y-20611099D01*
X253238075Y-20601109D01*
X255451109Y-18388075D01*
X255479604Y-18368555D01*
X255505131Y-18345285D01*
X255524567Y-18337755D01*
X255541762Y-18325977D01*
X255575382Y-18318069D01*
X255607593Y-18305591D01*
X255641985Y-18302404D01*
X255648725Y-18300819D01*
X255662534Y-18300500D01*
X256138465Y-18300500D01*
X256246476Y-18320691D01*
G37*
%TD.AperFunction*%
%TA.AperFunction,NonConductor*%
G36*
X260463803Y-52014130D02*
G01*
X260512614Y-52020939D01*
X260517710Y-52023777D01*
X260523455Y-52024806D01*
X260565559Y-52050429D01*
X260608609Y-52074408D01*
X260613763Y-52079765D01*
X260617321Y-52081930D01*
X260654806Y-52122419D01*
X260681081Y-52156661D01*
X260843339Y-52318919D01*
X261025388Y-52458611D01*
X261025394Y-52458614D01*
X261025398Y-52458617D01*
X261224107Y-52573342D01*
X261436118Y-52661160D01*
X261657758Y-52720547D01*
X261657762Y-52720548D01*
X261814637Y-52741201D01*
X261919088Y-52775318D01*
X261987033Y-52826218D01*
X263691925Y-54531109D01*
X263754023Y-54621762D01*
X263779181Y-54728725D01*
X263779500Y-54742534D01*
X263779500Y-57635703D01*
X263759309Y-57743714D01*
X263717713Y-57817722D01*
X263579727Y-57997549D01*
X263461717Y-58201948D01*
X263371395Y-58420004D01*
X263310307Y-58647985D01*
X263280720Y-58872715D01*
X263246603Y-58977167D01*
X263195703Y-59045111D01*
X262628890Y-59611925D01*
X262538238Y-59674023D01*
X262431274Y-59699181D01*
X262417465Y-59699500D01*
X256984889Y-59699500D01*
X256876878Y-59679309D01*
X256783454Y-59621464D01*
X256717235Y-59533776D01*
X256687164Y-59428088D01*
X256688447Y-59361471D01*
X256689691Y-59352020D01*
X256689693Y-59352014D01*
X256719509Y-59125540D01*
X256720500Y-59118012D01*
X256720500Y-58881986D01*
X256711777Y-58815733D01*
X256689693Y-58647986D01*
X256628606Y-58420007D01*
X256538284Y-58201951D01*
X256420273Y-57997550D01*
X256324063Y-57872166D01*
X256276597Y-57810307D01*
X256276594Y-57810304D01*
X256276592Y-57810301D01*
X256109699Y-57643408D01*
X256109696Y-57643405D01*
X256109692Y-57643402D01*
X255922450Y-57499727D01*
X255718051Y-57381717D01*
X255718049Y-57381716D01*
X255565373Y-57318475D01*
X255473312Y-57258488D01*
X255409136Y-57169294D01*
X255381515Y-57062940D01*
X255394178Y-56953790D01*
X255445416Y-56856585D01*
X255468363Y-56830820D01*
X260206172Y-52093011D01*
X260210982Y-52089716D01*
X260214463Y-52085033D01*
X260256170Y-52058762D01*
X260296822Y-52030916D01*
X260302501Y-52029580D01*
X260307439Y-52026470D01*
X260355812Y-52017041D01*
X260403785Y-52005758D01*
X260409564Y-52006564D01*
X260415291Y-52005448D01*
X260463803Y-52014130D01*
G37*
%TD.AperFunction*%
%TA.AperFunction,NonConductor*%
G36*
X126246576Y-63826976D02*
G01*
X126342572Y-63880444D01*
X126412770Y-63964980D01*
X126435924Y-64018080D01*
X126493177Y-64194289D01*
X126493180Y-64194297D01*
X126494780Y-64199219D01*
X126497838Y-64205220D01*
X126587713Y-64381611D01*
X126701833Y-64538684D01*
X126708034Y-64547219D01*
X129035960Y-66875145D01*
X129098058Y-66965798D01*
X129123216Y-67072761D01*
X129112998Y-67159617D01*
X129114091Y-67159867D01*
X129037231Y-67496613D01*
X128999500Y-67831498D01*
X128999500Y-68168501D01*
X129037231Y-68503386D01*
X129096571Y-68763376D01*
X129112224Y-68831954D01*
X129223531Y-69150051D01*
X129223533Y-69150055D01*
X129223534Y-69150058D01*
X129369753Y-69453685D01*
X129499738Y-69660553D01*
X129549054Y-69739039D01*
X129759175Y-70002523D01*
X129759184Y-70002532D01*
X129945727Y-70189075D01*
X130007825Y-70279728D01*
X130032983Y-70386691D01*
X130017802Y-70495520D01*
X129964333Y-70591515D01*
X129879797Y-70661713D01*
X129775611Y-70696633D01*
X129734302Y-70699500D01*
X126265698Y-70699500D01*
X126157687Y-70679309D01*
X126064263Y-70621464D01*
X125998044Y-70533776D01*
X125967973Y-70428088D01*
X125978112Y-70318675D01*
X126027091Y-70220312D01*
X126054273Y-70189075D01*
X126240825Y-70002523D01*
X126450946Y-69739039D01*
X126630246Y-69453686D01*
X126776469Y-69150051D01*
X126887776Y-68831954D01*
X126962767Y-68503394D01*
X127000500Y-68168504D01*
X127000500Y-67831496D01*
X126962767Y-67496606D01*
X126887776Y-67168046D01*
X126776469Y-66849949D01*
X126630246Y-66546314D01*
X126450946Y-66260961D01*
X126240825Y-65997477D01*
X126002523Y-65759175D01*
X125739039Y-65549054D01*
X125453686Y-65369754D01*
X125453685Y-65369753D01*
X125446583Y-65365291D01*
X125447291Y-65364163D01*
X125438394Y-65356824D01*
X125419312Y-65347322D01*
X125396360Y-65322145D01*
X125370078Y-65300462D01*
X125359644Y-65281869D01*
X125345285Y-65266118D01*
X125332978Y-65234349D01*
X125316304Y-65204637D01*
X125312483Y-65181446D01*
X125305591Y-65163656D01*
X125300500Y-65108715D01*
X125300500Y-64662533D01*
X125320691Y-64554522D01*
X125378536Y-64461098D01*
X125388057Y-64451126D01*
X125830175Y-64009007D01*
X125830182Y-64009002D01*
X125847217Y-63991967D01*
X125847219Y-63991966D01*
X125940135Y-63899049D01*
X126030784Y-63836953D01*
X126137748Y-63811795D01*
X126246576Y-63826976D01*
G37*
%TD.AperFunction*%
%TA.AperFunction,NonConductor*%
G36*
X122497887Y-63575667D02*
G01*
X122593882Y-63629136D01*
X122664080Y-63713672D01*
X122699000Y-63817858D01*
X122698374Y-63885769D01*
X122700422Y-63885931D01*
X122699500Y-63897648D01*
X122699500Y-65108715D01*
X122679309Y-65216726D01*
X122621464Y-65310150D01*
X122552821Y-65364343D01*
X122553417Y-65365291D01*
X122260965Y-65549051D01*
X121997483Y-65759170D01*
X121997467Y-65759184D01*
X121759184Y-65997467D01*
X121759170Y-65997483D01*
X121549053Y-66260961D01*
X121369753Y-66546314D01*
X121223534Y-66849941D01*
X121223532Y-66849947D01*
X121112224Y-67168044D01*
X121037231Y-67496613D01*
X120999500Y-67831498D01*
X120999500Y-68168501D01*
X121037231Y-68503386D01*
X121096571Y-68763376D01*
X121112224Y-68831954D01*
X121223531Y-69150051D01*
X121223533Y-69150055D01*
X121223534Y-69150058D01*
X121369753Y-69453685D01*
X121499738Y-69660553D01*
X121549054Y-69739039D01*
X121759175Y-70002523D01*
X121759184Y-70002532D01*
X121945727Y-70189075D01*
X122007825Y-70279728D01*
X122032983Y-70386691D01*
X122017802Y-70495520D01*
X121964333Y-70591515D01*
X121879797Y-70661713D01*
X121775611Y-70696633D01*
X121734302Y-70699500D01*
X118265698Y-70699500D01*
X118157687Y-70679309D01*
X118064263Y-70621464D01*
X117998044Y-70533776D01*
X117967973Y-70428088D01*
X117978112Y-70318675D01*
X118027091Y-70220312D01*
X118054273Y-70189075D01*
X118240825Y-70002523D01*
X118450946Y-69739039D01*
X118630246Y-69453686D01*
X118776469Y-69150051D01*
X118887776Y-68831954D01*
X118962767Y-68503394D01*
X119000500Y-68168504D01*
X119000500Y-67831496D01*
X118962767Y-67496606D01*
X118887776Y-67168046D01*
X118887775Y-67168045D01*
X118885909Y-67159866D01*
X118887213Y-67159568D01*
X118877649Y-67059977D01*
X118907366Y-66954189D01*
X118964036Y-66875147D01*
X122191444Y-63647740D01*
X122282095Y-63585644D01*
X122389058Y-63560486D01*
X122497887Y-63575667D01*
G37*
%TD.AperFunction*%
%TA.AperFunction,NonConductor*%
G36*
X275495520Y-62658034D02*
G01*
X275591515Y-62711503D01*
X275661713Y-62796039D01*
X275696633Y-62900225D01*
X275699500Y-62941534D01*
X275699500Y-63337465D01*
X275679309Y-63445476D01*
X275621464Y-63538900D01*
X275611925Y-63548890D01*
X266595273Y-72565541D01*
X266583641Y-72573508D01*
X266574625Y-72584344D01*
X266538609Y-72604355D01*
X266504620Y-72627639D01*
X266490898Y-72630866D01*
X266478575Y-72637714D01*
X266437759Y-72643364D01*
X266397657Y-72652797D01*
X266383696Y-72650849D01*
X266369731Y-72652783D01*
X266329633Y-72643308D01*
X266288828Y-72637616D01*
X266273767Y-72630107D01*
X266262793Y-72627514D01*
X266232480Y-72609522D01*
X266214617Y-72600616D01*
X266208104Y-72596144D01*
X266082450Y-72499727D01*
X265989472Y-72446046D01*
X265979857Y-72439445D01*
X265949146Y-72408670D01*
X265916142Y-72380394D01*
X265910566Y-72370010D01*
X265902239Y-72361666D01*
X265884721Y-72321881D01*
X265864158Y-72283587D01*
X265862709Y-72271889D01*
X265857959Y-72261100D01*
X265855996Y-72217673D01*
X265850655Y-72174537D01*
X265853530Y-72163105D01*
X265852998Y-72151330D01*
X265866854Y-72110128D01*
X265877457Y-72067974D01*
X265884370Y-72058046D01*
X265888025Y-72047180D01*
X265912009Y-72018358D01*
X265937660Y-71981523D01*
X275189078Y-62730106D01*
X275279728Y-62668011D01*
X275386691Y-62642853D01*
X275495520Y-62658034D01*
G37*
%TD.AperFunction*%
%TA.AperFunction,NonConductor*%
G36*
X263367963Y-74785587D02*
G01*
X263463959Y-74839056D01*
X263531886Y-74919587D01*
X263579727Y-75002450D01*
X263723402Y-75189692D01*
X263723405Y-75189696D01*
X263723408Y-75189699D01*
X263890301Y-75356592D01*
X263890304Y-75356594D01*
X263890307Y-75356597D01*
X263936125Y-75391754D01*
X264077550Y-75500273D01*
X264281951Y-75618284D01*
X264500007Y-75708606D01*
X264727986Y-75769693D01*
X264913215Y-75794078D01*
X264961987Y-75800500D01*
X264961989Y-75800500D01*
X265198013Y-75800500D01*
X265242181Y-75794684D01*
X265432014Y-75769693D01*
X265659993Y-75708606D01*
X265878049Y-75618284D01*
X266082450Y-75500273D01*
X266262277Y-75362286D01*
X266275737Y-75355454D01*
X266286893Y-75345285D01*
X266324397Y-75330755D01*
X266360259Y-75312553D01*
X266377923Y-75310019D01*
X266389355Y-75305591D01*
X266444296Y-75300500D01*
X267030965Y-75300500D01*
X267138976Y-75320691D01*
X267232400Y-75378536D01*
X267298619Y-75466224D01*
X267328690Y-75571912D01*
X267318551Y-75681325D01*
X267269572Y-75779688D01*
X267242390Y-75810925D01*
X262161425Y-80891890D01*
X262070772Y-80953988D01*
X261963809Y-80979146D01*
X261854980Y-80963965D01*
X261758985Y-80910496D01*
X261738575Y-80891890D01*
X256657610Y-75810925D01*
X256595512Y-75720272D01*
X256570354Y-75613309D01*
X256585535Y-75504480D01*
X256639004Y-75408485D01*
X256723540Y-75338287D01*
X256827726Y-75303367D01*
X256869035Y-75300500D01*
X262182351Y-75300500D01*
X262182352Y-75300500D01*
X262384535Y-75268477D01*
X262513787Y-75226480D01*
X262579219Y-75205220D01*
X262687494Y-75150051D01*
X262761611Y-75112287D01*
X262927219Y-74991966D01*
X263061521Y-74857663D01*
X263152171Y-74795565D01*
X263259134Y-74770407D01*
X263367963Y-74785587D01*
G37*
%TD.AperFunction*%
M02*
